/* XPM */
static char * ennemy_down_xpm[] = {
"64 64 126 2",
"  	c #CD7700",
". 	c #CC7700",
"+ 	c #C57200",
"@ 	c #C37100",
"# 	c #CA7500",
"$ 	c #B26700",
"% 	c #975600",
"& 	c #864C00",
"* 	c #8F5100",
"= 	c #A76000",
"- 	c #B06500",
"; 	c #6B3C00",
"> 	c #3E2000",
", 	c #261100",
"' 	c #331A00",
") 	c #542D00",
"! 	c #995800",
"~ 	c #824A00",
"{ 	c #281300",
"] 	c #000000",
"^ 	c #0F0500",
"/ 	c #5F3400",
"( 	c #B36700",
"_ 	c #CB7600",
": 	c #BA6B00",
"< 	c #583000",
"[ 	c #080200",
"} 	c #2D1600",
"| 	c #9C5900",
"1 	c #C87400",
"2 	c #B16600",
"3 	c #422300",
"4 	c #140700",
"5 	c #834A00",
"6 	c #C67300",
"7 	c #724000",
"8 	c #C27000",
"9 	c #B76A00",
"0 	c #4C2900",
"a 	c #5E3400",
"b 	c #BE6E00",
"c 	c #4E2A00",
"d 	c #B86A00",
"e 	c #734000",
"f 	c #B46800",
"g 	c #7D4700",
"h 	c #371C00",
"i 	c #B06600",
"j 	c #311800",
"k 	c #CC7600",
"l 	c #C06F00",
"m 	c #B66900",
"n 	c #A35D00",
"o 	c #6F3E00",
"p 	c #4F2B00",
"q 	c #A55F00",
"r 	c #C17000",
"s 	c #7F4800",
"t 	c #231000",
"u 	c #1D0C00",
"v 	c #BC6C00",
"w 	c #663800",
"x 	c #562F00",
"y 	c #BB6C00",
"z 	c #633700",
"A 	c #391D00",
"B 	c #915200",
"C 	c #995700",
"D 	c #C47100",
"E 	c #734100",
"F 	c #200E00",
"G 	c #9F5B00",
"H 	c #B56800",
"I 	c #693A00",
"J 	c #351B00",
"K 	c #190A00",
"L 	c #412200",
"M 	c #B96B00",
"N 	c #955500",
"O 	c #814900",
"P 	c #774300",
"Q 	c #572F00",
"R 	c #AA6100",
"S 	c #C77300",
"T 	c #AD6300",
"U 	c #3B1E00",
"V 	c #985700",
"W 	c #8A4E00",
"X 	c #C97500",
"Y 	c #5D3300",
"Z 	c #8D5000",
"` 	c #452500",
" .	c #4B2800",
"..	c #AA6200",
"+.	c #804800",
"@.	c #6E3D00",
"#.	c #754100",
"$.	c #965600",
"%.	c #2F1700",
"&.	c #2B1400",
"*.	c #5C3300",
"=.	c #AF6500",
"-.	c #AB6200",
";.	c #A96100",
">.	c #A65F00",
",.	c #AF6400",
"'.	c #7F4700",
").	c #A15C00",
"!.	c #532D00",
"~.	c #BA6C00",
"{.	c #5B3200",
"].	c #472500",
"^.	c #512B00",
"/.	c #9B5900",
"(.	c #874C00",
"_.	c #905200",
":.	c #3F2100",
"<.	c #9A5800",
"[.	c #492700",
"}.	c #8E5100",
"|.	c #4D2900",
"1.	c #703F00",
"2.	c #BC6D00",
"3.	c #A05C00",
"4.	c #8C5000",
"5.	c #623600",
"                                                                                                                                ",
"                                                                                                                                ",
"                                                                                                                                ",
"                                                                                                                                ",
"                                                                                                                                ",
"                                                                                                                                ",
"                                                                                                                                ",
"                                                        . + @ @ #                                                               ",
"                                                      # $ % & * = @ .                                                           ",
"                                                    . - ; > , ' ) ! +                                                           ",
"                                                    + ~ { ] ] ] ^ / ( _                                                         ",
"                                                    : < [ ] ] ] ] } | 1                                                         ",
"                                                    2 3 ] ] ] ] ] 4 5 6                                                         ",
"                                                    $ > ] ] ] ] ] [ 7 8                                                         ",
"                                                    9 0 ] ] ] ] ] ] a b                                                         ",
"                                                    b a ] ] ] ] ] ] c d                                                         ",
"                                                    8 e [ ] ] ] ] ] > f                                                         ",
"                                                    6 g [ ] ] ] ] ] h i                                                         ",
"                                                    6 & ^ ] ] ] ] ] j i                                                         ",
"                                                    6 & ^ ] ] ] ] ] j i                                                         ",
"                                                    6 & ^ ] ] ] ] ] j i                                                         ",
"                                                    6 & ^ ] ] ] ] ] j i                                                         ",
"                                                    6 & ^ ] ] ] ] ] j i                                                         ",
"                                                    6 & ^ ] ] ] ] ] j i                                                         ",
"                                                    6 & ^ ] ] ] ] ] j i                                                         ",
"                                k l m m l k         6 & ^ ] ] ] ] ] j i                                                         ",
"                              1 n o p p o n 1       6 & ^ ] ] ] ] ] j i                                                         ",
"                            k q p 4 ] ] 4 p q k     6 & ^ ] ] ] ] ] j i                                                         ",
"                            r s t ] ] ] ] u g r     6 & ^ ] ] ] ] ] j i                                                         ",
"                            v w [ ] ] ] ] ] x y     6 & ^ ] ] ] ] ] j i                 . 6 r r 6 .                             ",
"                            : z [ ] ] ] ] ] A i     6 & ^ ] ] ] ] ] j i               _ m B g g C 9 _                           ",
"                            D E [ ] ] ] ] ] F G .   6 & ^ ] ] ] ] ] j i             . H I J K t L & M .                         ",
"                            # N K ] ] ] ] ] ^ O 6   6 & ^ ] ] ] ] ] j i             D P t ] ] ] ^ Q R S                         ",
"                              T U ] ] ] ] ] ] 0 m   6 & ^ ] ] ] ] ] j i           k G ' ] ] ] ] ] A V S                         ",
"                              l / [ ] ] ] ] ] F W X 6 & ^ ] ] ] ] ] j i           y Y [ ] ] ] ] ] ' | S                         ",
"                              S Z u ] ] ] ] ] ] Q d 6 & ^ ] ] ] ] ] j i         1 & t ] ] ] ] ] ] ` R .                         ",
"                              . T  .] ] ] ] ] ] t C @ & ^ ] ] ] ] ] j i       . ..3 ] ] ] ] ] ] 4 7 D                           ",
"                                1 +.K ] ] ] ] ] [ < M & ^ ] ] ] ] ] j i       @ @.^ ] ] ] ] ] ] 3 ...                           ",
"                                  $ 3 ] ] ] ] ] ] u #.5 ^ ] ] ] ] ] j i     # $.%.] ] ] ] ] ] t & 1                             ",
"                                  + g ^ ] ] ] ] ] ] &.*.4 ] ] ] ] ] } =.  k -. .[ ] ] ] ] ] [ Y y                               ",
"                                  . ;.L ] ] ] ] ] ] ] , ^ ] ] ] ] ] t >.# ,.< ^ ] ] ] ] ] ] ' G k                               ",
"                                    S '.u ] ] ] ] ] ] ] [ ] ] ] ] ] 4 * ).!.4 ] ] ] ] ] ] 4 E D                                 ",
"                                      ~.{.^ ] ] ] ] ] ] ] ] ] ] ] ] [ !.].^ ] ] ] ] ] ] [ ^.=..                                 ",
"                                      k ;.3 ] ] ] ] ] ] ] ] ] ] ] ] ] 4 [ ] ] ] ] ] ] ] > /.#                                   ",
"                                        # % A [ ] ] ] ] ] ] ] ] ] ] ] ] ] ] ] ] ] ] ] } (.X                                     ",
"                                          X _.:.[ ] ] ] ] ] ] ] ] ] ] ] ] ] ] ] ] ] %.'.S                                       ",
"                                            1 <.p ^ ] ] ] ] ] ] ] ] ] ] ] ] ] ] [ ' ~ S                                         ",
"                                              _ ).[.^ ] ] ] ] ] ] ] ] ] ] ] ] [ 3 }.1                                           ",
"                                                X ! ` [ ] ] ] ] ] ] ] ] ] ] 4 |./.X                                             ",
"                                                  X ! ` [ ] ] ] ] ] ] ] ] K Y ;.#                                               ",
"                                                    # N &.] ] ] ] ] ] ] [ z : k                                                 ",
"                                                      1 E [ ] ] ] ] ] ] } =.                                                    ",
"                                                        r c ] ] ] ] ] [ 1.l                                                     ",
"                                                          2.) 4 ] [ ^  .3.k                                                     ",
"                                                            + 4.E 5.& n 1                                                       ",
"                                                              k r r r k                                                         ",
"                                                                                                                                ",
"                                                                                                                                ",
"                                                                                                                                ",
"                                                                                                                                ",
"                                                                                                                                ",
"                                                                                                                                ",
"                                                                                                                                ",
"                                                                                                                                "};
