/* XPM */
static char * ennemy_left_xpm[] = {
"64 64 126 2",
"  	c #CD7700",
". 	c #CC7600",
"+ 	c #C17000",
"@ 	c #C87400",
"# 	c #9C5900",
"$ 	c #874C00",
"% 	c #724000",
"& 	c #8D5000",
"* 	c #A35E00",
"= 	c #C77300",
"- 	c #824A00",
"; 	c #422300",
"> 	c #200E00",
", 	c #1D0C00",
"' 	c #2F1700",
") 	c #5E3400",
"! 	c #A35D00",
"~ 	c #804800",
"{ 	c #351B00",
"] 	c #080200",
"^ 	c #000000",
"/ 	c #2D1600",
"( 	c #8A4E00",
"_ 	c #7E4700",
": 	c #331A00",
"< 	c #190A00",
"[ 	c #6D3D00",
"} 	c #BF6E00",
"| 	c #C97400",
"1 	c #824900",
"2 	c #281300",
"3 	c #7F4700",
"4 	c #864C00",
"5 	c #2B1400",
"6 	c #3B1E00",
"7 	c #935400",
"8 	c #CA7500",
"9 	c #C97500",
"0 	c #8F5100",
"a 	c #231000",
"b 	c #734000",
"c 	c #C06F00",
"d 	c #A45E00",
"e 	c #412200",
"f 	c #6B3B00",
"g 	c #BE6E00",
"h 	c #BB6C00",
"i 	c #603500",
"j 	c #0F0500",
"k 	c #593100",
"l 	c #B86A00",
"m 	c #3F2100",
"n 	c #CC7700",
"o 	c #AA6200",
"p 	c #C47100",
"q 	c #703F00",
"r 	c #C57200",
"s 	c #BA6B00",
"t 	c #BC6C00",
"u 	c #9F5B00",
"v 	c #311800",
"w 	c #C67300",
"x 	c #C47200",
"y 	c #AB6300",
"z 	c #955500",
"A 	c #583000",
"B 	c #572F00",
"C 	c #562F00",
"D 	c #623600",
"E 	c #794400",
"F 	c #9B5900",
"G 	c #CB7600",
"H 	c #5D3300",
"I 	c #B96B00",
"J 	c #AA6100",
"K 	c #935300",
"L 	c #764200",
"M 	c #552E00",
"N 	c #442400",
"O 	c #834A00",
"P 	c #844B00",
"Q 	c #A05B00",
"R 	c #8C4F00",
"S 	c #7C4600",
"T 	c #663900",
"U 	c #4B2800",
"V 	c #492700",
"W 	c #140700",
"X 	c #8B4F00",
"Y 	c #C37100",
"Z 	c #AE6400",
"` 	c #A66000",
" .	c #AD6400",
"..	c #3C1F00",
"+.	c #4D2900",
"@.	c #683A00",
"#.	c #6A3B00",
"$.	c #894E00",
"%.	c #A25D00",
"&.	c #B06500",
"*.	c #AC6300",
"=.	c #4C2900",
"-.	c #371C00",
";.	c #693A00",
">.	c #B06600",
",.	c #B36700",
"'.	c #B26700",
").	c #452500",
"!.	c #7A4400",
"~.	c #261100",
"{.	c #AF6400",
"].	c #905200",
"^.	c #3E2000",
"/.	c #653800",
"(.	c #B56800",
"_.	c #915200",
":.	c #985700",
"<.	c #7D4700",
"[.	c #9E5B00",
"}.	c #4F2B00",
"|.	c #A96100",
"1.	c #643700",
"2.	c #995800",
"3.	c #B76A00",
"4.	c #A15C00",
"5.	c #9B5800",
"                                                                                                                                ",
"                                                                                                                                ",
"                                                                                                                                ",
"                                                                                                                                ",
"                                                                                                                                ",
"                                                                                                                                ",
"                                                                                                                                ",
"                                                                                                                                ",
"                                                                                                                                ",
"                                                                                                                                ",
"                                                                                                                                ",
"                                                                                                                                ",
"                                                                                                                                ",
"                                                                                                                                ",
"                                                                                                                                ",
"                                                                                                                                ",
"                                              . + + + .                                                                         ",
"                                            @ # $ % & * @                                                                       ",
"                                          = - ; > , ' ) ! .                                                                     ",
"                                        = ~ { ] ^ ^ ] / ( +                                                                     ",
"                                      = _ : ] ^ ^ ^ ^ < [ }                                                                     ",
"                                    | 1 2 ^ ^ ^ ^ ^ ^ , 3 }                                                                     ",
"                                  = 4 5 ^ ^ ^ ^ ^ ^ ^ 6 7 8                                                                     ",
"                                9 0 / ^ ^ ^ ^ ^ ^ ^ a b c                                                                       ",
"                              . d e ] ^ ^ ^ ^ ^ ^ < f g .                                                                       ",
"                              h i j ^ ^ ^ ^ ^ ^ j k l                                                                           ",
"                            @ 4 a ^ ^ ^ ^ ^ ^ ^ m d .                                                                           ",
"                          n o ; ^ ^ ^ ^ ^ ^ ^ / 0 9                                                                             ",
"                          p q j ^ ^ ^ ^ ^ ^ 5 4 =                   8 r } h h h h h h h h h h h h s t + @                       ",
"                        . u v ^ ^ ^ ^ ^ ^ > _ w             8 x s y z ~ f ) A B B B B B B B B B C B D E F h G                   ",
"                        h H ] ^ ^ ^ ^ ^ ] H I @ w w w + l J K L M : , j ] ] ^ ^ ^ ^ ^ ^ ^ ^ ^ ^ ^ ^ ] < N O h                   ",
"                      @ P > ^ ^ ^ ^ ^ ^ 5 4 Q K R 4 S T U ' < ] ^ ^ ^ ^ ^ ^ ^ ^ ^ ^ ^ ^ ^ ^ ^ ^ ^ ^ ^ ^ ] V u @                 ",
"                    . ! 6 ^ ^ ^ ^ ^ ^ ^ a { a < W j ] ^ ^ ^ ^ ^ ^ ^ ^ ^ ^ ^ ^ ^ ^ ^ ^ ^ ^ ^ ^ ^ ^ ^ ^ ^ ^ / X Y                 ",
"                    } f ] ^ ^ ^ ^ ^ ^ ^ ^ ^ ^ ^ ^ ^ ^ ^ ^ ^ ^ ^ ^ ^ ^ ^ ^ ^ ^ ^ ^ ^ ^ ^ ^ ^ ^ ^ ^ ^ ^ ^ ^ / X Y                 ",
"                  G Z N ^ ^ ^ ^ ^ ^ ^ ^ ^ ^ ^ ^ ^ ^ ^ ^ ^ ^ ^ ^ ^ ^ ^ ^ ^ ^ ^ ^ ^ ^ ^ ^ ^ ^ ^ ^ ^ ^ ^ ^ ] V u @                 ",
"                  G ` v ^ ^ ^ ^ ^ ^ ^ ^ ^ ^ ^ ^ ^ ^ ^ ^ ^ ^ ^ ^ ^ ^ ^ ^ ^ ^ ^ ^ ^ ^ ^ ^ ^ ^ ^ ^ ^ ^ ] < N O h                   ",
"                  G  .e ^ ^ ^ ^ ^ ^ ^ ^ ^ ^ ^ ^ ^ ^ ^ ^ ^ ^ ^ ^ ^ ] W 2 ..+.B B B B B B B B B B C B D E F h G                   ",
"                    } @.] ^ ^ ^ ^ ^ ^ ^ ^ ^ ^ ^ ^ ^ ^ ^ ^ ^ ] W ..#.$.%.&.s h h h h h h h h h h h s t + @                       ",
"                    . *.=.] ^ ^ ^ ^ ^ ^ ^ ^ ^ ] > ' { -.m +.;.$.&.+ @ 8                                                         ",
"                      8 >.% 5 ] ^ ^ ^ ^ ^ ^ ^ ] m P  .,.'.I } 8                                                                 ",
"                        n w o H > ^ ^ ^ ^ ^ ^ ^ j ).z =                                                                         ",
"                            . c !.v ] ^ ^ ^ ^ ^ ^ ] 6 1 h .                                                                     ",
"                                w ( ; ] ^ ^ ^ ^ ^ ^ ^ ~.T {.8                                                                   ",
"                                  9 ].^.] ^ ^ ^ ^ ^ ^ ^ , /.(.n                                                                 ",
"                                    @ ].e ] ^ ^ ^ ^ ^ ^ ^ : _.w                                                                 ",
"                                      9 :.V j ^ ^ ^ ^ ^ ^ , <.+                                                                 ",
"                                        8 [.}.W ^ ^ ^ ^ ^ a 3 +                                                                 ",
"                                          8 |.1.~.] ^ ^ W ).2.w                                                                 ",
"                                            . h 4 B ; ; H 4 3.n                                                                 ",
"                                                @ {.4.5.o I G                                                                   ",
"                                                  n = = = n                                                                     ",
"                                                                                                                                ",
"                                                                                                                                ",
"                                                                                                                                ",
"                                                                                                                                ",
"                                                                                                                                ",
"                                                                                                                                ",
"                                                                                                                                ",
"                                                                                                                                ",
"                                                                                                                                ",
"                                                                                                                                ",
"                                                                                                                                ",
"                                                                                                                                ",
"                                                                                                                                "};
