/* XPM */
static char * ennemy_right_xpm[] = {
"64 64 295 2",
"  	c #CD7700",
". 	c #C97500",
"+ 	c #9C5900",
"@ 	c #724000",
"# 	c #AF6500",
"$ 	c #0F0500",
"% 	c #000000",
"& 	c #A35D00",
"* 	c #C57200",
"= 	c #3E2000",
"- 	c #CC7600",
"; 	c #6F3E00",
"> 	c #A15C00",
", 	c #C97400",
"' 	c #BE6E00",
") 	c #975600",
"! 	c #562F00",
"~ 	c #8E5100",
"{ 	c #985700",
"] 	c #D57000",
"^ 	c #B12200",
"/ 	c #9F4900",
"( 	c #CF7500",
"_ 	c #F73A00",
": 	c #E31500",
"< 	c #CC2300",
"[ 	c #CE7600",
"} 	c #E35300",
"| 	c #FF1800",
"1 	c #580400",
"2 	c #E61500",
"3 	c #DC6800",
"4 	c #C17000",
"5 	c #6B1800",
"6 	c #F91700",
"7 	c #A90D00",
"8 	c #060000",
"9 	c #FC1800",
"0 	c #C85900",
"a 	c #764200",
"b 	c #A90E00",
"c 	c #DB1300",
"d 	c #6B0500",
"e 	c #F81700",
"f 	c #7F4500",
"g 	c #AE6400",
"h 	c #060100",
"i 	c #E21500",
"j 	c #350200",
"k 	c #9A0A00",
"l 	c #D71300",
"m 	c #552E00",
"n 	c #710700",
"o 	c #FD1800",
"p 	c #950A00",
"q 	c #BD0F00",
"r 	c #A00C00",
"s 	c #CC7700",
"t 	c #AA6200",
"u 	c #C61100",
"v 	c #C91100",
"w 	c #480300",
"x 	c #BD6D00",
"y 	c #932F00",
"z 	c #470300",
"A 	c #E71600",
"B 	c #CA1200",
"C 	c #B56800",
"D 	c #E26000",
"E 	c #7D0700",
"F 	c #AE0E00",
"G 	c #5C0500",
"H 	c #9C0C00",
"I 	c #CC6000",
"J 	c #F53D00",
"K 	c #F61700",
"L 	c #6D0600",
"M 	c #280100",
"N 	c #8A0B00",
"O 	c #7B0800",
"P 	c #2F0200",
"Q 	c #570300",
"R 	c #E45E00",
"S 	c #D66E00",
"T 	c #F11600",
"U 	c #5B0400",
"V 	c #460500",
"W 	c #450400",
"X 	c #A60C00",
"Y 	c #EB5300",
"Z 	c #E65A00",
"` 	c #E91500",
" .	c #3D0200",
"..	c #DA1300",
"+.	c #ED5000",
"@.	c #C06F00",
"#.	c #BC6D00",
"$.	c #CB7600",
"%.	c #E64900",
"&.	c #DA1400",
"*.	c #100000",
"=.	c #4E0300",
"-.	c #EC4F00",
";.	c #633700",
">.	c #522C00",
",.	c #703F00",
"'.	c #894E00",
").	c #472500",
"!.	c #910A00",
"~.	c #DD1400",
"{.	c #C01000",
"].	c #B20E00",
"^.	c #FE1800",
"/.	c #E14C00",
"(.	c #C77300",
"_.	c #A76000",
":.	c #532D00",
"<.	c #760700",
"[.	c #D21300",
"}.	c #980B00",
"|.	c #EE1600",
"1.	c #540800",
"2.	c #C37100",
"3.	c #905200",
"4.	c #6C0600",
"5.	c #D11200",
"6.	c #640500",
"7.	c #990A00",
"8.	c #422300",
"9.	c #D81400",
"0.	c #E41500",
"a.	c #1C0100",
"b.	c #A60D00",
"c.	c #653800",
"d.	c #884D00",
"e.	c #960B00",
"f.	c #A20D00",
"g.	c #8A0900",
"h.	c #9B0B00",
"i.	c #623600",
"j.	c #2C0200",
"k.	c #643700",
"l.	c #613500",
"m.	c #603500",
"n.	c #663800",
"o.	c #BF5A00",
"p.	c #722E00",
"q.	c #EE7000",
"r.	c #FF6C00",
"s.	c #E86200",
"t.	c #AD4800",
"u.	c #481A00",
"v.	c #A54E00",
"w.	c #E37300",
"x.	c #FB6B00",
"y.	c #CE5700",
"z.	c #7A3200",
"A.	c #722D00",
"B.	c #F16C00",
"C.	c #D67500",
"D.	c #DF5B00",
"E.	c #900B00",
"F.	c #652300",
"G.	c #F16600",
"H.	c #F56F00",
"I.	c #F76E00",
"J.	c #FF6B00",
"K.	c #FF3E00",
"L.	c #940B00",
"M.	c #8E0A00",
"N.	c #F62900",
"O.	c #F36F00",
"P.	c #E47200",
"Q.	c #FF4900",
"R.	c #7C0800",
"S.	c #460300",
"T.	c #FF6000",
"U.	c #DB6200",
"V.	c #D27600",
"W.	c #FC6B00",
"X.	c #FF5100",
"Y.	c #FF1900",
"Z.	c #F71800",
"`.	c #FF4D00",
" +	c #CA5400",
".+	c #754100",
"++	c #B86A00",
"@+	c #A64400",
"#+	c #FF5600",
"$+	c #FF3300",
"%+	c #BA4D00",
"&+	c #080200",
"*+	c #BF6E00",
"=+	c #230900",
"-+	c #F25000",
";+	c #B64C00",
">+	c #8C4F00",
",+	c #734100",
"'+	c #CD4E00",
")+	c #FF4100",
"!+	c #FF2C00",
"~+	c #D16300",
"{+	c #140700",
"]+	c #281300",
"^+	c #4E2A00",
"/+	c #F34300",
"(+	c #FF2200",
"_+	c #FF5A00",
":+	c #FF6200",
"<+	c #FA1800",
"[+	c #E91600",
"}+	c #FF5D00",
"|+	c #FF2100",
"1+	c #D37100",
"2+	c #7A4400",
"3+	c #A05B00",
"4+	c #311800",
"5+	c #FC2A00",
"6+	c #FF3600",
"7+	c #FF6400",
"8+	c #FF6300",
"9+	c #BA0F00",
"0+	c #7E0700",
"a+	c #FF6700",
"b+	c #FF5300",
"c+	c #FB2C00",
"d+	c #A86100",
"e+	c #693A00",
"f+	c #CA7500",
"g+	c #4D2900",
"h+	c #DA6A00",
"i+	c #FD5000",
"j+	c #FF6600",
"k+	c #F01600",
"l+	c #350100",
"m+	c #DE1400",
"n+	c #FF6900",
"o+	c #FF6A00",
"p+	c #F15200",
"q+	c #231000",
"r+	c #C67300",
"s+	c #DC7400",
"t+	c #FE6C00",
"u+	c #8C0800",
"v+	c #E07300",
"w+	c #814900",
"x+	c #8D5000",
"y+	c #AD6400",
"z+	c #984200",
"A+	c #D05700",
"B+	c #E96200",
"C+	c #FC6D00",
"D+	c #CF7700",
"E+	c #B36700",
"F+	c #BA6B00",
"G+	c #C87400",
"H+	c #9B4200",
"I+	c #F06600",
"J+	c #441800",
"K+	c #A94600",
"L+	c #E77200",
"M+	c #412200",
"N+	c #391D00",
"O+	c #B96B00",
"P+	c #6B3B00",
"Q+	c #BD6B00",
"R+	c #2D1600",
"S+	c #683500",
"T+	c #AB6200",
"U+	c #844B00",
"V+	c #B56900",
"W+	c #C27000",
"X+	c #261100",
"Y+	c #A55F00",
"Z+	c #945400",
"`+	c #B76900",
" @	c #2F1700",
".@	c #7B4500",
"+@	c #AC6300",
"@@	c #B66900",
"#@	c #371C00",
"$@	c #854B00",
"%@	c #AA6100",
"&@	c #BA6C00",
"*@	c #8B4F00",
"=@	c #9D5A00",
"-@	c #9F5B00",
";@	c #5E3400",
">@	c #965500",
",@	c #5D3300",
"'@	c #784400",
")@	c #744100",
"!@	c #5B3200",
"~@	c #A05C00",
"{@	c #A86000",
"                                                                                                                                ",
"                                                                                                                                ",
"                                                                                                                                ",
"                                                                    .                                                           ",
"                                                                  + @                                                           ",
"                                                                # $ % &                                                         ",
"                                                              * = % % = .                                                       ",
"                                                            - ; % % % % >                                                       ",
"                                                        , ' ) % % % % % !                                                       ",
"                                                          ~ % % % % % % % {                                                     ",
"                                                        ] ^ % % % % % % % /                                                     ",
"                                                      ( _ : % % % % % % % < [                                                   ",
"                                                      } | | 1 % % % % % % 2 3                                                   ",
"                                                    4 5 6 | 7 % % % % % 8 9 0                                                   ",
"                                                    a % b | c % % % % % d e f                                                   ",
"                                                  g % % h i 9 j % % % % k l !                                                   ",
"                                                - m % % % n o p % % % % q r % s                                                 ",
"                                                t % % % % % u v % % % % l w % x                                                 ",
"                                              [ y % % % % % z A % % % % B % % C                                                 ",
"                                              D 6 E % % % % % F G % % w H % % I                                                 ",
"                                              J | K L % % % % M N % % O P % Q R                                                 ",
"                                            S | | | T U % % % % V % % W % % X Y                                                 ",
"                                            Z | | | | `  .% % % % % % % % % ..+.                                                ",
"                                @.#.$.      %.| | | | | &.*.% % % % % % % =.9 -.                                                ",
"                                s g ;.>.,.'.).!.~.| | | | {.% % % % % % % ].^./.(.                                              ",
"                                    s _.:.% % % % <.[.^.| | }.% % % % % 8 |.e 1.2.                                              ",
"                                        $.3.% % % % % 4.5.^.e 6.% % % % 7.^.p 8.                                                ",
"                                          + % % % % % % % 4.9.0.a.% % % 0.b.% c.                                                ",
"                                          d.% % % % % % % % % e.f.% % g.h.% % i.                                                ",
"                                          @ % % % % % % % % % % a.% % j.% % % i.                                                ",
"                                          k.% % % % % % % % % % % % % % % % % l.                                                ",
"                                          ;.% % % % % % % % % % % % % % % % % m.                                                ",
"                                          n.% % % % % % % % % % % % % % % % % m.                                                ",
"                                          o.p.% % % % % % % % % % % % % % % % l.                                                ",
"                                          q.r.s.t.u.% % % % % % % % % % % % % v.                                                ",
"                                          w.r.r.r.x.y.z.% % % % % % % % % % A.B.                                                ",
"                                          C.r.r.r.r.r.r.D.E.% % % % % % % F.G.H.                                                ",
"                                            I.r.r.r.r.J.K.| A L.% % % % M.N.r.O.                                                ",
"                                            P.r.r.r.r.Q.| | | | 0.R.S.B | | T.U.4                                               ",
"                                            V.W.r.r.X.Y.| | | | | | Z.| | | `. +.+                                              ",
"                                            ++@+r.#+| | | | | | | | | | | | $+%+&+*+                                            ",
"                                            ) =+-+Y.| | | | Y.| | | | | | | | ;+% >+                                            ",
"                                            ,+% '+| | | | | | )+| | | | !+Y.| ~+{+]+*                                           ",
"                                            ^+% (./+| Y.| (+_+:+| <+[+| }+|+| 1+2+% 3+                                          ",
"                                            $ 4+  1+5+| 6+7+J.8+| 9+0+| a+b+c+  d+% e+                                          ",
"                                          f+% g+    h+i+J.J.J.j+k+l+% m+n+o+p+  (.q+% '                                         ",
"                                          r+% :.      s+t+r.J.n+!.% % u+J.r.v+    w+% x+                                        ",
"                                          * % % y+      z+W.r.A+% % % % B+C+D+    E+% >.                                        ",
"                                          F+% % &     G+% H+I+J+% % % % K+L+      4 % % +                                       ",
"                                          (.M+N+2.    O+% P+Q+R+% % % % S+D+      C % % a                                       ",
"                                            , G+      T+% U+  V+4+% % &+E+        W+X+% Y+                                      ",
"                                                      Z+% {     `+ @% {+f+          2.4                                         ",
"                                                      .@% +@      @@#@% O+                                                      ",
"                                                      n.% O+        $@% %@                                                      ",
"                                                      l.% &@        *@% =@                                                      ",
"                                                      m.% F+        -@% ;@>@y+s                                                 ",
"                                                      ;@% ,@+ s     +@% % % % '@                                                ",
"                                                      d.% % % F+      =@)@;.!@3.                                                ",
"                                                        #.~@{@                                                                  ",
"                                                                                                                                ",
"                                                                                                                                ",
"                                                                                                                                ",
"                                                                                                                                ",
"                                                                                                                                "};
