/* XPM */
static char * ennemy_right_xpm[] = {
"64 64 137 2",
"  	c #CD7700",
". 	c #CC7700",
"+ 	c #C37100",
"@ 	c #C17000",
"# 	c #CA7500",
"$ 	c #C97500",
"% 	c #AB6300",
"& 	c #915300",
"* 	c #764200",
"= 	c #834A00",
"- 	c #985700",
"; 	c #CC7600",
"> 	c #AC6300",
", 	c #6D3D00",
"' 	c #351B00",
") 	c #1D0C00",
"! 	c #200E00",
"~ 	c #3E2000",
"{ 	c #7C4600",
"] 	c #955500",
"^ 	c #080200",
"/ 	c #000000",
"( 	c #311800",
"_ 	c #8A4E00",
": 	c #C87400",
"< 	c #7D4600",
"[ 	c #261100",
"} 	c #492700",
"| 	c #854B00",
"1 	c #190A00",
"2 	c #7F4800",
"3 	c #C57200",
"4 	c #4B2800",
"5 	c #B46800",
"6 	c #BA6B00",
"7 	c #583000",
"8 	c #915200",
"9 	c #5B3200",
"0 	c #BA6C00",
"a 	c #281300",
"b 	c #8B4F00",
"c 	c #140700",
"d 	c #422300",
"e 	c #9E5B00",
"f 	c #A86100",
"g 	c #0F0500",
"h 	c #532D00",
"i 	c #AF6500",
"j 	c #CB7600",
"k 	c #C47200",
"l 	c #7B4500",
"m 	c #754100",
"n 	c #C47100",
"o 	c #C77300",
"p 	c #B16600",
"q 	c #B06500",
"r 	c #B06600",
"s 	c #AE6400",
"t 	c #AB6200",
"u 	c #A35E00",
"v 	c #A25D00",
"w 	c #A05B00",
"x 	c #A45E00",
"y 	c #572F00",
"z 	c #331A00",
"A 	c #A55F00",
"B 	c #B86A00",
"C 	c #874C00",
"D 	c #5A3100",
"E 	c #3B1E00",
"F 	c #2F1700",
"G 	c #2D1600",
"H 	c #2B1400",
"I 	c #231000",
"J 	c #512B00",
"K 	c #975600",
"L 	c #AF6400",
"M 	c #A05C00",
"N 	c #482600",
"O 	c #643700",
"P 	c #C27000",
"Q 	c #BC6D00",
"R 	c #7A4500",
"S 	c #703F00",
"T 	c #894E00",
"U 	c #824A00",
"V 	c #4E2A00",
"W 	c #371C00",
"X 	c #452500",
"Y 	c #9F5B00",
"Z 	c #9B5800",
"` 	c #442400",
" .	c #A15C00",
"..	c #653800",
"+.	c #8C5000",
"@.	c #C97400",
"#.	c #945400",
"$.	c #B76900",
"%.	c #9E5A00",
"&.	c #8C4F00",
"*.	c #844B00",
"=.	c #864C00",
"-.	c #935300",
";.	c #9C5900",
">.	c #A35D00",
",.	c #AA6200",
"'.	c #925300",
").	c #6F3E00",
"!.	c #472500",
"~.	c #AA6100",
"{.	c #C67300",
"].	c #B26700",
"^.	c #613500",
"/.	c #774300",
"(.	c #6B3B00",
"_.	c #995700",
":.	c #4F2B00",
"<.	c #B56800",
"[.	c #784300",
"}.	c #6C3C00",
"|.	c #4D2900",
"1.	c #663800",
"2.	c #BD6D00",
"3.	c #814900",
"4.	c #412200",
"5.	c #B96B00",
"6.	c #9B5900",
"7.	c #3C1F00",
"8.	c #6E3D00",
"9.	c #965600",
"0.	c #663900",
"a.	c #8F5100",
"b.	c #794400",
"c.	c #673900",
"d.	c #8D5000",
"e.	c #734000",
"f.	c #BE6E00",
"                                                                                                                                ",
"                                                                                                                                ",
"                                                                                                                                ",
"                                                                                                                                ",
"                                                                                                                                ",
"                                                                                                                                ",
"                                                                                                                                ",
"                                                                                                                                ",
"                                                                                                                                ",
"                                                                                                                                ",
"                                                                                                                                ",
"                                                                                                                                ",
"                                                                                                                                ",
"                                                                                                                                ",
"                                                                                                                                ",
"                                                                                                                                ",
"                                                                                  . + @ @ #                                     ",
"                                                                                $ % & * = - @ ;                                 ",
"                                                                              . > , ' ) ! ~ { @                                 ",
"                                                                              + ] ~ ^ / / ^ ( _ :                               ",
"                                                                              @ < [ / / / / ^ } % .                             ",
"                                                                              @ | ! / / / / / 1 2 3                             ",
"                                                                              # ] ( / / / / / / 4 5                             ",
"                                                                                6 7 ^ / / / / / ! & $                           ",
"                                                                                $ 8 ! / / / / / ^ 9 0                           ",
"                                                                                  5 4 / / / / / / a b :                         ",
"                                                                                  3 < c / / / / / ^ d e #                       ",
"                                                                                  . f ~ / / / / / / g h i .                     ",
"                                                                j j j               k l ) / / / / / / 1 m n                     ",
"                    o 6 p > q r r r r r r r r r r r r r q s t u v w x % 6 k #       . r y g / / / / / / z A .                   ",
"                j B C D E F G ( ( ( ( ( ( ( ( ( ( ( ( ( F H I ) ) ) I ' J * K L 0 @ o # M N ^ / / / / / ^ O P                   ",
"                Q R G ^ / / / / / / / / / / / / / / / / / / / / / / / / / ^ ! E y S T e L U a / / / / / / I T $                 ",
"              : A V ^ / / / / / / / / / / / / / / / / / / / / / / / / / / / / / / ^ c [ W X H / / / / / / / ' Y j               ",
"              o Z ' / / / / / / / / / / / / / / / / / / / / / / / / / / / / / / / / / / / / / / / / / / / / / 7 B .             ",
"              o Y ` / / / / / / / / / / / / / / / / / / / / / / / / / / / / / / / / / / / / / / / / / / / / / [  .$             ",
"              ; 5 ..c / / / / / / / / / / / / / / / / / / / / / / / / / / / / / / / / / / / / / / / / / / / / g +.@.            ",
"                o A ..' 1 g g g g g g g g g g g g g g g c c 1 ) ! ) c ^ / / / / / / / / / / / / / / / / / / / c #.@.            ",
"                  : $.%.&.U *.=.=.=.=.=.=.=.=.=.=.=.=.C &.-.;.>.,.u '.).!.[ g ^ / / / / / / / / / / / / / / / ( ~..             ",
"                    ; : {.3 {.{.{.{.{.{.{.{.{.{.{.{.{.{.{.: #       # + ].- 2 ^.W c / / / / / / / / / / / / g /.@.              ",
"                                                                          o f (.H ^ / / / / / / / / / / / I m +                 ",
"                                                                        o _.:.c / / / / / / / / / / ^ H .. .@.                  ",
"                                                                    j <.[.' ^ / / / / / / / / / ^ ( }.A n .                     ",
"                                                                  3 K |.c / / / / / / / / / ^ G 1.w n .                         ",
"                                                              ; @ U G ^ / / / / / / / / / ! y - 2.;                             ",
"                                                              @ 3.H / / / / / / / / / g 4.*.5.$                                 ",
"                                                            # 6.7./ / / / / / / / ^ F 8.,.:                                     ",
"                                                            @ = ) / / / / / / / c |.9.+ .                                       ",
"                                                            @ * 1 / / / / / / ) 0.i #                                           ",
"                                                            + a.z ^ / / / / a b.@ .                                             ",
"                                                            . % c.' 1 c ! } d.o                                                 ",
"                                                              $ ,.&.e.e.C % #                                                   ",
"                                                                . + f.f.{..                                                     ",
"                                                                                                                                ",
"                                                                                                                                ",
"                                                                                                                                ",
"                                                                                                                                ",
"                                                                                                                                ",
"                                                                                                                                ",
"                                                                                                                                ",
"                                                                                                                                ",
"                                                                                                                                ",
"                                                                                                                                ",
"                                                                                                                                ",
"                                                                                                                                "};
