/* XPM */
static char * ennemy_left_xpm[] = {
"64 64 291 2",
"  	c #CD7700",
". 	c #975600",
"+ 	c #C17000",
"@ 	c #B06600",
"# 	c #000000",
"$ 	c #593100",
"% 	c #C87400",
"& 	c #CC7600",
"* 	c #512B00",
"= 	c #7E4700",
"- 	c #A86000",
"; 	c #A76000",
"> 	c #613500",
", 	c #2D1600",
"' 	c #BE6E00",
") 	c #A25D00",
"! 	c #442400",
"~ 	c #A35E00",
"{ 	c #914C00",
"] 	c #B84800",
"^ 	c #BE2500",
"/ 	c #010000",
"( 	c #F11700",
"_ 	c #E65A00",
": 	c #DB6800",
"< 	c #D91300",
"[ 	c #7A0700",
"} 	c #FF1800",
"| 	c #FF1A00",
"1 	c #DA6A00",
"2 	c #D35A00",
"3 	c #EF1600",
"4 	c #BC0F00",
"5 	c #F51700",
"6 	c #853D00",
"7 	c #8F4500",
"8 	c #380200",
"9 	c #E91600",
"0 	c #990C00",
"a 	c #A86100",
"b 	c #542D00",
"c 	c #E31500",
"d 	c #800700",
"e 	c #5E0400",
"f 	c #D81400",
"g 	c #B80F00",
"h 	c #AA0D00",
"i 	c #AB0D00",
"j 	c #FA1900",
"k 	c #5D0500",
"l 	c #915200",
"m 	c #BB6C00",
"n 	c #690600",
"o 	c #CA1100",
"p 	c #B70F00",
"q 	c #C77300",
"r 	c #B46800",
"s 	c #CC1200",
"t 	c #260100",
"u 	c #EA1600",
"v 	c #2E0200",
"w 	c #AD5300",
"x 	c #C15E00",
"y 	c #AF0E00",
"z 	c #060100",
"A 	c #850900",
"B 	c #9E0C00",
"C 	c #960B00",
"D 	c #FC1F00",
"E 	c #D37200",
"F 	c #E45C00",
"G 	c #400200",
"H 	c #540400",
"I 	c #6B0600",
"J 	c #930C00",
"K 	c #040000",
"L 	c #8A0900",
"M 	c #FC1800",
"N 	c #EC5100",
"O 	c #980A00",
"P 	c #470400",
"Q 	c #480500",
"R 	c #790700",
"S 	c #F91700",
"T 	c #F83500",
"U 	c #ED5000",
"V 	c #D31200",
"W 	c #600400",
"X 	c #F31700",
"Y 	c #D76E00",
"Z 	c #ED4D00",
"` 	c #F81700",
" .	c #3B0200",
"..	c #DC6200",
"+.	c #CA7500",
"@.	c #BC6D00",
"#.	c #E34A00",
"$.	c #FE1800",
"%.	c #A50C00",
"&.	c #020000",
"*.	c #D71300",
"=.	c #FD1800",
"-.	c #D11200",
";.	c #7B0700",
">.	c #6B3B00",
",.	c #874D00",
"'.	c #6D3D00",
").	c #4F2B00",
"!.	c #7F4800",
"~.	c #610B00",
"{.	c #FA1700",
"].	c #E61500",
"^.	c #FA1800",
"/.	c #C51100",
"(.	c #5B0400",
"_.	c #080200",
":.	c #724000",
"<.	c #B96B00",
"[.	c #3C1F00",
"}.	c #9E0B00",
"|.	c #860800",
"1.	c #C31000",
"2.	c #4E0300",
"3.	c #623600",
"4.	c #DE1400",
"5.	c #460200",
"6.	c #F01600",
"7.	c #C81200",
"8.	c #4D0400",
"9.	c #A20C00",
"0.	c #AF0F00",
"a.	c #AF6500",
"b.	c #2B0100",
"c.	c #050000",
"d.	c #0D0100",
"e.	c #A15C00",
"f.	c #5C3300",
"g.	c #9A5800",
"h.	c #995800",
"i.	c #5F3400",
"j.	c #441A00",
"k.	c #A84600",
"l.	c #D06B00",
"m.	c #AD5100",
"n.	c #070200",
"o.	c #8B3900",
"p.	c #D25900",
"q.	c #FC6B00",
"r.	c #FF6C00",
"s.	c #DD7400",
"t.	c #F36E00",
"u.	c #853500",
"v.	c #3E1700",
"w.	c #AF4900",
"x.	c #ED6500",
"y.	c #D27600",
"z.	c #F66E00",
"A.	c #F86900",
"B.	c #812500",
"C.	c #520400",
"D.	c #C01F00",
"E.	c #F86700",
"F.	c #F76E00",
"G.	c #F46F00",
"H.	c #FF6A00",
"I.	c #FB1F00",
"J.	c #A90D00",
"K.	c #510400",
"L.	c #C41000",
"M.	c #FF4300",
"N.	c #E67200",
"O.	c #B66900",
"P.	c #D65D00",
"Q.	c #FF5A00",
"R.	c #DD1400",
"S.	c #740700",
"T.	c #B50F00",
"U.	c #F91800",
"V.	c #FF4D00",
"W.	c #FE6C00",
"X.	c #603500",
"Y.	c #CB5400",
"Z.	c #FF4400",
"`.	c #FF1900",
" +	c #FF5400",
".+	c #E86A00",
"++	c #B56900",
"@+	c #B94C00",
"#+	c #FF2800",
"$+	c #FF5700",
"%+	c #F76900",
"&+	c #491F00",
"*+	c #7C4600",
"=+	c #C25000",
"-+	c #C23D00",
";+	c #B36700",
">+	c #C06F00",
",+	c #3B1E00",
"'+	c #D66700",
")+	c #FF3D00",
"!+	c #FF5500",
"~+	c #FF1E00",
"{+	c #FB2C00",
"]+	c #A25500",
"^+	c #9D5A00",
"/+	c #965600",
"(+	c #8B4F00",
"_+	c #D27200",
":+	c #FF3300",
"<+	c #FF6000",
"[+	c #C91300",
"}+	c #FF6B00",
"|+	c #FF2D00",
"1+	c #DE6500",
"2+	c #B06500",
"3+	c #864C00",
"4+	c #562F00",
"5+	c #FA3000",
"6+	c #FF6100",
"7+	c #F71700",
"8+	c #3D0200",
"9+	c #B10E00",
"0+	c #FF6800",
"a+	c #FF4200",
"b+	c #EB5200",
"c+	c #BA6B00",
"d+	c #754100",
"e+	c #422300",
"f+	c #EE6100",
"g+	c #FF6200",
"h+	c #BA0F00",
"i+	c #230100",
"j+	c #EB1800",
"k+	c #F06200",
"l+	c #CE7600",
"m+	c #663900",
"n+	c #814900",
"o+	c #945400",
"p+	c #DC7400",
"q+	c #FA6300",
"r+	c #4C0300",
"s+	c #821700",
"t+	c #FE6B00",
"u+	c #EB6A00",
"v+	c #CF7700",
"w+	c #B56800",
"x+	c #633700",
"y+	c #452500",
"z+	c #BA6C00",
"A+	c #F96E00",
"B+	c #C45100",
"C+	c #DC5C00",
"D+	c #703C00",
"E+	c #7B4500",
"F+	c #5A3100",
"G+	c #8C5000",
"H+	c #E17300",
"I+	c #782F00",
"J+	c #341100",
"K+	c #E16900",
"L+	c #472500",
"M+	c #884D00",
"N+	c #4E2A00",
"O+	c #894E00",
"P+	c #703F00",
"Q+	c #734100",
"R+	c #A55F00",
"S+	c #784300",
"T+	c #C97500",
"U+	c #824A00",
"V+	c #824900",
"W+	c #CC7700",
"X+	c #A96100",
"Y+	c #734000",
"Z+	c #9E5B00",
"`+	c #995700",
" @	c #A45E00",
".@	c #854B00",
"+@	c #874C00",
"@@	c #673900",
"#@	c #200E00",
"$@	c #B16600",
"%@	c #8F5100",
"&@	c #4C2900",
"*@	c #C57200",
"=@	c #B86A00",
"-@	c #311800",
";@	c #A65F00",
">@	c #3E2000",
",@	c #844B00",
"'@	c #C27000",
"                                                                                                                                ",
"                                                                                                                                ",
"                                                                                                                                ",
"                                                                                                                                ",
"                                                          . +                                                                   ",
"                                                        @ # $ %                                                                 ",
"                                                      & * # # =                                                                 ",
"                                                      - # # # # ;                                                               ",
"                                                      > # # # # , '                                                             ",
"                                                    ) # # # # # # ! ~                                                           ",
"                                                    { # # # # # # # ]                                                           ",
"                                                    ^ # # # # # # / ( _                                                         ",
"                                                  : < # # # # # # [ } | 1                                                       ",
"                                                  2 3 # # # # # # 4 } 5 6                                                       ",
"                                                  7 } 8 # # # # # 9 } 0 # a                                                     ",
"                                                  b c d # # # # e } f # # ! %                                                   ",
"                                                & # g h # # # # i j k # # # l                                                   ",
"                                                m # n o # # # # < p # # # # , q                                                 ",
"                                                r # # s # # # t u v # # # # # w                                                 ",
"                                                x # # y z # # A B # # # # # C D E                                               ",
"                                                F G # H I # # J K # # # # L M } _                                               ",
"                                                N O # # P # # Q # # # # R S } } T                                               ",
"                                                U V # # / # # # # # # W X } } } } Y                                             ",
"                                                Z ` 8 # # # # # # #  .u } } } } } ..      +.@.%                                 ",
"                                              % #.$.%.# # # # # # &.*.} } } =.-.;.>.,.'.).!.@.                                  ",
"                                              + ~.{.].# # # # # # p } } ^./.(.# # # _.:.<.                                      ",
"                                                [.}.} |.# # # # |.$.^.1.2.# # # # # r                                           ",
"                                                3.# i 4.# # # 5.6.7.8.# # # # # # # '                                           ",
"                                                3.# # 9.[ # # 0.[ # # # # # # # # # a.                                          ",
"                                                3.# # # b.# c.d.# # # # # # # # # # e.                                          ",
"                                                f.# # # # # # # # # # # # # # # # # g.                                          ",
"                                                $ # # # # # # # # # # # # # # # # # h.                                          ",
"                                                $ # # # # # # # # # # # # # # # # # h.                                          ",
"                                                i.# # # # # # # # # # # # # # # j.k.l.                                          ",
"                                                m.# # # # # # # # # # # # n.o.p.q.r.s.                                          ",
"                                                t.u.# # # # # # # # # v.w.x.r.r.r.r.y.                                          ",
"                                                z.A.B.# # # # # # C.D.E.r.r.r.r.r.F.                                            ",
"                                                G.H.I.J./ # # K.L.^.} M.r.r.r.r.r.N.                                            ",
"                                              O.P.Q.} } R.S.T.U.} } } } V.r.r.r.W.y.                                            ",
"                                              X.Y.Z.} } } } } } } } } } `. +r.r..+                                              ",
"                                            ++# @+#+} } } } } } } } } } } } $+%+&++.                                            ",
"                                            *+# =+} } } } } } } } } } } } } | -+# ;+                                            ",
"                                          >+_.,+'+} } )+} } } } !+~+} } } } {+]+# ^+                                            ",
"                                          /+# (+_+} :+<+} [+U.} }+<+|+} } `.1+2+# 3+                                            ",
"                                          4+# ;+  5+<+6+7+8+9+`.}+}+0+a+} b+  c+# d+                                            ",
"                                        r # e+&   f+}+g+h+# i+j+}+}+}+r.k+l+  ' # m+                                            ",
"                                        n+# o+    p+r.q+r+# # s+t+}+r.u+v+    w+# x+                                            ",
"                                      q y+# z+      A+Y.# # # # B+r.C+D+      E+# F+                                            ",
"                                      G+# # @.      H+I+# # # # J+K+J+L+      M+# N+                                            ",
"                                      O+# # r         P+# # # # n+  N+# +.    >+Q+R+                                            ",
"                                      >+:.S+T+        >+# # # U+&   m+# m                                                       ",
"                                                      m # # V+W+    ,.# ;                                                       ",
"                                                      X+# Y+&       Z+# o+                                                      ",
"                                                      ^+# `+         @# O+                                                      ",
"                                                      .@# )         R+# +@                                                      ",
"                                                ;+@@#@# # $@      % %@# ,.                                                      ",
"                                                b # # # &@*@    =@-@# # O+                                                      ",
"                                                ' ;@@ <.+.      =@>@L+,@'@                                                      ",
"                                                                                                                                ",
"                                                                                                                                ",
"                                                                                                                                ",
"                                                                                                                                ",
"                                                                                                                                ",
"                                                                                                                                "};
