/* XPM */
static char * ennemy_down_xpm[] = {
"64 64 338 2",
"  	c #CD7700",
". 	c #C67300",
"+ 	c #B56900",
"@ 	c #3C1F00",
"# 	c #814900",
"$ 	c #CA7500",
"% 	c #B06600",
"& 	c #281300",
"* 	c #000000",
"= 	c #724000",
"- 	c #C97500",
"; 	c #B96B00",
"> 	c #2D1600",
", 	c #764200",
"' 	c #CC7700",
") 	c #C06F00",
"! 	c #452500",
"~ 	c #8C5000",
"{ 	c #CC7600",
"] 	c #583000",
"^ 	c #A45E00",
"/ 	c #7B4500",
"( 	c #C87400",
"_ 	c #DC5100",
": 	c #9D1D00",
"< 	c #D66F00",
"[ 	c #E26000",
"} 	c #FF1800",
"| 	c #820800",
"1 	c #DB1400",
"2 	c #F83600",
"3 	c #D07400",
"4 	c #D56F00",
"5 	c #FE2000",
"6 	c #C71100",
"7 	c #500300",
"8 	c #FE1800",
"9 	c #ED4E00",
"0 	c #884B00",
"a 	c #E41500",
"b 	c #F51700",
"c 	c #180100",
"d 	c #AD0E00",
"e 	c #940C00",
"f 	c #BB6C00",
"g 	c #BA6B00",
"h 	c #670600",
"i 	c #FA1800",
"j 	c #910A00",
"k 	c #E31500",
"l 	c #CB1200",
"m 	c #683A00",
"n 	c #6B3B00",
"o 	c #AA0E00",
"p 	c #D11200",
"q 	c #620500",
"r 	c #EF1600",
"s 	c #3D0200",
"t 	c #AB6200",
"u 	c #B26700",
"v 	c #DC1500",
"w 	c #F91700",
"x 	c #340200",
"y 	c #B80F00",
"z 	c #860900",
"A 	c #562F00",
"B 	c #744100",
"C 	c #5E0500",
"D 	c #9B0B00",
"E 	c #EB1600",
"F 	c #C41200",
"G 	c #B06500",
"H 	c #C96E00",
"I 	c #080200",
"J 	c #A30D00",
"K 	c #D81300",
"L 	c #010000",
"M 	c #710700",
"N 	c #ED1600",
"O 	c #370200",
"P 	c #884300",
"Q 	c #EE4D00",
"R 	c #D21300",
"S 	c #3D0300",
"T 	c #B91000",
"U 	c #7D0800",
"V 	c #5A0400",
"W 	c #F11800",
"X 	c #CE7600",
"Y 	c #FC2800",
"Z 	c #A60C00",
"` 	c #550400",
" .	c #8E0C00",
"..	c #A30E00",
"+.	c #3C0200",
"@.	c #E81500",
"#.	c #E65A00",
"$.	c #DD6600",
"%.	c #FD1800",
"&.	c #8F0A00",
"*.	c #500500",
"=.	c #440400",
"-.	c #2B0200",
";.	c #2B0100",
">.	c #DF1400",
",.	c #F63B00",
"'.	c #EB5200",
").	c #FA1700",
"!.	c #7F0700",
"~.	c #050000",
"{.	c #D01200",
"].	c #FF1900",
"^.	c #D27200",
"/.	c #F34200",
"(.	c #F41700",
"_.	c #650500",
":.	c #C41100",
"<.	c #DA6A00",
"[.	c #C77300",
"}.	c #975600",
"|.	c #884D00",
"1.	c #9F5B00",
"2.	c #AF6500",
"3.	c #8B2200",
"4.	c #D41300",
"5.	c #F01600",
"6.	c #540300",
"7.	c #AE0E00",
"8.	c #F11700",
"9.	c #B00E00",
"0.	c #9F5300",
"a.	c #A65F00",
"b.	c #945400",
"c.	c #874C00",
"d.	c #B46800",
"e.	c #A35E00",
"f.	c #311800",
"g.	c #690500",
"h.	c #CB1100",
"i.	c #FC1800",
"j.	c #E61500",
"k.	c #390200",
"l.	c #9F0C00",
"m.	c #A40C00",
"n.	c #1F0100",
"o.	c #6F3E00",
"p.	c #C27000",
"q.	c #C37100",
"r.	c #560400",
"s.	c #C11000",
"t.	c #DD1400",
"u.	c #230100",
"v.	c #880800",
"w.	c #960A00",
"x.	c #020000",
"y.	c #A86000",
"z.	c #A35D00",
"A.	c #400200",
"B.	c #AF0F00",
"C.	c #F21700",
"D.	c #CE1200",
"E.	c #750600",
"F.	c #D41400",
"G.	c #935300",
"H.	c #310200",
"I.	c #AC0D00",
"J.	c #A40E00",
"K.	c #740700",
"L.	c #120100",
"M.	c #0B0100",
"N.	c #1B0100",
"O.	c #BE6E00",
"P.	c #774300",
"Q.	c #B66900",
"R.	c #734100",
"S.	c #9E5100",
"T.	c #080400",
"U.	c #582300",
"V.	c #C56F00",
"W.	c #ED7100",
"X.	c #F16600",
"Y.	c #B94D00",
"Z.	c #572100",
"`.	c #0C0300",
" +	c #903B00",
".+	c #D75B00",
"++	c #FD6C00",
"@+	c #D47600",
"#+	c #E57200",
"$+	c #FF6C00",
"%+	c #FE6C00",
"&+	c #060200",
"*+	c #531F00",
"=+	c #B84D00",
"-+	c #FB6B00",
";+	c #DB7400",
">+	c #EE6600",
",+	c #B43300",
"'+	c #4E0400",
")+	c #890900",
"!+	c #D35300",
"~+	c #FC6B00",
"{+	c #F46F00",
"]+	c #CF7700",
"^+	c #FD6D00",
"/+	c #FF5B00",
"(+	c #D31200",
"_+	c #890B00",
":+	c #000100",
"<+	c #B20E00",
"[+	c #ED1700",
"}+	c #FF3800",
"|+	c #FF6A00",
"1+	c #E77200",
"2+	c #F07000",
"3+	c #FF6200",
"4+	c #FF2000",
"5+	c #EE1600",
"6+	c #B30F00",
"7+	c #4E0300",
"8+	c #D31300",
"9+	c #FF4400",
"0+	c #D77500",
"a+	c #BD5B00",
"b+	c #FF6700",
"c+	c #FF2C00",
"d+	c #FF5000",
"e+	c #EC6400",
"f+	c #834A00",
"g+	c #300E00",
"h+	c #E76100",
"i+	c #FF3700",
"j+	c #FF5900",
"k+	c #9C4000",
"l+	c #2F1700",
"m+	c #492700",
"n+	c #DA6B00",
"o+	c #FF4200",
"p+	c #FF1F00",
"q+	c #FB6100",
"r+	c #985600",
"s+	c #4E2A00",
"t+	c #200E00",
"u+	c #B86A00",
"v+	c #CF7600",
"w+	c #FA3000",
"x+	c #FF2B00",
"y+	c #FF4500",
"z+	c #FF2300",
"A+	c #FF4700",
"B+	c #E45E00",
"C+	c #7A4500",
"D+	c #794400",
"E+	c #633700",
"F+	c #9C5900",
"G+	c #E06200",
"H+	c #FF4100",
"I+	c #FF6800",
"J+	c #FF5600",
"K+	c #CD1300",
"L+	c #FF2F00",
"M+	c #FF6B00",
"N+	c #FF2500",
"O+	c #F83700",
"P+	c #4C2900",
"Q+	c #AE6400",
"R+	c #AB6300",
"S+	c #5C3300",
"T+	c #F04800",
"U+	c #FF5500",
"V+	c #FF5800",
"W+	c #DA1400",
"X+	c #830800",
"Y+	c #FF3500",
"Z+	c #FF6600",
"`+	c #FF3B00",
" @	c #FE1C00",
".@	c #D86C00",
"+@	c #AC6300",
"@@	c #5A3100",
"#@	c #623600",
"$@	c #D17400",
"%@	c #F74700",
"&@	c #FF6400",
"*@	c #FF5D00",
"=@	c #430200",
"-@	c #FF3600",
";@	c #FF5100",
">@	c #E35F00",
",@	c #955500",
"'@	c #522C00",
")@	c #D37600",
"!@	c #F96E00",
"~@	c #FA6000",
"{@	c #740600",
"]@	c #CF3600",
"^@	c #A96100",
"/@	c #5B3200",
"(@	c #AA6200",
"_@	c #7A4400",
":@	c #F86E00",
"<@	c #9E4000",
"[@	c #341100",
"}@	c #E47200",
"|@	c #BC6C00",
"1@	c #D27600",
"2@	c #F56F00",
"3@	c #C45200",
"4@	c #612500",
"5@	c #F56800",
"6@	c #E27300",
"7@	c #9D5A00",
"8@	c #A25D00",
"9@	c #CE7700",
"0@	c #955400",
"a@	c #442400",
"b@	c #C06D00",
"c@	c #643700",
"d@	c #371C00",
"e@	c #412200",
"f@	c #3E2000",
"g@	c #0F0500",
"h@	c #CB7600",
"i@	c #844B00",
"j@	c #905200",
"k@	c #B36700",
"l@	c #713F00",
"m@	c #915300",
"n@	c #663800",
"o@	c #472500",
"p@	c #8F5100",
"q@	c #261100",
"r@	c #965500",
"s@	c #2B1400",
"t@	c #8C4F00",
"u@	c #985700",
"v@	c #A55F00",
"w@	c #8D5000",
"                                                                                                                                ",
"                                                                                                                                ",
"                                                                                                                                ",
"                                                              .                                                                 ",
"                                                            + @ # $                                                             ",
"                                                          % & * * = -                                                           ",
"                                                        ; > * * * * , '                                                         ",
"                                                      ) ! * * * * * * ~                                                         ",
"                                                  { - ] * * * * * * * * ^ '                                                     ",
"                                                  + > * * * * * * * * * * / (                                                   ",
"                                                  _ * * * * * * * * * * * : <                                                   ",
"                                                [ } | * * * * * * * * * * 1 2 3                                                 ",
"                                              4 5 } 6 * * * * * * * * * 7 8 } 9                                                 ",
"                                              0 a } b c * * * * * * * * d } } e f                                               ",
"                                            g * h i } j * * * * * * * * k } l * m                                               ",
"                                            n * * o } p * * * * * * * q } r s * * t                                             ",
"                                          u * * * * v w x * * * * * * y } z * * * A                                             ",
"                                          B * * * * C w D * * * * * * E F * * * * * G                                           ",
"                                        H I * * * * * J K L * * * * M N O * * * * * P                                           ",
"                                        Q y * * * * * * R S * * * * T U * * * * * V W 4                                         ",
"                                      X Y } Z * * * * * `  .* * * * ..* * * * * +.@.} #.                                        ",
"                                      $.} } %.&.* * * * * *.* * * =.-.* * * * ;.>.} } ,.                                        ",
"                                      '.} } } ).!.* * * * * * * * * * * * * ~.{.8 8 } ].^.                                      ",
"                                      /.} } } } (._.* * * * * * * * * * * * :.8 %.%.8 } <.                                      ",
"                            [.}.|.1.2.3.4.8 } } } 5.6.* * * * * * * * * * 7.} 8 8 8 8.9.0.a.b.c.d.'                             ",
"                                e.f.* * * g.h.i.} } j.k.* * * * * * * * l.} } } E m.n.* * * o.p.                                ",
"                                  q., * * * * r.s.w } t.u.* * * * * * v.i.} a w.x.* * * f.y.'                                   ",
"                                    z.* * * * * * A.B.C.D.L * * * * E.w F.U * * * * * * !                                       ",
"                                    G.* * * * * * * * H.I.J.* * * ` s.K.* * * * * * * * I $                                     ",
"                                    c.* * * * * * * * * * L.M.* * N.* * * * * * * * * * * O.                                    ",
"                                    P.* * * * * * * * * * * * * * * * * * * * * * * * * * Q.                                    ",
"                                    R.* * * * * * * * * * * * * * * * * * * * * * * * * * d.                                    ",
"                                    P.* * * * * * * * * * * * * * * * * * * * * * * * * * Q.                                    ",
"                                    S.T.* * * * * * * * * * * * * * * * * * * * * * * * U.V.                                    ",
"                                    W.X.Y.Z.* * * * * * * * * * * * * * * * * * * `. +.+++@+                                    ",
"                                    #+$+$+%+.+ +&+* * * * * * * * * * * * * * *+=+X.$+$+-+                                      ",
"                                    ;+$+$+$+$+$+>+,+'+* * * * * * * * * * )+!+~+$+$+$+$+{+                                      ",
"                                    ]+^+$+$+$+$+/+].i.(+_+:+* * * * '+<+[+} }+|+$+$+$+$+1+                                      ",
"                                      2+$+$+$+3+4+} } } } 5+6+7+)+8+i.} } } } 9+$+$+$+$+0+                                      ",
"                                    { a+$+$+b+c+} } } } } } } } } } } } } } } ].d+$+$+e+Q.                                      ",
"                                    f+g+h+|+i+} } } } } } } } } } ].} } } } } } ].j+$+k+l+f                                     ",
"                                  1.* m+n+o+].} } } } } } } } } } } } } ].} } } } p+q+r+* s+[.                                  ",
"                                g t+t+u+v+w+} } } ].} x+y+} } } } } z+A+} } } } } } B+  C+* D+                                  ",
"                                E+* F+    G+} ].} } H+I+J+} } K+C.].L+M+/+N+} ].} O+X   ( P+* Q+                                ",
"                              R+* S+'       T+} 4+U+M+M+V+} W+~.X+i.Y+M+M+Z+`+}  @.@      +@* @@                                ",
"                              #@* Q+        $@%@&@M+M+M+*@r =@* * I.-@M+M+M+M+;@>@          #@* Q+                              ",
"                          { ,@* '@            )@!@$+M+M+~@{@* * * * ]@M+M+$+$+#+            ^@* /@u+                            ",
"                          (@* * _@              )@:@$+M+<@* * * * * [@h+$+$+}@              |@* * /@                            ",
"                          f I * #@                1@2@3@* * * * * * * 4@5@6@                2.* * /                             ",
"                            7@! 8@                  9@0@* * * * * * * a@b@                  [.#@c@q.                            ",
"                                                        b.* * * * * d@p.                                                        ",
"                                                        ,@* e@* * f@g@h@                                                        ",
"                                                        i@* ) j@k@|.* O.                                                        ",
"                                                        l@* {     m@* u+                                                        ",
"                                                        n@* '     b.* d.                                                        ",
"                                                      +@o@* h@    p@* |.p.                                                      ",
"                                                    j@* * q@h@    r@* * s@q.                                                    ",
"                                                    u+t@u@;       $ v@w@u@{                                                     ",
"                                                                                                                                ",
"                                                                                                                                ",
"                                                                                                                                ",
"                                                                                                                                ",
"                                                                                                                                ",
"                                                                                                                                "};
