/* XPM */
static char * ennemy_up_xpm[] = {
"64 64 134 2",
"  	c #CD7700",
". 	c #CA7500",
"+ 	c #B36700",
"@ 	c #3E2000",
"# 	c #A05B00",
"$ 	c #AC6300",
"% 	c #200E00",
"& 	c #000000",
"* 	c #935300",
"= 	c #B56800",
"- 	c #190A00",
"; 	c #995700",
"> 	c #BC6D00",
", 	c #371C00",
"' 	c #080200",
") 	c #A96100",
"! 	c #C77300",
"~ 	c #4D2900",
"{ 	c #261100",
"] 	c #BA6B00",
"^ 	c #A55F00",
"/ 	c #140700",
"( 	c #8C5000",
"_ 	c #C97500",
": 	c #8D5000",
"< 	c #6C3C00",
"[ 	c #CB7600",
"} 	c #AE6400",
"| 	c #010100",
"1 	c #935400",
"2 	c #C06F00",
"3 	c #3B1E00",
"4 	c #0F0500",
"5 	c #B06500",
"6 	c #724000",
"7 	c #412200",
"8 	c #C87400",
"9 	c #B26600",
"0 	c #CC7700",
"a 	c #5A3100",
"b 	c #1D0C00",
"c 	c #BF6F00",
"d 	c #A65F00",
"e 	c #824900",
"f 	c #5E3400",
"g 	c #C37100",
"h 	c #AD6400",
"i 	c #905200",
"j 	c #6B3B00",
"k 	c #341A00",
"l 	c #C27000",
"m 	c #010000",
"n 	c #AB6200",
"o 	c #9C5900",
"p 	c #7B4500",
"q 	c #723F00",
"r 	c #361B00",
"s 	c #321900",
"t 	c #BD6D00",
"u 	c #C47200",
"v 	c #955500",
"w 	c #A35D00",
"x 	c #B16600",
"y 	c #9F5B00",
"z 	c #824A00",
"A 	c #BE6E00",
"B 	c #683A00",
"C 	c #B26700",
"D 	c #975600",
"E 	c #744100",
"F 	c #864C00",
"G 	c #583000",
"H 	c #6F3E00",
"I 	c #281300",
"J 	c #633700",
"K 	c #C97400",
"L 	c #593100",
"M 	c #C57200",
"N 	c #442400",
"O 	c #C17000",
"P 	c #2D1600",
"Q 	c #562F00",
"R 	c #C67300",
"S 	c #2F1700",
"T 	c #925300",
"U 	c #6D3D00",
"V 	c #BC6C00",
"W 	c #542D00",
"X 	c #CC7600",
"Y 	c #6E3D00",
"Z 	c #4B2800",
"` 	c #8F5100",
" .	c #5F3400",
"..	c #231000",
"+.	c #7A4400",
"@.	c #AF6500",
"#.	c #391D00",
"$.	c #A45E00",
"%.	c #603500",
"&.	c #945400",
"*.	c #4C2900",
"=.	c #2B1400",
"-.	c #9E5B00",
";.	c #4E2A00",
">.	c #B96B00",
",.	c #7E4700",
"'.	c #472500",
").	c #BB6C00",
"!.	c #3C1F00",
"~.	c #844B00",
"{.	c #492700",
"].	c #A15C00",
"^.	c #874D00",
"/.	c #512B00",
"(.	c #834A00",
"_.	c #764200",
":.	c #653800",
"<.	c #985700",
"[.	c #9D5A00",
"}.	c #9A5800",
"|.	c #5B3200",
"1.	c #8B4F00",
"2.	c #703F00",
"3.	c #894E00",
"4.	c #814900",
"5.	c #4F2B00",
"6.	c #522C00",
"7.	c #804800",
"8.	c #7D4600",
"9.	c #8C4F00",
"0.	c #B76A00",
"a.	c #9B5900",
"b.	c #AA6200",
"c.	c #AD6300",
"                                                                                                                                ",
"                                                                                                                                ",
"                                                                                                                                ",
"                                                              .                                                                 ",
"                                                            + @ #                                                               ",
"                                                          $ % & & *                                                             ",
"                                                        = - & & & & ;                                                           ",
"                                                      > , & & & & & ' )                                                         ",
"                                                    ! ~ & & & & & & & { ]                                                       ",
"                                                  ^ - & & & & & & & & & / ( _                                                   ",
"                                                  : & & & & & & & & & & & < [                                                   ",
"                                                } | & & & & & & & & & & & & 1                                                   ",
"                                              2 3 & & & & & & & & & & & & & 4 5                                                 ",
"                                              6 & & & & & & & & & & & & & & & 7 8                                               ",
"                                            9 & & & & & & & & & & & & & & & & & (                                               ",
"                                          0 a & & & & & & & & & & & & & & & & & b c                                             ",
"                                          d & & & & & & & & & & & & & & & & & & & e                                             ",
"                                          f & & & & & & & & & & & & & & & & & & & 4 g                                           ",
"                                        h & & & & & & & & & & & & & & & & & & & & & i                                           ",
"                                        j & & & & & & & & & & & & & & & & & & & & & k .                                         ",
"                                      l m & & & & & & & & & & & & & & & & & & & & & & n                                         ",
"                                      o & & & & & & & & & & & & & & & & & & & & & & & p                                         ",
"                                      q & & & & & & & & & & & & & & & & & & & & & & & r                                         ",
"                                      s & & & & & & & & & & & & & & & & & & & & & & & & t                                       ",
"                            u v : w x & & & & & & & & & & & & & & & & & & & & & & & & & y d * : >                               ",
"                              [ ; % & & & & & & & & & & & & & & & & & & & & & & & & & & & ' z !                                 ",
"                                  A B & & & & & & & & & & & & & & & & & & & & & & & & & ~ C                                     ",
"                                    D & & & & & & & & & & & & & & & & & & & & & & & & & E                                       ",
"                                    F & & & & & & & & & & & & & & & & & & & & & & & & & G                                       ",
"                                    H & & & & & & & & & & & & & & & & & & & & & & & & & I                                       ",
"                                    J & & & & & & & & & & & & & & & & & & & & & & & & & & K                                     ",
"                                    L & & & & & & & & & & & & & & & & & & & & & & & & & & M                                     ",
"                                    N & & & & & & & & & & & & & & & & & & & & & & & & & & O                                     ",
"                                    P & & & & & & & & & & & & & & & & & & & & & & & & & & A                                     ",
"                                    Q & & & & & & & & & & & & & & & & & & & & & & & & & & R                                     ",
"                                    H & & & & & & & & & & & & & & & & & & & & & & & & & S                                       ",
"                                    T & & & & & & & & & & & & & & & & & & & & & & & & & U                                       ",
"                                    x & & & & & & & & & & & & & & & & & & & & & & & & & D                                       ",
"                                    [ , & & & & & & & & & & & & & & & & & & & & & & & & V                                       ",
"                                    K W & & & & & & & & & & & & & & & & & & & & & & & - 2                                       ",
"                                  X Y & & & & & & & & & & & & & & & & & & & & & & & & & Z u                                     ",
"                                  ` &  .Q & & & & & & & & & & & & & & & & & & & & & ..+.& j X                                   ",
"                                @.& #.O $.& & & & & & & & & & & & & & & & & & & & & F . %.& &.                                  ",
"                              . *.& $   0 Y & & & & & & & & & & & & & & & & & & & Z M   c =.b A                                 ",
"                              -.& E       R ;.& & & & & & & & & & & & & & & & & I >.      D & ,.                                ",
"                            X '.& ).        A N & & & & & & & & & & & & & & & ..}         K !.' O                               ",
"                          K ~.& Y             2 {.& & & & & & & & & & & & & { x             T & U 2                             ",
"                          ].& & ^.              O /.& & & & & & & & & & & S +               ^ & & (.                            ",
"                          = & & _.                u :.& & & & & & & & & '.>.                <.& & [.                            ",
"                            }.|.@.                  . 1.& & & & & & & 2.M                   A J ~.[                             ",
"                                                        3.& & & & & %.0                                                         ",
"                                                        4.& 5.& P 3 6.                                                          ",
"                                                        :.{ _ v O U 4 0                                                         ",
"                                                        L ;.      7.& !                                                         ",
"                                                        Z /.      e & l                                                         ",
"                                                    8 o =.'.      8.& 9.l                                                       ",
"                                                    E & & L       F & & !.                                                      ",
"                                                    0.a.^ u       _ b.o c.                                                      ",
"                                                                                                                                ",
"                                                                                                                                ",
"                                                                                                                                ",
"                                                                                                                                ",
"                                                                                                                                ",
"                                                                                                                                "};
