/* XPM */
static char * ennemy_up_xpm[] = {
"64 64 127 2",
"  	c #CD7700",
". 	c #CC7700",
"+ 	c #C67300",
"@ 	c #BA6C00",
"# 	c #B06500",
"$ 	c #AD6300",
"% 	c #B56800",
"& 	c #C06F00",
"* 	c #CA7500",
"= 	c #C87400",
"- 	c #AA6200",
"; 	c #7D4600",
"> 	c #522C00",
", 	c #331A00",
"' 	c #2D1600",
") 	c #371C00",
"! 	c #5E3400",
"~ 	c #8F5100",
"{ 	c #CC7600",
"] 	c #BB6C00",
"^ 	c #864C00",
"/ 	c #442400",
"( 	c #140700",
"_ 	c #000000",
": 	c #200E00",
"< 	c #663800",
"[ 	c #BD6D00",
"} 	c #A96100",
"| 	c #643700",
"1 	c #231000",
"2 	c #C47100",
"3 	c #9E5B00",
"4 	c #4F2B00",
"5 	c #1D0C00",
"6 	c #734000",
"7 	c #C57200",
"8 	c #C37100",
"9 	c #935300",
"0 	c #472500",
"a 	c #0F0500",
"b 	c #281300",
"c 	c #744100",
"d 	c #AF6500",
"e 	c #724000",
"f 	c #2F1700",
"g 	c #080200",
"h 	c #683A00",
"i 	c #B26700",
"j 	c #CB7600",
"k 	c #A05C00",
"l 	c #4E2A00",
"m 	c #955500",
"n 	c #C77300",
"o 	c #9F5B00",
"p 	c #3F2100",
"q 	c #311800",
"r 	c #915300",
"s 	c #AD6400",
"t 	c #452500",
"u 	c #B26600",
"v 	c #BC6D00",
"w 	c #5F3400",
"x 	c #7F4700",
"y 	c #C97400",
"z 	c #754100",
"A 	c #512B00",
"B 	c #673900",
"C 	c #190A00",
"D 	c #B36700",
"E 	c #814900",
"F 	c #6C3C00",
"G 	c #7B4500",
"H 	c #351B00",
"I 	c #764200",
"J 	c #9C5900",
"K 	c #784400",
"L 	c #C27000",
"M 	c #C17000",
"N 	c #734100",
"O 	c #3E2000",
"P 	c #7A4500",
"Q 	c #492700",
"R 	c #AC6300",
"S 	c #894E00",
"T 	c #261100",
"U 	c #BF6E00",
"V 	c #663900",
"W 	c #482600",
"X 	c #B76A00",
"Y 	c #884D00",
"Z 	c #784300",
"` 	c #8E5100",
" .	c #4B2800",
"..	c #B56900",
"+.	c #2B1400",
"@.	c #583000",
"#.	c #572F00",
"$.	c #B66900",
"%.	c #4D2900",
"&.	c #A45E00",
"*.	c #623600",
"=.	c #794400",
"-.	c #824900",
";.	c #BF6F00",
">.	c #874C00",
",.	c #9A5800",
"'.	c #BE6E00",
").	c #693A00",
"!.	c #A35E00",
"~.	c #542D00",
"{.	c #A66000",
"].	c #A35D00",
"^.	c #6D3D00",
"/.	c #713F00",
"(.	c #A65F00",
"_.	c #935400",
":.	c #9D5A00",
"<.	c #7E4700",
"[.	c #6B3B00",
"}.	c #412200",
"|.	c #5D3300",
"1.	c #3B1E00",
"2.	c #B06600",
"3.	c #6F3E00",
"4.	c #A25D00",
"5.	c #613500",
"6.	c #A76000",
"                                                                                                                                ",
"                                                                                                                                ",
"                                                                                                                                ",
"                                                                                                                                ",
"                                                                                                                                ",
"                                                                                                                                ",
"                                                            . + @ # $ % & *                                                     ",
"                                                          = - ; > , ' ) ! ~ & {                                                 ",
"                                                      { ] ^ / ( _ _ _ _ _ : < [                                                 ",
"                                                    * } | 1 _ _ _ _ _ _ _ _ ( | 2                                               ",
"                                                  * 3 4 ( _ _ _ _ _ _ _ _ _ _ 5 6 7                                             ",
"                                              . 8 9 0 a _ _ _ _ _ _ _ _ _ _ _ _ b c & {                                         ",
"                                            * d e f g _ _ _ _ _ _ _ _ _ _ _ _ _ _ 1 h i j                                       ",
"                                          * k 4 ( _ _ _ _ _ _ _ _ _ _ _ _ _ _ _ _ _ ( l m n                                     ",
"                                        * o p g _ _ _ _ _ _ _ _ _ _ _ _ _ _ _ _ _ _ _ g q r *                                   ",
"                                      { s 0 g _ _ _ _ _ _ _ g _ _ _ _ _ _ _ _ _ _ _ _ _ _ t u                                   ",
"                                      v w a _ _ _ _ _ _ _ a f g _ _ _ _ _ _ _ _ _ _ _ _ _ a x y                                 ",
"                                    7 z : _ _ _ _ _ _ _ ( A B a _ _ _ _ _ C ' _ _ _ _ _ _ _ / D                                 ",
"                                  = E f _ _ _ _ _ _ _ 1 F } G g _ _ _ _ _ H I f _ _ _ _ _ _ ( E =                               ",
"                                { J t g _ _ _ _ _ _ 1 K L M N g _ _ _ _ _ O # P ( _ _ _ _ _ _ Q R .                             ",
"                                M S T _ _ _ _ _ _ T I +   U V g _ _ _ _ _ W X ] A _ _ _ _ _ _ 5 Y +                             ",
"                                M N : _ _ _ _ _ ' Z 7     ] ! _ _ _ _ _ _ A ] * ` : _ _ _ _ _ _  ...                            ",
"                                M ~ , g _ _ g +.N &       ] @._ _ _ _ _ _ #.]   $.%._ _ _ _ _ _ : ` *                           ",
"                                { &.*., : : O =.& {       ] #._ _ _ _ _ _ #.]   + -.( _ _ _ _ _ ( =.;.                          ",
"                                  = &.~ N >.,.7           ] #._ _ _ _ _ _ #.]   . &.H _ _ _ _ _ a 6 ;.                          ",
"                                    { M M M {             ] #._ _ _ _ _ _ #.]     '.).( _ _ _ _ b Y M                           ",
"                                                          ] #._ _ _ _ _ _ #.]     { !.0 a _ _ ( ~.{.{                           ",
"                                                          ] #._ _ _ _ _ _ #.]       = ].^.4 4 /.!.=                             ",
"                                                          ] #._ _ _ _ _ _ #.]         { & $.$.& {                               ",
"                                                          ] #._ _ _ _ _ _ #.]                                                   ",
"                                                          ] #._ _ _ _ _ _ #.]                                                   ",
"                                                          ] #._ _ _ _ _ _ @.]                                                   ",
"                                                          ] A _ _ _ _ _ _ ! ]                                                   ",
"                                                          X W _ _ _ _ _ g B U                                                   ",
"                                                          D ) _ _ _ _ _ g K L                                                   ",
"                                                          (.T _ _ _ _ _ a S =                                                   ",
"                                                        * _.( _ _ _ _ _ 5 :.*                                                   ",
"                                                        7 <.a _ _ _ _ _ f -                                                     ",
"                                                        U [.g _ _ _ _ _ }.$.                                                    ",
"                                                        ] ! g _ _ _ _ _ A ]                                                     ",
"                                                        ] @._ _ _ _ _ _ #.]                                                     ",
"                                                        ] #._ _ _ _ _ _ #.]                                                     ",
"                                                        ] #._ _ _ _ _ _ #.]                                                     ",
"                                                        ] #._ _ _ _ _ _ #.]                                                     ",
"                                                        ] #._ _ _ _ _ _ #.]                                                     ",
"                                                        ] #._ _ _ _ _ _ #.]                                                     ",
"                                                        ] #._ _ _ _ _ _ #.]                                                     ",
"                                                        ] #._ _ _ _ _ _ #.]                                                     ",
"                                                        ] @._ _ _ _ _ _ @.]                                                     ",
"                                                        ] |.g _ _ _ _ g |.]                                                     ",
"                                                        '.B g _ _ _ _ g B '.                                                    ",
"                                                        M G 5 _ _ _ _ 5 G M                                                     ",
"                                                        n m 1.g _ _ g 1.m n                                                     ",
"                                                        * 2.3.f ( ( f 3.2.*                                                     ",
"                                                          L 4.=.5.5.=.4.L                                                       ",
"                                                          { L i 6.6.i L {                                                       ",
"                                                              * n n *                                                           ",
"                                                                                                                                ",
"                                                                                                                                ",
"                                                                                                                                ",
"                                                                                                                                ",
"                                                                                                                                ",
"                                                                                                                                ",
"                                                                                                                                "};
