/* XPM */
static char * d1_xpm[] = {
"64 64 218 2",
"  	c #CD7700",
". 	c #BD6D00",
"+ 	c #C87400",
"@ 	c #B76A00",
"# 	c #C57200",
"$ 	c #C37100",
"% 	c #BA6B00",
"& 	c #814900",
"* 	c #613500",
"= 	c #CB7600",
"- 	c #532D00",
"; 	c #935400",
"> 	c #CC7600",
", 	c #673900",
"' 	c #864C00",
") 	c #713F00",
"! 	c #080200",
"~ 	c #5E3400",
"{ 	c #A35D00",
"] 	c #562F00",
"^ 	c #965600",
"/ 	c #874D00",
"( 	c #854B00",
"_ 	c #7C4600",
": 	c #693A00",
"< 	c #0F0500",
"[ 	c #CC7700",
"} 	c #BE6E00",
"| 	c #231000",
"1 	c #995700",
"2 	c #A45E00",
"3 	c #B16600",
"4 	c #CA7500",
"5 	c #140700",
"6 	c #000000",
"7 	c #764200",
"8 	c #B26600",
"9 	c #331A00",
"0 	c #6C3C00",
"a 	c #BB6C00",
"b 	c #281300",
"c 	c #B66900",
"d 	c #261100",
"e 	c #995800",
"f 	c #B86A00",
"g 	c #663900",
"h 	c #794400",
"i 	c #784300",
"j 	c #593100",
"k 	c #A76000",
"l 	c #915200",
"m 	c #C67300",
"n 	c #190A00",
"o 	c #AC6300",
"p 	c #B96B00",
"q 	c #774300",
"r 	c #824A00",
"s 	c #AB6200",
"t 	c #9E5A00",
"u 	c #4D2900",
"v 	c #734100",
"w 	c #844B00",
"x 	c #7A4500",
"y 	c #2D1600",
"z 	c #AA6200",
"A 	c #C77300",
"B 	c #C06F00",
"C 	c #200E00",
"D 	c #14110F",
"E 	c #323130",
"F 	c #504F4F",
"G 	c #BABABA",
"H 	c #E8E8E8",
"I 	c #FEFEFE",
"J 	c #FFFFFF",
"K 	c #AD6400",
"L 	c #1D0C00",
"M 	c #A9A9A9",
"N 	c #F9F9F9",
"O 	c #AAAAAA",
"P 	c #975600",
"Q 	c #BA6C00",
"R 	c #2B1400",
"S 	c #C6C6C6",
"T 	c #A86100",
"U 	c #B0B0B0",
"V 	c #311800",
"W 	c #C27000",
"X 	c #9F5B00",
"Y 	c #666565",
"Z 	c #FBFBFB",
"` 	c #686767",
" .	c #824900",
"..	c #4B2800",
"+.	c #CDCDCD",
"@.	c #B36700",
"#.	c #31302F",
"$.	c #FAFAFA",
"%.	c #9B5900",
"&.	c #935300",
"*.	c #8B8B8B",
"=.	c #EAEAEA",
"-.	c #DFDFDF",
";.	c #ECECEC",
">.	c #724000",
",.	c #754100",
"'.	c #ACACAC",
").	c #D8D8D8",
"!.	c #626262",
"~.	c #6B6B6B",
"{.	c #DADADA",
"].	c #422300",
"^.	c #5F3400",
"/.	c #B4B4B4",
"(.	c #090909",
"_.	c #CECECE",
":.	c #623600",
"<.	c #EBEBEB",
"[.	c #1E1E1E",
"}.	c #333333",
"|.	c #F1F1F1",
"1.	c #AD6300",
"2.	c #A55F00",
"3.	c #9D9D9D",
"4.	c #AEAEAE",
"5.	c #B9B9B9",
"6.	c #552E00",
"7.	c #6B3B00",
"8.	c #5D5C5C",
"9.	c #7D7D7D",
"0.	c #8D8D8D",
"a.	c #5E5D5D",
"b.	c #583000",
"c.	c #8F5100",
"d.	c #AB6300",
"e.	c #6E3D00",
"f.	c #A35E00",
"g.	c #E4E4E4",
"h.	c #797979",
"i.	c #838383",
"j.	c #884D00",
"k.	c #A96100",
"l.	c #371C00",
"m.	c #C97500",
"n.	c #C47200",
"o.	c #999999",
"p.	c #9C9C9C",
"q.	c #9A9A9A",
"r.	c #B06600",
"s.	c #6B3C00",
"t.	c #874C00",
"u.	c #C17000",
"v.	c #7D4600",
"w.	c #0A0402",
"x.	c #DCDCDC",
"y.	c #E3E3E3",
"z.	c #C47100",
"A.	c #985700",
"B.	c #BC6D00",
"C.	c #EFEFEF",
"D.	c #989898",
"E.	c #A7A7A7",
"F.	c #515050",
"G.	c #391D00",
"H.	c #2F1700",
"I.	c #945400",
"J.	c #5B5A5A",
"K.	c #E5E5E5",
"L.	c #A6A6A6",
"M.	c #030303",
"N.	c #080808",
"O.	c #FDFDFD",
"P.	c #5C5B5B",
"Q.	c #744100",
"R.	c #B26700",
"S.	c #211F1E",
"T.	c #AFAFAF",
"U.	c #F2F2F2",
"V.	c #C2C2C2",
"W.	c #C4C4C4",
"X.	c #EEEEEE",
"Y.	c #22201F",
"Z.	c #522C00",
"`.	c #6D3D00",
" +	c #5A3100",
".+	c #6F3E00",
"++	c #0E0907",
"@+	c #7B7B7B",
"#+	c #A8A8A8",
"$+	c #7C7C7C",
"%+	c #0F0A08",
"&+	c #8A4E00",
"*+	c #412200",
"=+	c #7D4700",
"-+	c #8E5100",
";+	c #B46800",
">+	c #AF6500",
",+	c #4E2A00",
"'+	c #A25D00",
")+	c #653800",
"!+	c #572F00",
"~+	c #603500",
"{+	c #BF6E00",
"]+	c #B76900",
"^+	c #452500",
"/+	c #AE6400",
"(+	c #3C1F00",
"_+	c #A66000",
":+	c #5C3300",
"<+	c #9E5B00",
"[+	c #5B3200",
"}+	c #A15C00",
"|+	c #683A00",
"1+	c #482600",
"2+	c #9C5900",
"3+	c #9D5A00",
"4+	c #492700",
"5+	c #8D5000",
"                                                                                                                                ",
"                                                                                                                                ",
"                                                                                                                                ",
"                                                                                                                                ",
"                                                . +             @ #           $ %                                               ",
"                                                & * #         = - ;         > , '                                               ",
"                                                ) ! ~ +       { ! ]         ^ ! /                                               ",
"                                                ( ! ! _       : ! < [     } | ! 1                                               ",
"                                                2 ! ! ! 3   4 5 ! 6 >     7 ! ! 8                                               ",
"                                                + 9 ! ! 0   a ! ! b     c ! ! d 4                                               ",
"                                                  e ! ! ! $ f ! ! g     h ! ! i                                                 ",
"                                                  = j ! ! k f ! ! l   m n ! ! o                                                 ",
"                                                    p n ! q ; 6 ! r s t ! ! u >                                                 ",
"                                                  m v ! 6 6 6 6 6 6 6 6 6 ! w =                                                 ",
"                                                  x 6 6 6 6 6 6 6 6 6 6 6 6 6 y z                                               ",
"                                                A 6 6 6 6 ! ! ! ! ! ! ! ! ! 6 6 w                                               ",
"                                                B C 6 6 ! ! ! D E D ! ! ! ! ! ! o                                               ",
"                                              3 9 ! ! ! F G H I J I H G F ! ! ! n t                                             ",
"                                            K L ! ! ! M N J J J J J J J N O ! ! ! ! P                                           ",
"                                          Q R ! ! ! S J J J J J J J J J J J S ! ! ! ! T                                         ",
"                                        = j ! ! ! U J J J J J J J J J J J J J U ! ! ! V W                                       ",
"                                        X ! ! ! Y Z J J J J J J J J J J J J J Z ` ! ! !  .                                      ",
"                                      [ ..! ! ! +.J J J J J J J J J J J J J J J +.! ! ! n $                                     ",
"                                      @.! ! ! #.$.J J J J J J J J J J J J J J J $.E ! ! ! %.                                    ",
"                                      &.! ! ! *.J J J J J J I =.-.;.J J J J J J J *.! ! ! >.                                    ",
"                                      ,.! ! ! '.J J J J J ).!.6 6 6 ~.{.J J J J J '.! ! ! ].                                    ",
"                                      ^.! ! ! /.J J J J S 6 6 6 6 6 6 (._.J J J J /.! ! ! ! [                                   ",
"                                  p :.6 6 ! ! U J J J <.[.6 6 6 6 6 6 6 }.|.J J J U ! ! 6 6 * 1.                                ",
"                                2.C 6 6 6 ! ! 3.J J J 4.6 6 6 6 ! ! 6 6 6 5.J J J 3.! ! 6 6 6 6 & 4                             ",
"                              t 6 6 6.7.! ! ! 8.J J J 9.6 6 6 ! ! ! ! 6 6 0.J J J a.! ! ! b.c.< 6 x                             ",
"                            d.! 6 e.+ f.! ! ! ! g.J J h.6 6 ! ! ! ! ! 6 6 i.J J g.! ! ! ! j.  K n 6 k.                          ",
"                          # l.6 :.m.  n.5 ! ! ! o.J J p.6 6 6 ! ! ! ! 6 6 '.J J q.! ! ! ! r.    c.6 s.                          ",
"                          t.6 y u.      v.! ! ! w.x.J {.6 6 6 6 6 6 6 6 6 y.J x.w.! ! ! - [     } 6 ! u.                        ",
"                        z.C 6 A.        B.n ! ! ! F C.J D.6 6 6 6 6 6 6 E.J C.F.! ! ! < T       m.R 6 G.$                       ",
"                        %.6 H.+           I.! ! ! ! J.K.Z L.M.6 6 6 N.4.O.K.P.! ! ! ! Q.        P 6 6 6 R.                      ",
"                        0 6  .            > >.! ! ! ! S.T.U.<.V.'.W.X.U.T.Y.! ! ! ! Z.m         `.6 6  +=                       ",
"                      . H.6 s               m..+! ! ! ! ! ++@+#+4.#+$+%+! ! ! ! ! - u.          &+6 ] u.                        ",
"                    + *+6 6 =+                = -+< ! ! ! ! ! ! ! ! ! ! ! ! ! ! 7 m             > % 4                           ",
"                    ;+6 6 6 .+                    @ : ! 6 ! ! ! ! ! ! ! ! ! 6.z                                                 ",
"                    } 6 6 6 k.                        >+6 n < ! ! 6 6 ,+w r.[                                                   ",
"                      '+.+f.                          B.6 )+= } Q !+6 W                                                         ",
"                                                      p 6 s.      ~+6 {+                                                        ",
"                                                      ]+6 7       ^+6 n.                                                        ",
"                                                      /+6  .    > < ! >                                                         ",
"                                                      k 6 t.    $ 6 (+                                                          ",
"                                                      _+6 /     p 6 :+                                                          ",
"                                                      k.6 '     @.6 *                                                           ",
"                                                    > <+6 )     z 6 ,                                                           ",
"                                                  # ,+6 6 [+    k 6 :                                                           ",
"                                                  W ^+].& p     k.6 ,                                                           ",
"                                                                k 6 ,                                                           ",
"                                                                }+6 |+                                                          ",
"                                                                &+6 !+m                                                         ",
"                                                                { 6 6 1+c                                                       ",
"                                                                  2+L 6 L 3+                                                    ",
"                                                                    ]+4+6 6 R.                                                  ",
"                                                                      A 5+e.z.                                                  ",
"                                                                                                                                ",
"                                                                                                                                ",
"                                                                                                                                ",
"                                                                                                                                ",
"                                                                                                                                ",
"                                                                                                                                ",
"                                                                                                                                "};
