/* XPM */
static char * d2_xpm[] = {
"64 64 224 2",
"  	c #CD7700",
". 	c #C37100",
"+ 	c #CC7700",
"@ 	c #BC6D00",
"# 	c #C97400",
"$ 	c #C87400",
"% 	c #C06F00",
"& 	c #734100",
"* 	c #7B4500",
"= 	c #CA7500",
"- 	c #CC7600",
"; 	c #593100",
"> 	c #9F5B00",
", 	c #744100",
"' 	c #874C00",
") 	c #643700",
"! 	c #080200",
"~ 	c #784400",
"{ 	c #A55F00",
"] 	c #673900",
"^ 	c #A05B00",
"/ 	c #734000",
"( 	c #935400",
"_ 	c #693A00",
": 	c #261100",
"< 	c #C27000",
"[ 	c #2F1700",
"} 	c #975600",
"| 	c #955500",
"1 	c #190A00",
"2 	c #0F0500",
"3 	c #7F4800",
"4 	c #AF6500",
"5 	c #814900",
"6 	c #BA6B00",
"7 	c #2D1600",
"8 	c #BA6C00",
"9 	c #844B00",
"0 	c #B36700",
"a 	c #663900",
"b 	c #724000",
"c 	c #C57200",
"d 	c #3C1F00",
"e 	c #B06500",
"f 	c #B26700",
"g 	c #905200",
"h 	c #C77300",
"i 	c #231000",
"j 	c #A66000",
"k 	c #A96100",
"l 	c #8E5100",
"m 	c #A25D00",
"n 	c #925300",
"o 	c #BC6C00",
"p 	c #AB6200",
"q 	c #3F2100",
"r 	c #C97500",
"s 	c #000000",
"t 	c #804800",
"u 	c #5D3300",
"v 	c #B56900",
"w 	c #C17000",
"x 	c #B16600",
"y 	c #B86A00",
"z 	c #4B2800",
"A 	c #272524",
"B 	c #9D9D9D",
"C 	c #D4D4D4",
"D 	c #E9E9E9",
"E 	c #F2F2F2",
"F 	c #D1D1D1",
"G 	c #989898",
"H 	c #1C1918",
"I 	c #371C00",
"J 	c #B06600",
"K 	c #B56800",
"L 	c #8F8F8F",
"M 	c #EFEFEF",
"N 	c #FFFFFF",
"O 	c #ECECEC",
"P 	c #848484",
"Q 	c #BE6E00",
"R 	c #351B00",
"S 	c #AFAFAF",
"T 	c #FDFDFD",
"U 	c #A6A6A6",
"V 	c #200E00",
"W 	c #5F3400",
"X 	c #A1A1A1",
"Y 	c #FEFEFE",
"Z 	c #939393",
"` 	c #482600",
" .	c #A05C00",
"..	c #5B5A5A",
"+.	c #FAFAFA",
"@.	c #F6F6F6",
"#.	c #4A4949",
"$.	c #8F5100",
"%.	c #492700",
"&.	c #CBCBCB",
"*.	c #BFBFBF",
"=.	c #C67300",
"-.	c #383636",
";.	c #F5F5F5",
">.	c #181514",
",.	c #8D5000",
"'.	c #929292",
").	c #F8F8F8",
"!.	c #7E7E7E",
"~.	c #774300",
"{.	c #683A00",
"].	c #B3B3B3",
"^.	c #E8E8E8",
"/.	c #949494",
"(.	c #272727",
"_.	c #3C3C3C",
":.	c #F0F0F0",
"<.	c #A9A9A9",
"[.	c #4F2B00",
"}.	c #C9C9C9",
"|.	c #D6D6D6",
"1.	c #292929",
"2.	c #444444",
"3.	c #E4E4E4",
"4.	c #140700",
"5.	c #824A00",
"6.	c #C7C7C7",
"7.	c #3A3A3A",
"8.	c #5A5A5A",
"9.	c #F9F9F9",
"0.	c #B1B1B1",
"a.	c #391D00",
"b.	c #BBBBBB",
"c.	c #C8C8C8",
"d.	c #A5A5A5",
"e.	c #B46800",
"f.	c #4C2900",
"g.	c #868686",
"h.	c #767676",
"i.	c #9A9A9A",
"j.	c #6F6E6E",
"k.	c #623600",
"l.	c #1E1C1B",
"m.	c #5F5F5F",
"n.	c #828282",
"o.	c #6A3B00",
"p.	c #B66900",
"q.	c #9D5A00",
"r.	c #3B1E00",
"s.	c #542D00",
"t.	c #BCBCBC",
"u.	c #A86100",
"v.	c #6B3C00",
"w.	c #3F3E3E",
"x.	c #C2C2C2",
"y.	c #D8D8D8",
"z.	c #EDEDED",
"A.	c #31302F",
"B.	c #965500",
"C.	c #713F00",
"D.	c #6F3E00",
"E.	c #858585",
"F.	c #FBFBFB",
"G.	c #676767",
"H.	c #767575",
"I.	c #965600",
"J.	c #A76000",
"K.	c #442400",
"L.	c #764200",
"M.	c #6C3C00",
"N.	c #8D8D8D",
"O.	c #EEEEEE",
"P.	c #696969",
"Q.	c #818181",
"R.	c #552E00",
"S.	c #AC6300",
"T.	c #311800",
"U.	c #B26600",
"V.	c #452500",
"W.	c #686767",
"X.	c #DADADA",
"Y.	c #919191",
"Z.	c #7A7A7A",
"`.	c #979797",
" +	c #D0D0D0",
".+	c #5C5B5B",
"++	c #BB6C00",
"@+	c #BF6E00",
"#+	c #6D6C6C",
"$+	c #B6B6B6",
"%+	c #CFCFCF",
"&+	c #CECECE",
"*+	c #B2B2B2",
"=+	c #666565",
"-+	c #2B1400",
";+	c #A35D00",
">+	c #5B3200",
",+	c #9E5B00",
"'+	c #945400",
")+	c #894E00",
"!+	c #935300",
"~+	c #1D0C00",
"{+	c #4E2A00",
"]+	c #915200",
"^+	c #9C5900",
"/+	c #A35E00",
"(+	c #472500",
"_+	c #7A4500",
":+	c #AA6200",
"<+	c #B76A00",
"[+	c #5C3300",
"}+	c #9A5800",
"|+	c #633700",
"1+	c #281300",
"2+	c #A65F00",
"3+	c #BF6F00",
"4+	c #C47100",
"5+	c #5E3400",
"6+	c #985700",
"7+	c #CB7600",
"8+	c #7D4700",
"9+	c #794400",
"0+	c #834A00",
"a+	c #8B4F00",
"                                                                                                                                ",
"                                                                                                                                ",
"                                                                                                                                ",
"                                                                                                                                ",
"                                                . +             @ #           $ %                                               ",
"                                                & * =         - ; >           , '                                               ",
"                                                ) ! ~ -       { ! ]         ^ ! '                                               ",
"                                                / ! ! (       _ ! :       < [ ! }                                               ",
"                                                | ! ! 1 @   # 2 ! !       3 ! ! 4                                               ",
"                                                % 2 ! ! 5   6 ! ! 7     8 ! ! 1 $                                               ",
"                                                  9 ! ! : # 0 ! ! a     3 ! ! b                                                 ",
"                                                  c d ! ! e f ! ! g   h i ! ! j                                                 ",
"                                                    k ! ! l m ! ! n o p ! ! q =                                                 ",
"                                                  r ' 2 s s s s s s s ! ! ! l                                                   ",
"                                                  t s s s s s s s s s s s s s u v                                               ",
"                                                w s s s s ! ! ! ! ! ! s s s s s 5                                               ",
"                                                w ! s s ! ! ! ! ! ! ! ! ! ! ! 2 x                                               ",
"                                              y z ! ! ! A B C D E D F G H ! ! ! I J                                             ",
"                                            K 7 ! ! ! L M N N N N N N N O P ! ! ! 1 k                                           ",
"                                          Q R ! ! ! S N N N N N N N N N N T U ! ! ! V K                                         ",
"                                        - W ! ! ! X N N N N N N N N N N N N Y Z ! ! ! ` $                                       ",
"                                         .! ! ! ..+.N N N N N N N N N N N N N @.#.! ! ! $.                                      ",
"                                      - %.! ! ! &.N N N N N N N N N N N N N N N *.! ! ! 7 =.                                    ",
"                                      J ! ! ! -.+.N N N N N N N N N N N N N N N ;.>.! ! ! m                                     ",
"                                      ,.! ! ! '.N N N N N Y N Y ).N N N N N N N N !.! ! ! ~.                                    ",
"                                      {.! ! ! ].N N N N N ^./.(.s _.X :.N N N N N <.! ! ! `                                     ",
"                                      [.! ! ! }.N N N N |.1.s s s s s 2.3.N N N N ].! ! ! 4.+                                   ",
"                                  . 5.4.! ! ! 6.N N N @.7.s s s s s s s 8.9.N N N 0.! ! s !  .                                  ",
"                                f a.s s s ! ! S N N N b.s s s s ! ! s s s c.N N N d.! ! s s ! e.                                ",
"                              k 1 s a.f.! ! ! g.N N N h.s s s ! ! ! s s s i.N N N j.! ! ! ! s k.                                ",
"                            f 1 s ; w g ! ! ! l.;.N N m.s s ! ! ! ! ! s s n.N N M ! ! ! ! o.! s p.                              ",
"                          q.r.s s.=.  e.! ! ! ! t.N N P s s s ! ! ! ! s s d.N N S ! ! ! ! u.v.s $.                              ",
"                        { s s : Q       s.! ! ! w.E N x.s s s s s s s s s y.N z.A.! ! ! I # B.s _                               ",
"                        C.s s D.        j ! ! ! ! E.F.+.G.s s s s s s s g.N +.H.! ! ! ! I.  J.s K.                              ",
"                        a s s L.          M.! ! ! ! N.9.O.P.s s s s s Q.@.@.E.! ! ! ! R.r   S.s T.                              ",
"                        > s 1 U.          < V.! ! ! ! W.X.F.c.Y.Z.`. +T C .+! ! ! ! 7 ++    J.s %.                              ",
"                          y @+              ++q ! ! ! ! ! #+$+%+|.&+*+=+! ! ! ! ! -+f       ;+s >+                              ",
"                                              % >+! ! ! ! ! ! ! ! ! ! ! ! ! ! ! z y         ,+s k.                              ",
"                                                = '+7 2 ! s ! ! ! ! ! ! ! ! 1 )+h           !+s V.c                             ",
"                                                    c ;+s s ~+! ! s s ! {+]+w             y V s s ^+                            ",
"                                                      @ s s p./+ .(+s o                   _+s s s :+                            ",
"                                                      <+s 1       [+s .                   3 s s o.-                             ",
"                                                      p s K.      K.s c                   c ( ;+=                               ",
"                                                      }+s |+    - ! ! -                                                         ",
"                                                      9 s t     < s d                                                           ",
"                                                      {.s }     y s 1+                                                          ",
"                                                      %.s 2+    4 s z                                                           ",
"                                                    - 2 s v     2+s o.                                                          ",
"                                                    3+s s Q     ]+s q k                                                         ",
"                                                    e.s s #     x 1 s ! 4+                                                      ",
"                                                    > s z         % '+,.-                                                       ",
"                                                    5 s ~.                                                                      ",
"                                                    5+s }                                                                       ",
"                                                  6+1 s u.                                                                      ",
"                                              7+8+s s a $                                                                       ",
"                                            r / s s / r                                                                         ",
"                                          7+{.s s 9+7+                                                                          ",
"                                          v s s 0+-                                                                             ",
"                                          $ a+J.                                                                                ",
"                                                                                                                                ",
"                                                                                                                                ",
"                                                                                                                                ",
"                                                                                                                                ",
"                                                                                                                                "};
