/* XPM */
static char * l1_xpm[] = {
"64 64 223 2",
"  	c #CD7700",
". 	c #BB6C00",
"+ 	c #B86A00",
"@ 	c #CA7500",
"# 	c #C67300",
"$ 	c #371C00",
"% 	c #C17000",
"& 	c #AF6400",
"* 	c #442400",
"= 	c #C87400",
"- 	c #C77300",
"; 	c #683A00",
"> 	c #8F5100",
", 	c #080200",
"' 	c #6A3B00",
") 	c #7F4800",
"! 	c #985700",
"~ 	c #C97500",
"{ 	c #653800",
"] 	c #874C00",
"^ 	c #C37100",
"/ 	c #A25D00",
"( 	c #613500",
"_ 	c #4F2B00",
": 	c #814900",
"< 	c #905200",
"[ 	c #472500",
"} 	c #3B1E00",
"| 	c #5C3300",
"1 	c #B46800",
"2 	c #AE6400",
"3 	c #824900",
"4 	c #945400",
"5 	c #673900",
"6 	c #B36700",
"7 	c #713F00",
"8 	c #482600",
"9 	c #CB7600",
"0 	c #AD6400",
"a 	c #391D00",
"b 	c #894E00",
"c 	c #AA6200",
"d 	c #C57200",
"e 	c #0F0500",
"f 	c #A55F00",
"g 	c #3F2100",
"h 	c #AB6300",
"i 	c #AB6200",
"j 	c #6D3D00",
"k 	c #955500",
"l 	c #7A4400",
"m 	c #000000",
"n 	c #7D4700",
"o 	c #774300",
"p 	c #231000",
"q 	c #C06F00",
"r 	c #A15C00",
"s 	c #5B3200",
"t 	c #331A00",
"u 	c #764200",
"v 	c #140700",
"w 	c #CC7700",
"x 	c #B96B00",
"y 	c #4B2800",
"z 	c #343332",
"A 	c #7D7D7D",
"B 	c #969696",
"C 	c #858585",
"D 	c #535252",
"E 	c #351B00",
"F 	c #A96100",
"G 	c #261100",
"H 	c #767575",
"I 	c #D4D4D4",
"J 	c #FCFCFC",
"K 	c #FFFFFF",
"L 	c #E3E3E3",
"M 	c #9A9A9A",
"N 	c #A05C00",
"O 	c #B7B7B7",
"P 	c #FDFDFD",
"Q 	c #D9D9D9",
"R 	c #3F3E3E",
"S 	c #BD6D00",
"T 	c #2B1400",
"U 	c #C4C4C4",
"V 	c #E5E5E5",
"W 	c #3A3838",
"X 	c #190A00",
"Y 	c #B56900",
"Z 	c #663800",
"` 	c #9D9D9D",
" .	c #D0D0D0",
"..	c #542D00",
"+.	c #AD6300",
"@.	c #393737",
"#.	c #F4F4F4",
"$.	c #AAAAAA",
"%.	c #959595",
"&.	c #AEAEAE",
"*.	c #E0E0E0",
"=.	c #848484",
"-.	c #703F00",
";.	c #A9A9A9",
">.	c #F8F8F8",
",.	c #8B8B8B",
"'.	c #D7D7D7",
").	c #5A3100",
"!.	c #DDDDDD",
"~.	c #8D8D8D",
"{.	c #A7A7A7",
"].	c #353333",
"^.	c #BF6F00",
"/.	c #B26700",
"(.	c #0A0402",
"_.	c #020202",
":.	c #EBEBEB",
"<.	c #818181",
"[.	c #A65F00",
"}.	c #A05B00",
"|.	c #2C2B2A",
"1.	c #ABABAB",
"2.	c #BFBFBF",
"3.	c #A3A3A3",
"4.	c #5F3400",
"5.	c #834A00",
"6.	c #373535",
"7.	c #949494",
"8.	c #ACACAC",
"9.	c #A8A8A8",
"0.	c #8A4E00",
"a.	c #110D0B",
"b.	c #A5A5A5",
"c.	c #BCBCBC",
"d.	c #8C8C8C",
"e.	c #311800",
"f.	c #925300",
"g.	c #2F1700",
"h.	c #E6E6E6",
"i.	c #585757",
"j.	c #975600",
"k.	c #2D1600",
"l.	c #BDBDBD",
"m.	c #7B7B7B",
"n.	c #979797",
"o.	c #E7E7E7",
"p.	c #1D0C00",
"q.	c #724000",
"r.	c #663900",
"s.	c #965500",
"t.	c #636262",
"u.	c #F0F0F0",
"v.	c #727272",
"w.	c #888888",
"x.	c #F9F9F9",
"y.	c #422300",
"z.	c #C27000",
"A.	c #874D00",
"B.	c #864C00",
"C.	c #FBFBFB",
"D.	c #C9C9C9",
"E.	c #909090",
"F.	c #7A7A7A",
"G.	c #D1D1D1",
"H.	c #FEFEFE",
"I.	c #EAEAEA",
"J.	c #22201F",
"K.	c #8B4F00",
"L.	c #583000",
"M.	c #744100",
"N.	c #643700",
"O.	c #CC7600",
"P.	c #BA6B00",
"Q.	c #363434",
"R.	c #727171",
"S.	c #844B00",
"T.	c #A35D00",
"U.	c #4E4D4D",
"V.	c #E4E4E4",
"W.	c #F5F5F5",
"X.	c #965600",
"Y.	c #A76000",
"Z.	c #6B3C00",
"`.	c #8D5000",
" +	c #2B2A29",
".+	c #BABABA",
"++	c #D2D2D2",
"@+	c #5A5959",
"#+	c #6F3E00",
"$+	c #B16600",
"%+	c #784300",
"&+	c #414040",
"*+	c #C5C5C5",
"=+	c #CDCDCD",
"-+	c #CACACA",
";+	c #5D5C5C",
">+	c #BC6D00",
",+	c #562F00",
"'+	c #3E2000",
")+	c #412200",
"!+	c #522C00",
"~+	c #572F00",
"{+	c #9D5A00",
"]+	c #4D2900",
"^+	c #693A00",
"/+	c #5E3400",
"(+	c #4C2900",
"_+	c #AC6300",
":+	c #BE6E00",
"<+	c #C47100",
"[+	c #512B00",
"}+	c #5D3300",
"|+	c #7A4500",
"1+	c #9C5900",
"2+	c #BF6E00",
"3+	c #A86100",
"4+	c #B76900",
"5+	c #452500",
"6+	c #281300",
"7+	c #C47200",
"8+	c #B56800",
"9+	c #B66900",
"0+	c #915200",
"                                                                                                                                ",
"                                                                                                                                ",
"                                                                                                                                ",
"                                                                                                                                ",
"                                                                                                                                ",
"                                                  .             +             @ #                                               ",
"                                                + $ %         & * =         - ; >                                               ",
"                                                + , '         ) , !       ~ { , ]                                               ",
"                                                ^ , , /       ( , _       : , , <                                               ",
"                                                  [ , } -     | , , %   1 , , , 2                                               ",
"                                                  3 , , 4     5 , , 6   7 , , 8 9                                               ",
"                                                  0 , , a @   b , , c d e , , f                                                 ",
"                                                  9 g , , h   i , , i i , , j                                                   ",
"                                                    k , , l / 3 m m n o , p q                                                   ",
"                                                  = r m m m m m m m m m m m s ^                                                 ",
"                                                % t m m m m m m m m m m m m m u                                                 ",
"                                                . e m , , , , , , , , , , m m v w                                               ",
"                                                x y , , , , z A B C D , , m m E 6                                               ",
"                                              F G , , , H I J K K K K L M , , , v N                                             ",
"                                            i v , , , O P K K K K K K K K Q R , , , r                                           ",
"                                          S T , , , U K K K K K K K K K K K V W , , X Y                                         ",
"                                          Z , , , ` K K K K K K K K K K K K K  ., , , ..9                                       ",
"                                        +., , , @.#.K Q $.%.&.*.K K K K K K K K =., , , /                                       ",
"                                        -., , , ;.>.,.m m m m m ` J K K K K K K '., , , ).                                      ",
"                                      # e , , , !.~.m m m m m m m {.K K K K K K J ]., , , ^.                                    ",
"                                      /., , , (.I m m m m m m m m _.:.K K K K K K <., , , [.                                    ",
"                                      }., , , |.1.m m m , , , m m m 2.K K K K K K 3., , , 4.#                                   ",
"                                  ~ 5.m m , , 6.7.m m , , , , , m m 8.K K K K K K 9., , m m 0.                                  ",
"                                @ ' m m , m , a.b.m m , , , , m m m c.K K K K K K d., , m m e.=                                 ",
"                                b m e f.g., , , O m m m m , m m m m h.K K K K K K i., , , p m f                                 ",
"                              q e m j.q k., , , l.m.m m m m m m m n.K K K K K K o., , , p.q.m r.                                ",
"                              s.m * 9 = _ , , , t.u.v.m m m m m w.x.K K K K K K 9., , , y.. m m ^.                              ",
"                            z.4.m A.    B., , , , U C.D.E.F.B G.H.K K K K K K I.J., , , K.  L.m !                               ",
"                            M.m m N.O.  P.t , , , Q.h.K K K K K K K K K K K x.R., , , G %   f.m q.                              ",
"                            S.m m m 6     T.X , , , U.V.K K K K K K K K K W.=., , , , X.    Y.m [                               ",
"                            - Z.m , .       `.e , , ,  +.+>.K K K K K H.++@+, , , , #+O.  ^ g.m T                               ",
"                                $+Y         9 %+, , , , , &+` *+=+-+1.;+, , , , , ; =     >+m m ,+                              ",
"                                              O.`., , , , , , , , , , , , , , , 3 @       O.'+m )+                              ",
"                                                  1 !+m m , , , , , , m m , ~+2             {+m 7                               ",
"                                                  9 ]+m ^+/+~+'+v v (+e , _+w                 :+@                               ",
"                                                  Y.m E =   9 <+P.. ~ [+m .                                                     ",
"                                                  }+m `.              |+m 1+                                                    ",
"                                        ^.S w   Y.m e 2+              N m '                                                     ",
"                                      3+m m } b y m B.                % m , :+                                                  ",
"                                      4+5+m m m m 6+7+                  5 m n 9                                                 ",
"                                        w 8+B.a m )                     F m m ..2+                                              ",
"                                              @ 9+@                     @ y m m Y.                                              ",
"                                                                        B.m m Z.@                                               ",
"                                                                        e., 0+9                                                 ",
"                                                                        r 1                                                     ",
"                                                                                                                                ",
"                                                                                                                                ",
"                                                                                                                                ",
"                                                                                                                                ",
"                                                                                                                                ",
"                                                                                                                                ",
"                                                                                                                                ",
"                                                                                                                                ",
"                                                                                                                                ",
"                                                                                                                                ",
"                                                                                                                                ",
"                                                                                                                                ",
"                                                                                                                                ",
"                                                                                                                                "};
