/* XPM */
static char * l2_xpm[] = {
"64 64 197 2",
"  	c #CD7700",
". 	c #925300",
"+ 	c #CC7600",
"@ 	c #C97400",
"# 	c #985700",
"$ 	c #AC6300",
"% 	c #BF6E00",
"& 	c #CB7600",
"* 	c #080200",
"= 	c #945400",
"- 	c #9F5B00",
"; 	c #0F0500",
"> 	c #BB6C00",
", 	c #A35D00",
"' 	c #140700",
") 	c #190A00",
"! 	c #BA6B00",
"~ 	c #794400",
"{ 	c #814900",
"] 	c #5B3200",
"^ 	c #643700",
"/ 	c #623600",
"( 	c #311800",
"_ 	c #CC7700",
": 	c #C47200",
"< 	c #371C00",
"[ 	c #B26700",
"} 	c #894E00",
"| 	c #A86100",
"1 	c #633700",
"2 	c #BC6D00",
"3 	c #8A4E00",
"4 	c #391D00",
"5 	c #CA7500",
"6 	c #AF6400",
"7 	c #583000",
"8 	c #804800",
"9 	c #B46800",
"0 	c #C97500",
"a 	c #955500",
"b 	c #3B1E00",
"c 	c #B36700",
"d 	c #9E5A00",
"e 	c #AF6500",
"f 	c #4E2A00",
"g 	c #8E5100",
"h 	c #8C5000",
"i 	c #B16600",
"j 	c #C27000",
"k 	c #1D0C00",
"l 	c #2F1700",
"m 	c #000000",
"n 	c #3E2000",
"o 	c #AD6400",
"p 	c #995800",
"q 	c #C87400",
"r 	c #683A00",
"s 	c #703F00",
"t 	c #613500",
"u 	c #7B4500",
"v 	c #0A0402",
"w 	c #939393",
"x 	c #D4D4D4",
"y 	c #EEEEEE",
"z 	c #FCFCFC",
"A 	c #F3F3F3",
"B 	c #DDDDDD",
"C 	c #ACACAC",
"D 	c #3C3A3A",
"E 	c #6D3D00",
"F 	c #C67300",
"G 	c #6B3B00",
"H 	c #676666",
"I 	c #E4E4E4",
"J 	c #FFFFFF",
"K 	c #F4F4F4",
"L 	c #959595",
"M 	c #7F4700",
"N 	c #7A7A7A",
"O 	c #F6F6F6",
"P 	c #AA6100",
"Q 	c #515050",
"R 	c #919191",
"S 	c #9C5900",
"T 	c #4C2900",
"U 	c #CFCFCF",
"V 	c #F7F7F7",
"W 	c #D3D3D3",
"X 	c #C6C6C6",
"Y 	c #D1D1D1",
"Z 	c #F2F2F2",
"` 	c #373535",
" .	c #331A00",
"..	c #C77300",
"+.	c #A96100",
"@.	c #616060",
"#.	c #FEFEFE",
"$.	c #CACACA",
"%.	c #3B3B3B",
"&.	c #363636",
"*.	c #C2C2C2",
"=.	c #ABABAB",
"-.	c #9B5900",
";.	c #784400",
">.	c #B7B7B7",
",.	c #C1C1C1",
"'.	c #E1E1E1",
").	c #3F2100",
"!.	c #D0D0D0",
"~.	c #3E3E3E",
"{.	c #313131",
"].	c #FDFDFD",
"^.	c #1D1A19",
"/.	c #B3B3B3",
"(.	c #CCCCCC",
"_.	c #6A6969",
":.	c #482600",
"<.	c #9E9E9E",
"[.	c #B2B2B2",
"}.	c #797979",
"|.	c #A3A3A3",
"1.	c #4C4B4B",
"2.	c #844B00",
"3.	c #231000",
"4.	c #6E3D00",
"5.	c #030303",
"6.	c #E8E8E8",
"7.	c #200E00",
"8.	c #2D1600",
"9.	c #784300",
"0.	c #693A00",
"a.	c #9A9A9A",
"b.	c #A0A0A0",
"c.	c #969696",
"d.	c #522C00",
"e.	c #542D00",
"f.	c #864C00",
"g.	c #292726",
"h.	c #8B8B8B",
"i.	c #858585",
"j.	c #F8F8F8",
"k.	c #7F7F7F",
"l.	c #965600",
"m.	c #663800",
"n.	c #351B00",
"o.	c #AD6300",
"p.	c #D2D2D2",
"q.	c #7B7B7B",
"r.	c #989898",
"s.	c #D5D5D5",
"t.	c #B06600",
"u.	c #BE6E00",
"v.	c #552E00",
"w.	c #8D5000",
"x.	c #653800",
"y.	c #EFEFEF",
"z.	c #4B4A4A",
"A.	c #AB6300",
"B.	c #442400",
"C.	c #272524",
"D.	c #EBEBEB",
"E.	c #B96B00",
"F.	c #9D9D9D",
"G.	c #EDEDED",
"H.	c #BEBEBE",
"I.	c #383636",
"J.	c #975600",
"K.	c #8F5100",
"L.	c #9D5A00",
"M.	c #A55F00",
"N.	c #0E0806",
"O.	c #818181",
"P.	c #AEAEAE",
"Q.	c #BCBCBC",
"R.	c #949494",
"S.	c #B56800",
"T.	c #935400",
"U.	c #472500",
"V.	c #C17000",
"W.	c #281300",
"X.	c #8B4F00",
"Y.	c #A45E00",
"Z.	c #A05B00",
"`.	c #261100",
" +	c #5F3400",
".+	c #905200",
"++	c #B86A00",
"@+	c #834A00",
"#+	c #A05C00",
"$+	c #A25D00",
"%+	c #935300",
"&+	c #744100",
"*+	c #5A3100",
"=+	c #C57200",
"-+	c #BC6C00",
";+	c #B26600",
">+	c #BD6D00",
"                                                                                                                                ",
"                                                                                                                                ",
"                                                                                                                                ",
"                                                                                                                                ",
"                                                                                                                                ",
"                                                                                                                                ",
"                                                  . +         @ #             $ %                                               ",
"                                                & * =         - ; >         , ; ,                                               ",
"                                                  ' ) !       ~ * {       $ ; * ,                                               ",
"                                                  ] * ^       / * ( _   : < * * [                                               ",
"                                                  } * * |     1 * * 2   3 * * 4 5                                               ",
"                                                  6 * * 7     8 * * 9 0 ( * * a                                                 ",
"                                                  & b * * c   d * * e e * * f 0                                                 ",
"                                                    g * * h   [ * * i a * * [                                                   ",
"                                                    j k * ( l m m m m m m n o                                                   ",
"                                                  p f m m m m m m m m m m m m e                                                 ",
"                                                q m m m m m * * * * * * m m m r                                                 ",
"                                                  s * * * * * * * * * * m m m t +                                               ",
"                                              0 u * * * v w x y z A B C D * * * E F                                             ",
"                                            5 G * * * H I J J J J J J J K L * * * ] F                                           ",
"                                            M * * * N O J J J J J J J J J J C * * * E +                                         ",
"                                          P * * * Q A J J J J J J J J J J J J R * * * S                                         ",
"                                        & T * * * U J V W X Y O J J J J J J J Z ` * *  ...                                      ",
"                                        +.* * * @.#.$.%.m m m &.*.J J J J J J J =.* * * -.                                      ",
"                                        ;.* * * >.$.m m m m m m m ,.J J J J J J '.* * * 1                                       ",
"                                        ).* * * !.~.m m m m m m m {.V J J J J J ].^.* * * 0                                     ",
"                                      F l * * * /.m m m * * * m m m (.J J J J J J _.* * m -.                                    ",
"                                    [ :.m m * * <.m m * * * * * m m [.J J J J J J }.* * m * !                                   ",
"                                  +.' m m m * * |.m m * * * * m m m *.J J J J J J 1.* * m m 2.                                  ",
"                                2 3.m 4.t m * * /.5.m m m * * m m m 6.J J J J J K * * * 7.m 8.q                                 ",
"                                9.m ] q 0.* * * a.b.m m m m m m m c.J J J J J J U * * * d.e.m ,                                 ",
"                              F ' m 6   f.* * * g.y h.m m m m m i.j.J J J J J J k.* * * { l.m m.@                               ",
"                              [ m n.&   o.) * * * |.J p.a.q.r.!.#.J J J J J J s.* * * * t.u.m m v.+                             ",
"                              w.m 8     0 x.* * * * !.J J J J J J J J J J J y.z.* * * /   + ' m m u.                            ",
"                            | ) m A.      u.B.* * * C.U J J J J J J J J J D.@.* * * k E.    u m 4 5                             ",
"                            M m m t.        [ 3.* * * * F.G.J J J J J j.H.I.* * * * -       F J.E.                              ",
"                            K.m m L.          M.' * * * * N.O.P.Q./.R.I.* * * * * J.                                            ",
"                            S.m m A.            [ f ' m * * * * * * * * * m *  .+.                                              ",
"                            _ T.g +               5 M.U.m * * * * * * * * m b V.                                                ",
"                                                      % u n 3.1 W.b X.Y.Z.`.m  +A.                                              ",
"                                                        0  +' 5 + _       [ < m m  +.+++                                        ",
"                                                          r m V.            : .+l m m 4                                         ",
"                                                          { m e                 : @+m m.                                        ",
"                                                        + } m #+                  ;.m $+                                        ",
"                                                @ %+m.W.* m m -                   &+G &                                         ",
"                                                9 m m m m m *+=+                                                                ",
"                                                  -+;++.;+>+                                                                    ",
"                                                                                                                                ",
"                                                                                                                                ",
"                                                                                                                                ",
"                                                                                                                                ",
"                                                                                                                                ",
"                                                                                                                                ",
"                                                                                                                                ",
"                                                                                                                                ",
"                                                                                                                                ",
"                                                                                                                                ",
"                                                                                                                                ",
"                                                                                                                                ",
"                                                                                                                                ",
"                                                                                                                                ",
"                                                                                                                                ",
"                                                                                                                                ",
"                                                                                                                                "};
