/* XPM */
static char * r1_xpm[] = {
"64 64 219 2",
"  	c #CD7700",
". 	c #8D5000",
"+ 	c #BF6F00",
"@ 	c #CB7600",
"# 	c #734100",
"$ 	c #C97500",
"% 	c #CC7700",
"& 	c #7D4700",
"* 	c #C27000",
"= 	c #391D00",
"- 	c #412200",
"; 	c #BC6D00",
"> 	c #A05B00",
", 	c #080200",
"' 	c #A76000",
") 	c #995700",
"! 	c #B76A00",
"~ 	c #3C1F00",
"{ 	c #482600",
"] 	c #C47200",
"^ 	c #4F2B00",
"/ 	c #874C00",
"( 	c #BD6D00",
"_ 	c #231000",
": 	c #BB6C00",
"< 	c #6A3B00",
"[ 	c #764200",
"} 	c #6F3E00",
"| 	c #6B3C00",
"1 	c #1D0C00",
"2 	c #9B5800",
"3 	c #B56800",
"4 	c #A35E00",
"5 	c #784300",
"6 	c #AD6400",
"7 	c #C67300",
"8 	c #351B00",
"9 	c #965500",
"0 	c #8C5000",
"a 	c #613500",
"b 	c #985700",
"c 	c #311800",
"d 	c #CC7600",
"e 	c #905200",
"f 	c #A96100",
"g 	c #673900",
"h 	c #945400",
"i 	c #0F0500",
"j 	c #C57200",
"k 	c #6E3D00",
"l 	c #995800",
"m 	c #000000",
"n 	c #4E2A00",
"o 	c #371C00",
"p 	c #693A00",
"q 	c #452500",
"r 	c #B06600",
"s 	c #8B4F00",
"t 	c #774300",
"u 	c #AB6200",
"v 	c #BC6C00",
"w 	c #B36700",
"x 	c #4B2800",
"y 	c #C37100",
"z 	c #676666",
"A 	c #ABABAB",
"B 	c #C9C9C9",
"C 	c #CBCBCB",
"D 	c #B9B9B9",
"E 	c #8D8D8D",
"F 	c #1E1B1A",
"G 	c #BE6E00",
"H 	c #727171",
"I 	c #DDDDDD",
"J 	c #FFFFFF",
"K 	c #F2F2F2",
"L 	c #A7A7A7",
"M 	c #0B0503",
"N 	c #834A00",
"O 	c #A3A3A3",
"P 	c #FBFBFB",
"Q 	c #D7D7D7",
"R 	c #363434",
"S 	c #894E00",
"T 	c #9D9D9D",
"U 	c #DBDBDB",
"V 	c #171312",
"W 	c #A86100",
"X 	c #A35D00",
"Y 	c #636262",
"Z 	c #FAFAFA",
"` 	c #B6B6B6",
" .	c #3E2000",
"..	c #C87400",
"+.	c #492700",
"@.	c #D2D2D2",
"#.	c #F8F8F8",
"$.	c #BABABA",
"%.	c #7B7B7B",
"&.	c #5A5A5A",
"*.	c #808080",
"=.	c #C0C0C0",
"-.	c #4F4E4E",
";.	c #AE6400",
">.	c #565555",
",.	c #FDFDFD",
"'.	c #ECECEC",
").	c #5D5D5D",
"!.	c #696969",
"~.	c #F1F1F1",
"{.	c #864C00",
"].	c #A5A5A5",
"^.	c #656565",
"/.	c #777777",
"(.	c #E1E1E1",
"_.	c #BA6C00",
":.	c #5D3300",
"<.	c #CACACA",
"[.	c #C8C8C8",
"}.	c #D1D1D1",
"|.	c #110C0A",
"1.	c #A55F00",
"2.	c #9F5B00",
"3.	c #D8D8D8",
"4.	c #959595",
"5.	c #A6A6A6",
"6.	c #403F3F",
"7.	c #884D00",
"8.	c #C47100",
"9.	c #D9D9D9",
"0.	c #7E7E7E",
"a.	c #919191",
"b.	c #444343",
"c.	c #633700",
"d.	c #C17000",
"e.	c #CCCCCC",
"f.	c #989898",
"g.	c #181413",
"h.	c #281300",
"i.	c #ADADAD",
"j.	c #CECECE",
"k.	c #2B1400",
"l.	c #663800",
"m.	c #B26700",
"n.	c #140700",
"o.	c #626161",
"p.	c #FCFCFC",
"q.	c #727272",
"r.	c #838383",
"s.	c #BCBCBC",
"t.	c #200E00",
"u.	c #B86A00",
"v.	c #AC6300",
"w.	c #824900",
"x.	c #724000",
"y.	c #F0F0F0",
"z.	c #6D6D6D",
"A.	c #797979",
"B.	c #605F5F",
"C.	c #3F2100",
"D.	c #663900",
"E.	c #784400",
"F.	c #331A00",
"G.	c #767575",
"H.	c #C7C7C7",
"I.	c #8C8C8C",
"J.	c #909090",
"K.	c #C3C3C3",
"L.	c #9C5900",
"M.	c #955500",
"N.	c #B0B0B0",
"O.	c #E6E6E6",
"P.	c #343332",
"Q.	c #261100",
"R.	c #7F4800",
"S.	c #A45E00",
"T.	c #512B00",
"U.	c #B7B7B7",
"V.	c #E5E5E5",
"W.	c #4D4C4C",
"X.	c #552E00",
"Y.	c #8F8F8F",
"Z.	c #EDEDED",
"`.	c #BEBEBE",
" +	c #302F2E",
".+	c #BA6B00",
"++	c #A86000",
"@+	c #6C3C00",
"#+	c #AF6500",
"$+	c #0F0A08",
"%+	c #8E8E8E",
"&+	c #C2C2C2",
"*+	c #DCDCDC",
"=+	c #A8A8A8",
"-+	c #4C4B4B",
";+	c #683A00",
">+	c #C97400",
",+	c #B46800",
"'+	c #915300",
")+	c #B56900",
"!+	c #7A4400",
"~+	c #C06F00",
"{+	c #854B00",
"]+	c #472500",
"^+	c #BF6E00",
"/+	c #643700",
"(+	c #7D4600",
"_+	c #965600",
":+	c #AB6300",
"<+	c #3B1E00",
"[+	c #814900",
"}+	c #9B5900",
"|+	c #B76900",
"1+	c #653800",
"2+	c #B96B00",
"3+	c #744100",
"4+	c #754100",
"5+	c #7C4600",
"6+	c #935300",
"                                                                                                                                ",
"                                                                                                                                ",
"                                                                                                                                ",
"                                                                                                                                ",
"                                                                                                                                ",
"                                                . +           @ # $         % & *                                               ",
"                                                = - ;         > , '         ) , !                                               ",
"                                                ~ , { ]       ^ , /       ( _ , :                                               ",
"                                                < , , [     : , , }       | , 1 @                                               ",
"                                                2 , , , 3   4 , , 5     6 , , <                                                 ",
"                                                7 8 , , &   9 , , 0     a , , b                                                 ",
"                                                  > , , c d e , , f   ! , , , +                                                 ",
"                                                    g , , : h , i j   e , , k                                                   ",
"                                                    l m , n c m m o p q , , r                                                   ",
"                                                  s m m m m m m m m m m m m t u                                                 ",
"                                                v , m m m , , , , m m m m m m m !                                               ",
"                                                w m m m , , , , , , , , , , m x j                                               ",
"                                              y < , m , , z A B C D E F , , , 1 l                                               ",
"                                            G { , , , H I J J J J J J K L M , , , N %                                           ",
"                                          y { , , , O P J J J J J J J J J Q R , , , S                                           ",
"                                          < , , , T J J J J J J J J J J J J U V , , , W                                         ",
"                                        X , , , Y Z J J J J J J J J J J J J J ` , , ,  ...                                      ",
"                                      d +., , , @.J J J J J J J #.$.%.&.*.=.Z Z -., , , b                                       ",
"                                      ;., , , >.,.J J J J J J '.).m m m m m !.~.` , , , x                                       ",
"                                      {., , , ].J J J J J J Z ^.m m m m m m m /.(., , , , _.                                    ",
"                                      :., , , <.J J J J J J [.m m m m , m m m m }.|., , , 1.                                    ",
"                                    2.i , , , 3.J J J J J J 4.m m m , , , m m m 5.6., , , 7.d                                   ",
"                                  8._ m , , , 9.J J J J J J 0.m m , , , , , m m a.b., , m m c.d.                                ",
"                                  b m m m , , e.J J J J J J f.m m m , , , , m m L g., m , , m { d.                              ",
"                                  ^ m h., , , i.J J J J J J j.m m m m , m m m m D , , , _ l k.m l.%                             ",
"                                m.m n.[ , , , o.J J J J J J p.q.m m m m m m m r.s., , , t.u.u m m v.                            ",
"                                w.m x.f , , , , U J J J J J J y.z.m m m m m A.K B., , , C.8.  D.m E.                            ",
"                              @ F.m X ..8 , , , G.,.J J J J J J P H.I.A.J.C ,.K., , , , t d   L.m  .:                           ",
"                              u.m m ]   M., , , , N.J J J J J J J J J J J J O.P., , , Q.m.    R.m m -                           ",
"                              S.m {     $ T., , , , U.J J J J J J J J J J V.W., , , i 9 d   d.m m m X.                          ",
"                              > m m s     u.h., , , , Y.Z.J J J J J J Z `. +, , , , & %     y 1 m q .+                          ",
"                              ++m m @+      #+Q., , , , $+%+&+3.*+j.=+-+, , , , , ;+>+        ,+X ..                            ",
"                              4 m m '+        )+q , , , , , , , , , , , , , , , !+>+                                            ",
"                              #+m k.~+          7 {+n., m , , , , , , , m m ]+'                                                 ",
"                                w ^+                + w.m t.h., , h.= F.+.m /+                                                  ",
"                                                      X m E.v 1.++v j @ + , m m.                                                ",
"                                                      (+m _+              [ m #                                                 ",
"                                                    @ o m w               r m m )+                                              ",
"                                                    :+m F.@                 D.m c.f [ <+= u                                     ",
"                                                    l.m [+                  u.m m m m m m }+                                    ",
"                                                v g m m |+                    1+m m ]+'+2+                                      ",
"                                                3+m m 4+                      ; e w %                                           ",
"                                                ' m m <+:                                                                       ",
"                                                  f c m 5+                                                                      ",
"                                                    ~+k 6+                                                                      ",
"                                                                                                                                ",
"                                                                                                                                ",
"                                                                                                                                ",
"                                                                                                                                ",
"                                                                                                                                ",
"                                                                                                                                ",
"                                                                                                                                ",
"                                                                                                                                ",
"                                                                                                                                ",
"                                                                                                                                ",
"                                                                                                                                ",
"                                                                                                                                ",
"                                                                                                                                ",
"                                                                                                                                "};
