/* XPM */
static char * r2_xpm[] = {
"64 64 208 2",
"  	c #CD7700",
". 	c #BA6C00",
"+ 	c #B06600",
"@ 	c #B16600",
"# 	c #5B3200",
"$ 	c #7F4800",
"% 	c #CB7600",
"& 	c #B26700",
"* 	c #190A00",
"= 	c #C27000",
"- 	c #A76000",
"; 	c #000000",
"> 	c #CC7700",
", 	c #472500",
"' 	c #080200",
") 	c #804800",
"! 	c #663900",
"~ 	c #A05C00",
"{ 	c #331A00",
"] 	c #0F0500",
"^ 	c #633700",
"/ 	c #9E5A00",
"( 	c #BF6F00",
"_ 	c #894E00",
": 	c #784300",
"< 	c #512B00",
"[ 	c #8F5100",
"} 	c #2F1700",
"| 	c #C57200",
"1 	c #A45E00",
"2 	c #874D00",
"3 	c #7E4700",
"4 	c #BE6E00",
"5 	c #965500",
"6 	c #905200",
"7 	c #945400",
"8 	c #643700",
"9 	c #A55F00",
"0 	c #864C00",
"a 	c #562F00",
"b 	c #884D00",
"c 	c #AB6300",
"d 	c #B66900",
"e 	c #C77300",
"f 	c #442400",
"g 	c #794400",
"h 	c #593100",
"i 	c #2D1600",
"j 	c #9E5B00",
"k 	c #4F2B00",
"l 	c #B56800",
"m 	c #AC6300",
"n 	c #281300",
"o 	c #AA6200",
"p 	c #C87400",
"q 	c #C67300",
"r 	c #351B00",
"s 	c #4D2900",
"t 	c #CC7600",
"u 	c #B36700",
"v 	c #452500",
"w 	c #915300",
"x 	c #171312",
"y 	c #787878",
"z 	c #9F9F9F",
"A 	c #A2A2A2",
"B 	c #848484",
"C 	c #302F2E",
"D 	c #653800",
"E 	c #C06F00",
"F 	c #C97500",
"G 	c #734000",
"H 	c #3F3E3E",
"I 	c #BDBDBD",
"J 	c #F5F5F5",
"K 	c #FFFFFF",
"L 	c #FAFAFA",
"M 	c #CDCDCD",
"N 	c #605F5F",
"O 	c #391D00",
"P 	c #B56900",
"Q 	c #6F3E00",
"R 	c #7C7C7C",
"S 	c #F1F1F1",
"T 	c #9E9E9E",
"U 	c #B96B00",
"V 	c #7B7B7B",
"W 	c #F9F9F9",
"X 	c #A4A4A4",
"Y 	c #4B2800",
"Z 	c #403F3F",
"` 	c #FCFCFC",
" .	c #747373",
"..	c #724000",
"+.	c #C0C0C0",
"@.	c #CCCCCC",
"#.	c #9D9D9D",
"$.	c #8A8A8A",
"%.	c #ACACAC",
"&.	c #E2E2E2",
"*.	c #E0E0E0",
"=.	c #140700",
"-.	c #373535",
";.	c #F8F8F8",
">.	c #F0F0F0",
",.	c #6C6C6C",
"'.	c #A8A8A8",
").	c #FEFEFE",
"!.	c #7A7A7A",
"~.	c #9B5900",
"{.	c #959595",
"].	c #FBFBFB",
"^.	c #696969",
"/.	c #B5B5B5",
"(.	c #BEBEBE",
"_.	c #7A4500",
":.	c #CACACA",
"<.	c #252525",
"[.	c #D1D1D1",
"}.	c #8D8D8D",
"|.	c #B0B0B0",
"1.	c #1D0C00",
"2.	c #777777",
"3.	c #A0A0A0",
"4.	c #955500",
"5.	c #AD6400",
"6.	c #C6C6C6",
"7.	c #888888",
"8.	c #A6A6A6",
"9.	c #844B00",
"0.	c #774300",
"a.	c #261100",
"b.	c #C3C3C3",
"c.	c #151515",
"d.	c #B6B6B6",
"e.	c #532D00",
"f.	c #874C00",
"g.	c #A25D00",
"h.	c #C37100",
"i.	c #565555",
"j.	c #606060",
"k.	c #3E2000",
"l.	c #CA7500",
"m.	c #935400",
"n.	c #D5D5D5",
"o.	c #EBEBEB",
"p.	c #5E5E5E",
"q.	c #979797",
"r.	c #EDEDED",
"s.	c #1C1918",
"t.	c #744100",
"u.	c #C17000",
"v.	c #AE6400",
"w.	c #8C4F00",
"x.	c #6E6D6D",
"y.	c #C1C1C1",
"z.	c #8B8B8B",
"A.	c #9A9A9A",
"B.	c #D8D8D8",
"C.	c #A15C00",
"D.	c #663800",
"E.	c #572F00",
"F.	c #A35D00",
"G.	c #522C00",
"H.	c #9B5800",
"I.	c #5F3400",
"J.	c #AEAEAE",
"K.	c #CECECE",
"L.	c #211F1E",
"M.	c #311800",
"N.	c #8E5100",
"O.	c #B06500",
"P.	c #3F2100",
"Q.	c #838383",
"R.	c #E7E7E7",
"S.	c #F2F2F2",
"T.	c #A1A1A1",
"U.	c #200E00",
"V.	c #3C1F00",
"W.	c #7F7F7F",
"X.	c #B9B9B9",
"Y.	c #949494",
"Z.	c #201E1D",
"`.	c #B46800",
" +	c #BF6E00",
".+	c #5A3100",
"++	c #BD6D00",
"@+	c #8C5000",
"#+	c #935300",
"$+	c #8B4F00",
"%+	c #3B1E00",
"&+	c #5E3400",
"*+	c #BA6B00",
"=+	c #A35E00",
"-+	c #C97400",
";+	c #B86A00",
">+	c #231000",
",+	c #C47100",
"'+	c #9D5A00",
")+	c #2B1400",
"!+	c #AB6200",
"~+	c #7D4600",
"{+	c #814900",
"]+	c #A96100",
"^+	c #B76A00",
"/+	c #754100",
"(+	c #683A00",
"_+	c #7A4400",
"                                                                                                                                ",
"                                                                                                                                ",
"                                                                                                                                ",
"                                                                                                                                ",
"                                                                                                                                ",
"                                                .               +             @                                                 ",
"                                                # $ %         & * =         - ; >                                               ",
"                                                , ' )         ! ' ~       = { ]                                                 ",
"                                                ^ ' ' /     ( ' ' _       : ' <                                                 ",
"                                                [ ' ' } |   1 ' ' 2     & ' ' 3                                                 ",
"                                                4 ] ' ' 5   6 ' ' 7     8 ' ' 9                                                 ",
"                                                  0 ' ' a   b ' ' c   d ' ' * |                                                 ",
"                                                  e f ' ' | b ' ] |   _ ' ' g                                                   ",
"                                                    9 ' ' ) h ; i 0 j k ' ' l                                                   ",
"                                                  m n ; ; ; ; ; ; ; ; ; ; i o p                                                 ",
"                                                q r ; ; ; ; ; ; ; ; ; ; ; ; ; s t                                               ",
"                                                u ; ; ; ' ' ' ' ' ' ' ' ' ; ; v %                                               ",
"                                              t w ; ; ; ' x y z A B C ' ' ' ' D E                                               ",
"                                            F G ' ' ' H I J K K K K L M N ' ' ' O P                                             ",
"                                          % Q ' ' ' R S K K K K K K K K L T ' ' ' } U                                           ",
"                                          6 ' ' ' V W K K K K K K K K K K K X ' ' ' Y e                                         ",
"                                        U ] ' ' Z S K K K K K K K K K K K K `  .' ' ' 0                                         ",
"                                        ..' ' ' +.K K K K K K K ` @.#.$.%.&.K *.' ' ' =.(                                       ",
"                                      E ' ' ' -.;.K K K K K K >.,.; ; ; ; ; '.).!.' ' ' 6                                       ",
"                                      ~.' ' ' {.K K K K K K ].^.; ; ; ; ; ; ; /.(.' ' ' k                                       ",
"                                      _.' ' ' (.K K K K K K :.; ; ; ; ' ; ; ; <.[.' ' ' =.q                                     ",
"                                    u } ' ' ' @.K K K K K K }.; ; ; ' ' ' ; ; ; |.' ' ' 1.u                                     ",
"                                  t s ; ; ' ' M K K K K K K 2.; ; ' ' ' ' ' ; ; 3.' ' ; ; =.4.                                  ",
"                                  5.; ; ; ' ' 6.K K K K K K 7.; ; ; ' ' ' ' ; ; 8.' ' ; ' ; ; 9.                                ",
"                                  0.; a.' ' ' X K K K K K K b.; ; ; ; ' ; ; ; c.d.' ' ; e.f.; ; g.                              ",
"                                h.] ; : ' ' ' i.).K K K K K W j.; ; ; ; ; ; ; %.{.' ' ' e.F _.; k.l.                            ",
"                                m.; < l ] ' ' ' n.K K K K K K o.p.; ; ; ; ; q.r.s.' ' ' t.> u.' ; v.                            ",
"                              w.; ; w > < ' ' ' x.].K K K K K K W y.z.R A.B.K #.' ' ' ] C.    D.; 4.                            ",
"                              E.; ; 9   F.' ' ' ' '.K K K K K K K K K K K K @.' ' ' ' G.|     H.; I.                            ",
"                              t.; n h.  > ! ' ' ' ' J.).K K K K K K K K K K.L.' ' ' M.P       4 ; ; N.                          ",
"                              u._ O.      u.P.' ' ' ' Q.R.K K K K K K S.T.' ' ' ' * 9         q * ; U.                          ",
"                                            U V.' ' ' ' ' W.X.@.M y.Y.Z.' ' ' ' ' m.          `.; ; <                           ",
"                                               +.+' ' ; ' ' ' ' ' ' ' ' ' ; ' } g.            ++; ; @+                          ",
"                                                l.@+; ; ; ' ' ' ' ' ' ' ; { #+=                 0 I.4                           ",
"                                              > m < ; , $+) G.] 1.k.; %+&+l                                                     ",
"                                          *+=+h ; ; v .     -+;+;+l ; 0.|                                                       ",
"                                        g.; ; ; >+9.,+            & ; 9.                                                        ",
"                                        '+; )+_ =                 '+; 6                                                         ",
"                                        = ] U.|                   f.; C.                                                        ",
"                                          _ ; !+                  ~+; E.{+b C. +                                                ",
"                                          l.]+l.                  j ; ; ; ; ; ; ^+                                              ",
"                                                                    c f./+(+_+_ e                                               ",
"                                                                                                                                ",
"                                                                                                                                ",
"                                                                                                                                ",
"                                                                                                                                ",
"                                                                                                                                ",
"                                                                                                                                ",
"                                                                                                                                ",
"                                                                                                                                ",
"                                                                                                                                ",
"                                                                                                                                ",
"                                                                                                                                ",
"                                                                                                                                ",
"                                                                                                                                ",
"                                                                                                                                ",
"                                                                                                                                ",
"                                                                                                                                ",
"                                                                                                                                "};
