/* XPM */
static char * u1_xpm[] = {
"64 64 136 2",
"  	c #CD7700",
". 	c #C57200",
"+ 	c #CA7500",
"@ 	c #734000",
"# 	c #A25D00",
"$ 	c #CC7600",
"% 	c #5C3300",
"& 	c #B66900",
"* 	c #784400",
"= 	c #A15C00",
"- 	c #080200",
"; 	c #9F5B00",
"> 	c #A45E00",
", 	c #844B00",
"' 	c #9B5800",
") 	c #613500",
"! 	c #AF6500",
"~ 	c #623600",
"{ 	c #5D3300",
"] 	c #C27000",
"^ 	c #2F1700",
"/ 	c #442400",
"( 	c #C87400",
"_ 	c #C47100",
": 	c #3E2000",
"< 	c #7D4600",
"[ 	c #B96B00",
"} 	c #B06600",
"| 	c #995800",
"1 	c #B36700",
"2 	c #572F00",
"3 	c #B86A00",
"4 	c #371C00",
"5 	c #CC7700",
"6 	c #4F2B00",
"7 	c #754100",
"8 	c #794400",
"9 	c #7E4700",
"0 	c #140700",
"a 	c #BE6E00",
"b 	c #A35E00",
"c 	c #0F0500",
"d 	c #975600",
"e 	c #AE6400",
"f 	c #905200",
"g 	c #A66000",
"h 	c #A05C00",
"i 	c #AA6200",
"j 	c #4C2900",
"k 	c #CB7600",
"l 	c #965600",
"m 	c #000000",
"n 	c #200E00",
"o 	c #3C1F00",
"p 	c #A05B00",
"q 	c #874D00",
"r 	c #864C00",
"s 	c #C06F00",
"t 	c #955500",
"u 	c #281300",
"v 	c #BB6C00",
"w 	c #673900",
"x 	c #C37100",
"y 	c #BA6C00",
"z 	c #492700",
"A 	c #C17000",
"B 	c #422300",
"C 	c #4E2A00",
"D 	c #764200",
"E 	c #A35D00",
"F 	c #AC6300",
"G 	c #5E3400",
"H 	c #B06500",
"I 	c #8B4F00",
"J 	c #643700",
"K 	c #734100",
"L 	c #3B1E00",
"M 	c #5B3200",
"N 	c #C77300",
"O 	c #915200",
"P 	c #311800",
"Q 	c #482600",
"R 	c #2B1400",
"S 	c #512B00",
"T 	c #472500",
"U 	c #231000",
"V 	c #B16600",
"W 	c #B76900",
"X 	c #261100",
"Y 	c #BD6D00",
"Z 	c #854B00",
"` 	c #915300",
" .	c #713F00",
"..	c #351B00",
"+.	c #4D2900",
"@.	c #B46800",
"#.	c #965500",
"$.	c #8D5000",
"%.	c #3F2100",
"&.	c #522C00",
"*.	c #583000",
"=.	c #C47200",
"-.	c #935300",
";.	c #9B5900",
">.	c #894E00",
",.	c #995700",
"'.	c #663900",
").	c #603500",
"!.	c #BC6C00",
"~.	c #2D1600",
"{.	c #B26700",
"].	c #331A00",
"^.	c #B76A00",
"/.	c #C97400",
"(.	c #A55F00",
"_.	c #BF6E00",
":.	c #A96100",
"<.	c #824A00",
"[.	c #C67300",
"}.	c #1D0C00",
"|.	c #8C4F00",
"1.	c #A76000",
"2.	c #804800",
"3.	c #8F5100",
"4.	c #9E5A00",
"5.	c #A65F00",
"6.	c #884D00",
"7.	c #AB6200",
"8.	c #BF6F00",
"9.	c #9C5900",
"0.	c #7F4700",
"a.	c #985700",
"b.	c #874C00",
"c.	c #925300",
"d.	c #452500",
"e.	c #BC6D00",
"                                                                                                                                ",
"                                                                                                                                ",
"                                                                                                                                ",
"                                                                                                                                ",
"                                                                .             + +                                               ",
"                                                @ #           $ % &           * =                                               ",
"                                                % - ;         > - ,         = - '                                               ",
"                                                ) - - !       ~ - {       ] ^ - >                                               ",
"                                                , - - / (   _ - - :       < - - [                                               ",
"                                                } - - - |   1 - - 2     3 - - 4 5                                               ",
"                                                  ~ - - 6   > - - 7     8 - - 9                                                 ",
"                                                  [ 0 - - a b c - d   _ c - - e                                                 ",
"                                                    f - - g h - - i 5 b - - j $                                                 ",
"                                                  k l m m m m m m m n o - - p                                                   ",
"                                                  q m m m m m m m m m m m m o r .                                               ",
"                                                s - m m m - - - - - m m m m m m t                                               ",
"                                                a m m m - - m m m - - - - - - u v                                               ",
"                                              s % - m m m m m m m m m m m m - - w x                                             ",
"                                            y : - - m m m m m m m m m m m m m m - z s                                           ",
"                                          A B - - m m m m m m m m m m m m m m m m - C .                                         ",
"                                        5 w - - - m m m m m m m m m m m m m m m m - - D                                         ",
"                                        E - - - m m m m m m m m m m m m m m m m m - - - F                                       ",
"                                      $ j - - m m m m m m m m m m m m m m m m m m m - - G                                       ",
"                                      H - - - m m m m m m m m m m m m m m m m m m m - - - 3                                     ",
"                                      I - - m m m m m m m m m m m m m m m m m m m m - - - t                                     ",
"                                      J - - m m m m m m m m m m m m m m m m m m m m m - - K                                     ",
"                                      L - - m m m m m m m m m m m m m m m m m m m m - - - M                                     ",
"                                  N O c - - m m m m m m m m m m m m m m m m m m m m - - m P p +                                 ",
"                                3 Q m m m - m m m m m m m m m m m - m m m m m m m m - m m m m C &                               ",
"                              } u m R L - - m m m m m m m m m - - - m m m m m m m m - - - S T m U V                             ",
"                            W X m 6 Y Z - - - m m m m m m m - - - - - m m m m m m - - - - ` N  .m ...                           ",
"                          ( Q m +.x   F - - - m m m m m m m m - - - - m m m m m m - - - - @.  + 2 m #.                          ",
"                          $.m n v     + %.- - m m m m m m m m m - m m m m m m m - - - - &.      # m *.                          ",
"                        =.U m -.        ;.- - m m m m m m m m m m m m m m m m m - - - - >       ] m m >.                        ",
"                        ,.m P N         + 2 - - m m m m m m m m m m m m m m m - - - - '.5       ,.m m m s                       ",
"                        ).m r             !.~.- m m m m m m m m m m m m m m - - - - o A         *.m m C k                       ",
"                      N c m {.              {.u - - m m m m m m m m m m - - - - - ].^.          2 m P 3                         ",
"                    /.2 m m (.                W Q - - - - - - - - - - - - - - - S !.            [ t _.                          ",
"                    :.m m m <.                  [., 0 - - - - - - - - - - - }.|.(                                               ",
"                    1.m m m (.                      a 2.m m - - 0 m m - Q 3.A                                                   ",
"                    ( G - r 5                         } m D 1.4.d n 0 a                                                         ",
"                        +                             i m r       ~.-                                                           ",
"                                                      5.m 6.    $ - 0                                                           ",
"                                                      = m f     ] m z                                                           ",
"                                                  k :.t m '     [ m )                                                           ",
"                                                  7.m 0 m ;     F m  .                                                          ",
"                                                  8.- m m 9.    E m 0.                                                          ",
"                                                    0.m m O     4.m ,                                                           ",
"                                                    x o m 7     a.m b.                                                          ",
"                                                      @.%.|.    ' m r i a                                                       ",
"                                                                ,.m X m r                                                       ",
"                                                                c.m m : s                                                       ",
"                                                                2.m d.e.                                                        ",
"                                                                E @ A                                                           ",
"                                                                                                                                ",
"                                                                                                                                ",
"                                                                                                                                ",
"                                                                                                                                ",
"                                                                                                                                ",
"                                                                                                                                ",
"                                                                                                                                ",
"                                                                                                                                ",
"                                                                                                                                ",
"                                                                                                                                "};
