/* XPM */
static char * player_xpm[] = {
"64 64 43 1",
" 	c #CD7700",
".	c #000000",
"+	c #613500",
"@	c #965500",
"#	c #BA6B00",
"$	c #B46800",
"%	c #A35D00",
"&	c #B26600",
"*	c #5C3300",
"=	c #6D3D00",
"-	c #8F5100",
";	c #492700",
">	c #4D2900",
",	c #6C3C00",
"'	c #CB7600",
")	c #AB6200",
"!	c #BC6D00",
"~	c #945400",
"{	c #572F00",
"]	c #844B00",
"^	c #3B1E00",
"/	c #5E3400",
"(	c #894E00",
"_	c #7D4600",
":	c #955500",
"<	c #452500",
"[	c #623600",
"}	c #754100",
"|	c #A96100",
"1	c #874D00",
"2	c #190A00",
"3	c #2D1600",
"4	c #200E00",
"5	c #4C2900",
"6	c #1D0C00",
"7	c #864C00",
"8	c #2B1400",
"9	c #C47100",
"0	c #764200",
"a	c #884D00",
"b	c #3C1F00",
"c	c #774300",
"d	c #2F1700",
"                                                                ",
"                                                                ",
"                                                                ",
"                                                                ",
"                                                                ",
"                                                                ",
"                                                                ",
"                                                                ",
"                                                                ",
"                                                                ",
"                                                                ",
"                                                                ",
"                                                                ",
"                                                                ",
"                                                                ",
"                                                                ",
"                                                                ",
"                                                                ",
"                                                                ",
"                                                                ",
"                                                                ",
"                                                                ",
"                                                                ",
"    .++++++@                                                    ",
"   . ######@                                                    ",
"   .       +# $$                                                ",
"   .      @.  $$           %%                                   ",
"   .    #+@   +#    #+     &*                                   ",
" @@.@@=.+#    +#    -.@     @@                                  ",
" @@.@@=      @@     ;>,@    #+    $$   ')#@@      !'            ",
"   .         @@     .~{{     +#   ]]   !^./(.@    _:@           ",
"   .         +#     .#<[@    #+  #+    +# !' @    *~@+          ",
"   @@        .     =.&}}*     +# @@   @@          +# |+         ",
"   @@       @@     12345.      +1@    .           +#  +#        ",
"   @@       @@     67!  .      #8#    .9#######   +|@ +#        ",
"    .       @@##  #.    .      @@    @0%+++++++   +{a+          ",
"    +#      @@++  ].     +     +#    @@           +#+           ",
"    bc            $$     .    #+     +#           +#a@          ",
"    $$                   .    +#    #+            +# @@         ",
"                             #+     #+++++++.     +#  .         ",
"                             .        ######      +#  d=        ",
"                            @@                    <a  #         ",
"                           @<                     8|            ",
"                           .#                     +#            ",
"                                                                ",
"                                                                ",
"                                                                ",
"                                                                ",
"                                                                ",
"                                                                ",
"                                                                ",
"                                                                ",
"                                                                ",
"                                                                ",
"                                                                ",
"                                                                ",
"                                                                ",
"                                                                ",
"                                                                ",
"                                                                ",
"                                                                ",
"                                                                ",
"                                                                ",
"                                                                "};
