/* XPM */
static char * u2_xpm[] = {
"64 64 135 2",
"  	c #CD7700",
". 	c #CC7700",
"+ 	c #C57200",
"@ 	c #B86A00",
"# 	c #C97500",
"$ 	c #C06F00",
"% 	c #B16600",
"& 	c #412200",
"* 	c #B96B00",
"= 	c #C17000",
"- 	c #2B1400",
"; 	c #BA6B00",
"> 	c #7D4700",
", 	c #7E4700",
"' 	c #A55F00",
") 	c #080200",
"! 	c #351B00",
"~ 	c #BA6C00",
"{ 	c #834A00",
"] 	c #8F5100",
"^ 	c #A65F00",
"/ 	c #AD6300",
"( 	c #492700",
"_ 	c #C67300",
": 	c #C77300",
"< 	c #231000",
"[ 	c #6D3D00",
"} 	c #371C00",
"| 	c #8B4F00",
"1 	c #C27000",
"2 	c #623600",
"3 	c #844B00",
"4 	c #663900",
"5 	c #0F0500",
"6 	c #BE6E00",
"7 	c #975600",
"8 	c #663800",
"9 	c #BC6D00",
"0 	c #AF6400",
"a 	c #915300",
"b 	c #874D00",
"c 	c #814900",
"d 	c #572F00",
"e 	c #764200",
"f 	c #593100",
"g 	c #864C00",
"h 	c #A25D00",
"i 	c #200E00",
"j 	c #331A00",
"k 	c #C97400",
"l 	c #884D00",
"m 	c #A76000",
"n 	c #1D0C00",
"o 	c #C37100",
"p 	c #C87400",
"q 	c #774300",
"r 	c #4E2A00",
"s 	c #261100",
"t 	c #000000",
"u 	c #281300",
"v 	c #562F00",
"w 	c #824A00",
"x 	c #5A3100",
"y 	c #5E3400",
"z 	c #A05B00",
"A 	c #955500",
"B 	c #794400",
"C 	c #925300",
"D 	c #583000",
"E 	c #CA7500",
"F 	c #B06600",
"G 	c #2F1700",
"H 	c #B26700",
"I 	c #5F3400",
"J 	c #784300",
"K 	c #AE6400",
"L 	c #472500",
"M 	c #6B3B00",
"N 	c #703F00",
"O 	c #CB7600",
"P 	c #8C4F00",
"Q 	c #BB6C00",
"R 	c #B46800",
"S 	c #B76A00",
"T 	c #442400",
"U 	c #6F3E00",
"V 	c #190A00",
"W 	c #5B3200",
"X 	c #140700",
"Y 	c #673900",
"Z 	c #3B1E00",
"` 	c #B56800",
" .	c #AC6300",
"..	c #AA6100",
"+.	c #A35E00",
"@.	c #4D2900",
"#.	c #311800",
"$.	c #7F4700",
"%.	c #7C4600",
"&.	c #AD6400",
"*.	c #7F4800",
"=.	c #713F00",
"-.	c #653800",
";.	c #AB6200",
">.	c #613500",
",.	c #894E00",
"'.	c #A15C00",
").	c #A45E00",
"!.	c #532D00",
"~.	c #4C2900",
"{.	c #9E5B00",
"].	c #5C3300",
"^.	c #8E5100",
"/.	c #452500",
"(.	c #804800",
"_.	c #482600",
":.	c #9A5800",
"<.	c #633700",
"[.	c #BF6E00",
"}.	c #6B3C00",
"|.	c #542D00",
"1.	c #B06500",
"2.	c #2D1600",
"3.	c #BF6F00",
"4.	c #AF6500",
"5.	c #905200",
"6.	c #A35D00",
"7.	c #874C00",
"8.	c #744100",
"9.	c #9C5900",
"0.	c #9D5A00",
"a.	c #9F5B00",
"b.	c #AB6300",
"c.	c #3E2000",
"d.	c #9E5A00",
"                                                                                                                                ",
"                                                                                                                                ",
"                                                                                                                                ",
"                                              . +               @             # $                                               ",
"                                              % & *           = - ;           > ,                                               ",
"                                              ' ) ! ~         { ) ]         ^ ) ,                                               ",
"                                              / ) ) ( _     : < ) [       + } ) |                                               ",
"                                              1 ) ) ) {     / ) ) 2       3 ) ) '                                               ",
"                                                4 ) ) 5 6   7 ) ) 8     9 5 ) ) =                                               ",
"                                                0 ) ) ) a   b ) ) 3     c ) ) d                                                 ",
"                                                  e ) ) f   g ) ) h   _ i ) ) 7                                                 ",
"                                                  1 j ) ) k l ) ) $   m ) ) n o                                                 ",
"                                                  p q ) ) r s t t u 2 v ) ) w                                                   ",
"                                                k x t t t t t t t t t t t t y z p                                               ",
"                                                A t t t t ) t t t t t t t t t t c                                               ",
"                                                B t t t ) ) ) ) ) ) ) ) ) ) t t C                                               ",
"                                              9 D t t t t t t t t t t t t t ) ) | E                                             ",
"                                            F G ) ) t t t t t t t t t t t t t t ) 8 _                                           ",
"                                          H < ) ) t t t t t t t t t t t t t t t t ) I p                                         ",
"                                        $ ! ) ) ) t t t t t t t t t t t t t t t t ) ) J                                         ",
"                                        [ ) ) ) t t t t t t t t t t t t t t t t t ) ) ) ^                                       ",
"                                      K ) ) ) t t t t t t t t t t t t t t t t t t t ) ) L E                                     ",
"                                      M ) ) t t t t t t t t t t t t t t t t t t t t ) ) ) '                                     ",
"                                    1 ) ) ) t t t t t t t t t t t t t t t t t t t t ) ) ) N                                     ",
"                                    ' ) ) ) t t t t t t t t t t t t t t t t t t t t t ) ) < O                                   ",
"                                    P ) ) ) t t t t t t t t t t t t t t t t t t t t t ) ) ) Q                                   ",
"                                    , ) ) ) t t t t t t t t t t t t t t t t t t t t t ) ) ) R                                   ",
"                                + { s t ) ) t t t t t t t t t t t t t t t t t t t t ) ) t t B #                                 ",
"                              S T t t t ) ) t t t t t t t t t t t ) t t t t t t t t ) ) t t t U k                               ",
"                            % u t V W ) ) ) t t t t t t t t t ) ) ) t t t t t t t t ) ) ) 5 X t Y O                             ",
"                          @ u t Z `  .) ) ) t t t t t t t t ) ) ) ) t t t t t t t t ) ) ) Z ..5 t +.                            ",
"                        k @.t #.Q   p s ) ) ) t t t t t t t ) ) ) ) t t t t t t t ) ) ) ) $.  %.t 4                             ",
"                      p l t t &.      *.) ) ) t t t t t t t t t ) t t t t t t t t ) ) ) ) H    .t ) 1                           ",
"                    E W t t =.        Q 5 ) ) t t t t t t t t t t t t t t t t t ) ) ) ) -.    : t t ;.                          ",
"                    ;.t t t >.          ,.) ) t t t t t t t t t t t t t t t t ) ) ) ) V @     O t t '                           ",
"                    '.t t t g           # W ) t t t t t t t t t t t t t t t ) ) ) ) ) 7       O t t ).                          ",
"                    o !.t 8 +             = ~.) ) ) t t t t t t t t t t t ) ) ) ) ) 3           i t {.                          ",
"                      . +                   = ].) ) ) ) ) ) ) t t t ) ) ) ) ) ) ) ^.            G t 7                           ",
"                                              # P V ) ) ) ) ) ) ) ) ) ) ) ) ) /./             6 n t #.:                         ",
"                                                  9 (.s t ) ) ) ) t t ) ) _.:.p               <.t t t [.                        ",
"                                                      3 t }.}.W |.t < A R .                 $ t t t c                           ",
"                                                      y t 1.    p t 2.                      E r t Y p                           ",
"                                                    . i t Q     + t s                         p ~ .                             ",
"                                                    $ t t _     ; t _.  3.a H                                                   ",
"                                                    % t 2.      4.t f 5.n t v                                                   ",
"                                                    {.t W       6.t t t t 2.).                                                  ",
"                                                    7.t 8.      9.t t t 2 3.                                                    ",
"                                                = # [ t |       | t ) 5.O                                                       ",
"                                              @ X 2 ~.t 0.      ).< a.                                                          ",
"                                              b.t t t t F         .                                                             ",
"                                              o t t t t o                                                                       ",
"                                                ~.t t 5                                                                         ",
"                                                g t t c.                                                                        ",
"                                                S ) t g                                                                         ",
"                                                  1.d.O                                                                         ",
"                                                                                                                                ",
"                                                                                                                                ",
"                                                                                                                                ",
"                                                                                                                                ",
"                                                                                                                                ",
"                                                                                                                                ",
"                                                                                                                                ",
"                                                                                                                                ",
"                                                                                                                                "};
