/* XPM */
static char * coin_xpm[] = {
"64 64 129 2",
"  	c #CD7700",
". 	c #CD7800",
"+ 	c #CD7900",
"@ 	c #CE7900",
"# 	c #CE7A00",
"$ 	c #CE7B00",
"% 	c #CE7C00",
"& 	c #CF7D00",
"* 	c #CF7E00",
"= 	c #CF7F00",
"- 	c #CF8000",
"; 	c #D08000",
"> 	c #D08100",
", 	c #D08200",
"' 	c #D18300",
") 	c #D18400",
"! 	c #D18500",
"~ 	c #D28700",
"{ 	c #D28800",
"] 	c #D38900",
"^ 	c #D38B00",
"/ 	c #D38C00",
"( 	c #D48D00",
"_ 	c #D48E00",
": 	c #D28900",
"< 	c #D58F00",
"[ 	c #D59100",
"} 	c #D69200",
"| 	c #D69400",
"1 	c #D48F00",
"2 	c #D79500",
"3 	c #D79700",
"4 	c #D89800",
"5 	c #D89A00",
"6 	c #D59200",
"7 	c #D89900",
"8 	c #D99B00",
"9 	c #D99D00",
"0 	c #DA9E00",
"a 	c #DA9F00",
"b 	c #DBA000",
"c 	c #D38A00",
"d 	c #D59000",
"e 	c #D69300",
"f 	c #D79600",
"g 	c #D99C00",
"h 	c #DBA100",
"i 	c #DCA300",
"j 	c #DCA400",
"k 	c #DDA600",
"l 	c #DDA700",
"m 	c #DEAA00",
"n 	c #DFAC00",
"o 	c #E0AD00",
"p 	c #D28600",
"q 	c #DFAB00",
"r 	c #E1B000",
"s 	c #E2B300",
"t 	c #E3B400",
"u 	c #DA9D00",
"v 	c #DBA200",
"w 	c #DDA500",
"x 	c #E1B100",
"y 	c #E4B600",
"z 	c #E5B900",
"A 	c #E5BA00",
"B 	c #E6BC00",
"C 	c #E2B400",
"D 	c #E4B700",
"E 	c #E6BB00",
"F 	c #E7BE00",
"G 	c #E8C000",
"H 	c #E8C200",
"I 	c #E9C300",
"J 	c #E3B500",
"K 	c #EAC600",
"L 	c #EBC700",
"M 	c #ECC900",
"N 	c #ECCB00",
"O 	c #E7BF00",
"P 	c #EAC500",
"Q 	c #EBC800",
"R 	c #EDCB00",
"S 	c #EECE00",
"T 	c #EFD000",
"U 	c #EFD100",
"V 	c #DEA800",
"W 	c #E0AF00",
"X 	c #ECCA00",
"Y 	c #F1D400",
"Z 	c #F2D600",
"` 	c #F2D700",
" .	c #E4B800",
"..	c #EFCF00",
"+.	c #F1D300",
"@.	c #F3D900",
"#.	c #F4DB00",
"$.	c #F5DC00",
"%.	c #DEA900",
"&.	c #F3D700",
"*.	c #F4DA00",
"=.	c #F6DD00",
"-.	c #F6DF00",
";.	c #F7E100",
">.	c #E2B200",
",.	c #EDCD00",
"'.	c #F0D200",
").	c #F6DE00",
"!.	c #F8E300",
"~.	c #F9E500",
"{.	c #E0AE00",
"].	c #FAE700",
"^.	c #FBE800",
"/.	c #FBE900",
"(.	c #E6BD00",
"_.	c #EDCC00",
":.	c #F3D800",
"<.	c #F7E000",
"[.	c #F9E400",
"}.	c #FCEA00",
"|.	c #FCEB00",
"1.	c #FDEC00",
"2.	c #EBC600",
"3.	c #EECD00",
"4.	c #F8E200",
"5.	c #FAE600",
"6.	c #FDED00",
"7.	c #FEEE00",
"8.	c #FFEF00",
"                                                                                                                                ",
"                                                                                                                                ",
"                                                                                                                                ",
"                                                                                                                                ",
"                                                      . . . . . . . . . . .                                                     ",
"                                                . . . + + + @ @ @ @ @ + + + . . .                                               ",
"                                          . . . + @ @ # $ $ $ $ $ $ $ $ $ # @ @ + . . .                                         ",
"                                      . . + + @ # $ % & & & * * * * * & & & % $ # @ + + . .                                     ",
"                                    . + + # $ % & & = - - ; > > > > > ; - - = & & % $ # + + .                                   ",
"                                . . + @ $ % & * - ; , ' ' ) ! ! ! ! ! ) ' ' , ; - * & % $ @ + . .                               ",
"                              . + + # % & * - > ' ) ! ~ ~ { ] ] ] ] ] { ~ ~ ! ) ' > - * & % # + + .                             ",
"                            . + @ # % & = > ' ! ~ { ] ^ / ( _ _ _ _ _ ( / ^ ] { ~ ! ' > = & % # @ + .                           ",
"                          . + @ $ % * - , ! ~ : ^ / _ < [ } | | | | | } [ < _ / ^ : ~ ! , - * % $ @ + .                         ",
"                        . + @ $ & * > ' ! ~ ^ ( 1 [ | 2 3 4 5 5 5 5 5 4 3 2 | [ 1 ( ^ ~ ! ' > * & $ @ + .                       ",
"                        . @ # & * > ' ~ : / 1 6 | 3 7 8 9 0 a b b b a 0 9 8 7 3 | 6 1 / : ~ ' > * & # @ .                       ",
"                      . + # % * > ' ~ c / d e f 5 g 0 h i j j k k k j j i h 0 g 5 f e d / c ~ ' > * % # + .                     ",
"                    . + # % * ; ' ~ c ( d | 3 8 a h j l m n n o o o n n m l j h a 8 3 | d ( c ~ ' ; * % # + .                   ",
"                    . @ $ & - , p ] ( d | 7 9 h j l q o r s s t t t s s r o q l j h 9 7 | d ( ] p , - & $ @ .                   ",
"                  . + # & = , ! { / d | 7 u v w m o x t y z A B B B A z y t x o m w v u 7 | d / { ! , = & # + .                 ",
"                  . @ $ * ; ) ~ ^ < | 4 u v k q r C D E F G H I I I H G F E D C r q k v u 4 | < ^ ~ ) ; * $ @ .                 ",
"                . + # & = , p ] _ } 3 g h k q r J z F H K L M N N N M L K H F z J r q k h g 3 } _ ] p , = & # + .               ",
"                . @ $ & ; ) ~ ^ d 2 5 a j q r J E O P Q R S T U U U T S R Q P O E J r q j a 5 2 d ^ ~ ) ; & $ @ .               ",
"                . @ % * , ! ] ( } 4 u i V W t A G P X S U Y Z ` ` ` Z Y U S X P G A t W V i u 4 } ( ] ! , * % @ .               ",
"              . + # & - , ~ ^ < 2 5 a k q s  .O P X ..+.Z @.#.$.$.$.#.@.Z +...X P O  .s q k a 5 2 < ^ ~ , - & # + .             ",
"              . + $ & ; ) ~ / 6 3 9 i %.W y B I M ..+.&.*.=.-.;.;.;.-.=.*.&.+...M I B y W %.i 9 3 6 / ~ ) ; & $ + .             ",
"              . @ % * > ! : ( e 7 a w q >.z G L ,.'.` #.).;.!.~.~.~.!.;.).#.` '.,.L G z >.q w a 7 e ( : ! > * % @ .             ",
"              . @ % = , ! c 1 | 5 h l {.t E I X T Z *.).;.~.].^./.^.].~.;.).*.Z T X I E t {.l h 5 | 1 c ! , = % @ .             ",
"              . @ % = , ~ ^ d f 8 h V W y (.P _.'.:.$.<.[.].}.|.1.|.}.].[.<.$.:.'._.P (.y W V h 8 f d ^ ~ , = % @ .             ",
"              + # & - ' ~ ^ [ 3 9 v %.r D O 2.3.+.@.).4.5./.1.6.7.6.1./.5.4.).@.+.3.2.O D r %.v 9 3 [ ^ ~ ' - & # +             ",
"              + # & - ' ~ ^ [ 3 9 i m x  .G L S Y *.).!.].}.6.7.8.7.6.}.].!.).*.Y S L G  .x m i 9 3 [ ^ ~ ' - & # +             ",
"              + # & - ' ~ ^ [ 3 9 i m x  .G L S Y *.).!.].}.6.7.8.7.6.}.].!.).*.Y S L G  .x m i 9 3 [ ^ ~ ' - & # +             ",
"              + # & - ' ~ ^ [ 3 9 v %.r D O 2.3.+.@.).4.5./.1.6.7.6.1./.5.4.).@.+.3.2.O D r %.v 9 3 [ ^ ~ ' - & # +             ",
"              . @ % = , ~ ^ d f 8 h V W y (.P _.'.:.$.<.[.].}.|.1.|.}.].[.<.$.:.'._.P (.y W V h 8 f d ^ ~ , = % @ .             ",
"              . @ % = , ! c 1 | 5 h l {.t E I X T Z *.).;.~.].^./.^.].~.;.).*.Z T X I E t {.l h 5 | 1 c ! , = % @ .             ",
"              . @ % * > ! : ( e 7 a w q >.z G L ,.'.` #.).;.!.~.~.~.!.;.).#.` '.,.L G z >.q w a 7 e ( : ! > * % @ .             ",
"              . + $ & ; ) ~ / 6 3 9 i %.W y B I M ..+.&.*.=.-.;.;.;.-.=.*.&.+...M I B y W %.i 9 3 6 / ~ ) ; & $ + .             ",
"              . + # & - , ~ ^ < 2 5 a k q s  .O P X ..+.Z @.#.$.$.$.#.@.Z +...X P O  .s q k a 5 2 < ^ ~ , - & # + .             ",
"                . @ % * , ! ] ( } 4 u i V W t A G P X S U Y Z ` ` ` Z Y U S X P G A t W V i u 4 } ( ] ! , * % @ .               ",
"                . @ $ & ; ) ~ ^ d 2 5 a j q r J E O P Q R S T U U U T S R Q P O E J r q j a 5 2 d ^ ~ ) ; & $ @ .               ",
"                . + # & = , p ] _ } 3 g h k q r J z F H K L M N N N M L K H F z J r q k h g 3 } _ ] p , = & # + .               ",
"                  . @ $ * ; ) ~ ^ < | 4 u v k q r C D E F G H I I I H G F E D C r q k v u 4 | < ^ ~ ) ; * $ @ .                 ",
"                  . + # & = , ! { / d | 7 u v w m o x t y z A B B B A z y t x o m w v u 7 | d / { ! , = & # + .                 ",
"                    . @ $ & - , p ] ( d | 7 9 h j l q o r s s t t t s s r o q l j h 9 7 | d ( ] p , - & $ @ .                   ",
"                    . + # % * ; ' ~ c ( d | 3 8 a h j l m n n o o o n n m l j h a 8 3 | d ( c ~ ' ; * % # + .                   ",
"                      . + # % * > ' ~ c / d e f 5 g 0 h i j j k k k j j i h 0 g 5 f e d / c ~ ' > * % # + .                     ",
"                        . @ # & * > ' ~ : / 1 6 | 3 7 8 9 0 a b b b a 0 9 8 7 3 | 6 1 / : ~ ' > * & # @ .                       ",
"                        . + @ $ & * > ' ! ~ ^ ( 1 [ | 2 3 4 5 5 5 5 5 4 3 2 | [ 1 ( ^ ~ ! ' > * & $ @ + .                       ",
"                          . + @ $ % * - , ! ~ : ^ / _ < [ } | | | | | } [ < _ / ^ : ~ ! , - * % $ @ + .                         ",
"                            . + @ # % & = > ' ! ~ { ] ^ / ( _ _ _ _ _ ( / ^ ] { ~ ! ' > = & % # @ + .                           ",
"                              . + + # % & * - > ' ) ! ~ ~ { ] ] ] ] ] { ~ ~ ! ) ' > - * & % # + + .                             ",
"                                . . + @ $ % & * - ; , ' ' ) ! ! ! ! ! ) ' ' , ; - * & % $ @ + . .                               ",
"                                    . + + # $ % & & = - - ; > > > > > ; - - = & & % $ # + + .                                   ",
"                                      . . + + @ # $ % & & & * * * * * & & & % $ # @ + + . .                                     ",
"                                          . . . + @ @ # $ $ $ $ $ $ $ $ $ # @ @ + . . .                                         ",
"                                                . . . + + + @ @ @ @ @ + + + . . .                                               ",
"                                                      . . . . . . . . . . .                                                     ",
"                                                                                                                                ",
"                                                                                                                                ",
"                                                                                                                                ",
"                                                                                                                                ",
"                                                                                                                                ",
"                                                                                                                                ",
"                                                                                                                                ",
"                                                                                                                                "};
