/* XPM */
static char * exit_green_xpm[] = {
"64 64 53 1",
" 	c None",
".	c #13D333",
"+	c #02D433",
"@	c #12D333",
"#	c #14D333",
"$	c #13BE2D",
"%	c #210707",
"&	c #1E0000",
"*	c #1E2303",
"=	c #1D3D08",
"-	c #1E1201",
";	c #1F0000",
">	c #1E0101",
",	c #1F0101",
"'	c #1F0202",
")	c #1B6213",
"!	c #17AA28",
"~	c #1A7C1A",
"{	c #1DAA28",
"]	c #210101",
"^	c #1EAA28",
"/	c #19861D",
"(	c #1CAA29",
"_	c #1B9923",
":	c #211B03",
"<	c #189221",
"[	c #23410A",
"}	c #02D333",
"|	c #169220",
"1	c #20490C",
"2	c #1B6E16",
"3	c #233508",
"4	c #1E3105",
"5	c #13AB28",
"6	c #207B1B",
"7	c #19A226",
"8	c #206D17",
"9	c #1D7017",
"0	c #1F7017",
"a	c #18A326",
"b	c #20510E",
"c	c #1B9823",
"d	c #1D5E12",
"e	c #1C9723",
"f	c #12A325",
"g	c #05D032",
"h	c #0AC02E",
"i	c #1F0B01",
"j	c #188E1F",
"k	c #14AF29",
"l	c #203F0B",
"m	c #05CC31",
"n	c #187A19",
"                                                                ",
"                                                                ",
"                                                                ",
"                                                                ",
"                                                                ",
"                                                                ",
"                                                                ",
"                                                                ",
"                                                                ",
"                                                                ",
"                                                                ",
"                             .+@                                ",
"                             #++                                ",
"                              $                                 ",
"                              %                                 ",
"                              &                                 ",
"                              *                                 ",
"                              =                                 ",
"                              -                                 ",
"                              &                                 ",
"                              &                                 ",
"                              ;&                                ",
"                            >&&&&                               ",
"                             &&&                                ",
"                              &&                                ",
"                             &&>                                ",
"                             ,&>                                ",
"                             &&&                                ",
"                             &&&                                ",
"                             '&&                                ",
"                             &&&                                ",
"                          &&&&&&&&&&                            ",
"                         &&&&&&&&&&&                            ",
"                         &&&&;;;&&&&                            ",
"                          &&&)!~&&&                             ",
"                       &&&&&&{]^,&&&&&                          ",
"                       &&&&&;/(_,&&&&&                          ",
"                         &&&&;,,&&&&                            ",
"                          &&&&&&&&&                             ",
"                          '&&&&&&>,                             ",
"                           >&&&&&&                              ",
"                           &&&&&&&                              ",
"                           &&&&&&&                              ",
"                           &&&&&&&                              ",
"                         &&&&&&&&&&&                            ",
"                         &&&&:<[&&&&                            ",
"                          &&&)}|&&&                             ",
"                       ',&&&&&1;&&&&,&                          ",
"                       >&&&&&&&&&&&&&>                          ",
"                         &&&&&&&&&&&&                           ",
"                          &&&&&&&&&                             ",
"                           &&;23&&&                             ",
"                           &45678&&                             ",
"                           &90,,a&&                             ",
"                           &bc,de&&                             ",
"                           &&fghi&&                             ",
"                           &&j}k&&&                             ",
"                           &&lmn&&&                             ",
"                          &&&&&&&&&                             ",
"                        &&&&&&&&&&&&&                           ",
"                        &&&&&&&&&&&&&&                          ",
"                     &&&&&&&&&&&&&&&&&&&                        ",
"                    &&&&&&&&&&&&&&&&&&&&&                       ",
"                    &&&&&&&&&&&&&&&&&&&&&                       "};
