/* XPM */
static char * exit_red_xpm[] = {
"64 64 49 1",
" 	c None",
".	c #E9445E",
"+	c #EA435E",
"@	c #EA445E",
"#	c #E9435D",
"$	c #B73348",
"%	c #1E0000",
"&	c #1F0000",
"*	c #1F0101",
"=	c #1F0001",
"-	c #872332",
";	c #B13145",
">	c #A12C3D",
",	c #BB3449",
"'	c #200101",
")	c #BD354A",
"!	c #721C29",
"~	c #B83347",
"{	c #8F2535",
"]	c #480C14",
"^	c #C0364B",
"/	c #721B28",
"(	c #5F1520",
"_	c #DB3F58",
":	c #8C2434",
"<	c #220B0B",
"[	c #57121B",
"}	c #A12C3E",
"|	c #791E2C",
"1	c #4C0D16",
"2	c #B63347",
"3	c #4D0E17",
"4	c #932737",
"5	c #8F2536",
"6	c #80202F",
"7	c #7E202E",
"8	c #200202",
"9	c #AA2E41",
"0	c #490C14",
"a	c #5D141E",
"b	c #9A293A",
"c	c #8E2535",
"d	c #AC2F43",
"e	c #CE3B52",
"f	c #902636",
"g	c #B73347",
"h	c #2C0305",
"i	c #C3374D",
"j	c #631621",
"                                                                ",
"                                                                ",
"                                                                ",
"                                                                ",
"                                                                ",
"                                                                ",
"                                                                ",
"                                                                ",
"                                                                ",
"                                                                ",
"                                                                ",
"                             .+.                                ",
"                             @#+                                ",
"                              $                                 ",
"                              %                                 ",
"                              %                                 ",
"                              &                                 ",
"                              *                                 ",
"                              %                                 ",
"                              %                                 ",
"                              &                                 ",
"                             %&%                                ",
"                            %%%%%                               ",
"                             %%%                                ",
"                              %%                                ",
"                             %%%                                ",
"                             %%%                                ",
"                             %%%                                ",
"                             %%%                                ",
"                             %%%                                ",
"                             %%%                                ",
"                         %%%%%%%%%%%                            ",
"                         %%%%%%%%%%%                            ",
"                         %%%%=*%%%%%                            ",
"                           %%-;>%%%                             ",
"                       %%%%%*,')&%%%%%                          ",
"                        %%%%%!~{%%%%%%                          ",
"                         %%%%%&&%%%%                            ",
"                          %%%%%%%%%                             ",
"                          %%%%%%%%%                             ",
"                           %%%%%%%                              ",
"                           %%%%%%%                              ",
"                           %%%%%%%                              ",
"                           %%%%%%%                              ",
"                         %%%%%%%%%%%                            ",
"                          %%%]^/%%%%                            ",
"                          %%%(_:%%%                             ",
"                       <%%%%%%=%%%%%%%                          ",
"                       %%%%%%%%%%%%%%%                          ",
"                         %%%%%%%%%%%                            ",
"                           %%%%%%%%                             ",
"                           %%[}|%%%                             ",
"                           %12345%%                             ",
"                           %67%89%%                             ",
"                           %02abc%%                             ",
"                           %%d.e%%%                             ",
"                           %%f.g%%%                             ",
"                           %%hij%%%                             ",
"                          %%%%%%%%%                             ",
"                        %%%%%%%%%%%%%                           ",
"                       %%%%%%%%%%%%%%%                          ",
"                     %%%%%%%%%%%%%%%%%%%%                       ",
"                    %%%%%%%%%%%%%%%%%%%%%                       ",
"                    %%%%%%%%%%%%%%%%%%%%%                       "};
