/* XPM */
static char * exit_red_xpm[] = {
"64 64 237 2",
"  	c #CD7700",
". 	c #CD7701",
"+ 	c #CE760A",
"@ 	c #CF7415",
"# 	c #D0731B",
"$ 	c #D07319",
"% 	c #CE7510",
"& 	c #CD7605",
"* 	c #CE760B",
"= 	c #D27024",
"- 	c #D76935",
"; 	c #D9663C",
"> 	c #D9653D",
", 	c #D8673A",
"' 	c #D56C2F",
") 	c #D07318",
"! 	c #CD7702",
"~ 	c #D56C31",
"{ 	c #D76A35",
"] 	c #D36F28",
"^ 	c #D17121",
"/ 	c #D27123",
"( 	c #D46D2E",
"_ 	c #D9663A",
": 	c #D17122",
"< 	c #CD7603",
"[ 	c #CE7608",
"} 	c #D36E2A",
"| 	c #CE750C",
"1 	c #D0731A",
"2 	c #D76936",
"3 	c #D0721C",
"4 	c #D1721E",
"5 	c #D9663B",
"6 	c #D46D2C",
"7 	c #CE7607",
"8 	c #D86839",
"9 	c #D66B32",
"0 	c #CE7609",
"a 	c #D46E2C",
"b 	c #D07418",
"c 	c #D8683A",
"d 	c #E8475B",
"e 	c #E35353",
"f 	c #CF7514",
"g 	c #CD7604",
"h 	c #CE750D",
"i 	c #E35452",
"j 	c #E9435D",
"k 	c #D76A34",
"l 	c #D1721F",
"m 	c #CE750E",
"n 	c #DB633F",
"o 	c #E9445E",
"p 	c #E74A5A",
"q 	c #D46E2B",
"r 	c #CD780D",
"s 	c #753D0F",
"t 	c #AB6203",
"u 	c #CE7606",
"v 	c #D46D2D",
"w 	c #D86739",
"x 	c #CF7416",
"y 	c #814804",
"z 	c #B86A08",
"A 	c #CF7413",
"B 	c #874B01",
"C 	c #B96A01",
"D 	c #D86838",
"E 	c #CE760C",
"F 	c #934B17",
"G 	c #C56726",
"H 	c #D66A33",
"I 	c #D76937",
"J 	c #D1721D",
"K 	c #9B4726",
"L 	c #D06337",
"M 	c #D36F2A",
"N 	c #CF7412",
"O 	c #CE7605",
"P 	c #975309",
"Q 	c #CB7310",
"R 	c #6E3B00",
"S 	c #B16601",
"T 	c #945301",
"U 	c #C87400",
"V 	c #AA6100",
"W 	c #441F00",
"X 	c #733F00",
"Y 	c #C77300",
"Z 	c #C77408",
"` 	c #965509",
" .	c #3B1800",
"..	c #210200",
"+.	c #723E00",
"@.	c #AE6511",
"#.	c #AD6305",
"$.	c #C27109",
"%.	c #965500",
"&.	c #452000",
"*.	c #C27000",
"=.	c #A45D02",
"-.	c #4F2700",
";.	c #C97501",
">.	c #B96B01",
",.	c #733F01",
"'.	c #8C4F02",
").	c #C27001",
"!.	c #BF6F02",
"~.	c #411D00",
"{.	c #8B4E00",
"].	c #975602",
"^.	c #CD7706",
"/.	c #BB6C0A",
"(.	c #562C02",
"_.	c #8D500A",
":.	c #CB7600",
"<.	c #7C4400",
"[.	c #B76900",
"}.	c #985600",
"|.	c #703D00",
"1.	c #975500",
"2.	c #BA6B00",
"3.	c #1E0000",
"4.	c #754000",
"5.	c #CA7500",
"6.	c #1F0000",
"7.	c #905100",
"8.	c #955400",
"9.	c #230101",
"0.	c #80202F",
"a.	c #601520",
"b.	c #4C2500",
"c.	c #BF6E00",
"d.	c #B06500",
"e.	c #B26600",
"f.	c #B63347",
"g.	c #8E2535",
"h.	c #BF364B",
"i.	c #B36700",
"j.	c #B16600",
"k.	c #C06F00",
"l.	c #884C01",
"m.	c #1F0101",
"n.	c #BB3449",
"o.	c #842231",
"p.	c #BD354A",
"q.	c #661723",
"r.	c #BB6C03",
"s.	c #CC7700",
"t.	c #301000",
"u.	c #3E0910",
"v.	c #99283A",
"w.	c #761D2A",
"x.	c #643500",
"y.	c #834900",
"z.	c #220200",
"A.	c #AE6300",
"B.	c #CB760C",
"C.	c #925410",
"D.	c #7E4603",
"E.	c #542A01",
"F.	c #844A02",
"G.	c #A35E0B",
"H.	c #703C00",
"I.	c #B46702",
"J.	c #CD7916",
"K.	c #BE6E00",
"L.	c #3F1C00",
"M.	c #623400",
"N.	c #935300",
"O.	c #B56800",
"P.	c #4D0E16",
"Q.	c #260301",
"R.	c #AE6400",
"S.	c #631721",
"T.	c #E8445D",
"U.	c #C0364C",
"V.	c #633400",
"W.	c #B86B0E",
"X.	c #9D5901",
"Y.	c #9C5901",
"Z.	c #884C03",
"`.	c #260203",
" +	c #AD3043",
".+	c #7F202E",
"++	c #522902",
"@+	c #9E5A02",
"#+	c #9E5A01",
"$+	c #A05C0A",
"%+	c #9C5800",
"&+	c #321201",
"*+	c #C57205",
"=+	c #5C2F00",
"-+	c #2E0E00",
";+	c #9C5903",
">+	c #B46700",
",+	c #7F4600",
"'+	c #542A00",
")+	c #9B5800",
"!+	c #C57200",
"~+	c #7E4500",
"{+	c #BD6D00",
"]+	c #2C0404",
"^+	c #6C1925",
"/+	c #7D4500",
"(+	c #3C090D",
"_+	c #BE364B",
":+	c #882332",
"<+	c #9D2A3C",
"[+	c #A42D3F",
"}+	c #8A2533",
"|+	c #7F202F",
"1+	c #B43246",
"2+	c #741D29",
"3+	c #BC354A",
"4+	c #C8394F",
"5+	c #D53D55",
"6+	c #721C28",
"7+	c #BE6D00",
"8+	c #A02C3D",
"9+	c #E2425B",
"0+	c #671823",
"a+	c #C2374C",
"b+	c #6B3900",
"c+	c #8C2534",
"d+	c #501017",
"e+	c #AB6200",
"f+	c #864B00",
"g+	c #482200",
"h+	c #A86000",
"i+	c #AF6400",
"j+	c #894C00",
"k+	c #B86A00",
"l+	c #A76000",
"m+	c #552B00",
"n+	c #C17000",
"                                                                                                                                ",
"                                                        . + @ # $ % &                                                           ",
"                                                      * = - ; > > , ' ) !                                                       ",
"                                                    % ~ > { ] ^ / ( _ _ : <                                                     ",
"                                                  [ ( > } | .     < 1 2 , 3 .                                                   ",
"                                                . 4 5 6 7           . $ 8 9 0                                                   ",
"                                                < a , b     c d e f   g a , b                                                   ",
"                                                [ 9 - h     i j j k   . / 5 l                                                   ",
"                                                7 9 2 m     n o p 1   . = 5 4                                                   ",
"                                                < q , 1     r s t r   u v w x                                                   ",
"                                                  # , ' *     y z   . 3 , ' 7                                                   ",
"                                                  u q ; v A < B C 7 l D D )                                                     ",
"                                                    E a ; 8 ( F G H ; I J !                                                     ",
"                                                      u 4 ~ w K L 2 M N .                                                       ",
"                                                        . O h P Q + !                                                           ",
"                                                              R S                                                               ",
"                                                              T U                                                               ",
"                                                            V W X Y                                                             ",
"                                                        Z `  .....+.@.                                                          ",
"                                                          #.......X $.                                                          ",
"                                                            %...&.*.                                                            ",
"                                                            =...-.;.                                                            ",
"                                                          >.......,.                                                            ",
"                                                            '.....).                                                            ",
"                                                          !.~.....{.r                                                           ",
"                                                            ].....^.                                                            ",
"                                                          /.(....._.                                                            ",
"                                                          :.<.....[.                                                            ",
"                                                  Y }.}.}.}.|.....1.}.}.}.V                                                     ",
"                                                  2.........3.3.3.........4.                                                    ",
"                                                  5.3.3.3.3.6.6.6.3.3.3.3.7.                                                    ",
"                                                    8.3.3.3.9.0.a.3.3.3.b.c.                                                    ",
"                                              d.d.d.e.V 3.3.f.g.h.a.3.4.i.e.j.j.k.                                              ",
"                                              l...........m.n.o.p.q........... .r.                                              ",
"                                              s.1.t.........u.v.w.6.........x.2.                                                ",
"                                                  Y y.........z.m.......~.A.                                                    ",
"                                                    B...................C.r                                                     ",
"                                                    r D.E.............F.G.r                                                     ",
"                                                  r r r H.............I.r r                                                     ",
"                                                  r r   H.............i.  J.                                                    ",
"                                                        H.............i.                                                        ",
"                                                        H.............i.                                                        ",
"                                                  K.|.|.L.............M.|.N.                                                    ",
"                                                  O...........P.Q.........|.                                                    ",
"                                                    R.......S.T.U.......V.                                                      ",
"                                            r W.X.Y.Z.......`. +.+......++@+#+$+r                                               ",
"                                              %+..............................&+                                                ",
"                                              *+=+..........................-+;+r                                               ",
"                                                  >+,+..................'+)+!+r                                                 ",
"                                                      ~+................{+                                                      ",
"                                                      ~+....]+0.^+......{+                                                      ",
"                                                      /+..(+_+:+<+[+....{+                                                      ",
"                                                      /+..}+|+m.m.1+....{+                                                      ",
"                                                      /+..2+<+m.m.3+....{+                                                      ",
"                                                      <.....3+4+5+6+....7+                                                      ",
"                                                      <.....8+o 9+......7+                                                      ",
"                                                      <.....0+o a+......7+                                                      ",
"                                                      b+......c+d+......i.                                                      ",
"                                                c.e+f+..................g+h+i+                                                  ",
"                                                1.............................                                                  ",
"                                            K.j.&.............................j+k+5.                                            ",
"                                        l+f+......................................m+1.n+                                        ",
"                                        |.............................................O.                                        ",
"                                        |.............................................O.                                        "};
