/* XPM */
static char * exit_green_xpm[] = {
"64 64 228 2",
"  	c #CD7700",
". 	c #CD7800",
"+ 	c #CC7901",
"@ 	c #CA7C03",
"# 	c #C97E04",
"$ 	c #C97C03",
"% 	c #CB7A01",
"& 	c #C48309",
"* 	c #BB8E12",
"= 	c #B69414",
"- 	c #B59415",
"; 	c #BA9012",
"> 	c #C2860B",
", 	c #CA7B02",
"' 	c #BD8C10",
") 	c #B59515",
"! 	c #BC8D11",
"~ 	c #C3850A",
"{ 	c #C68107",
"] 	c #C48409",
"^ 	c #BE8B0F",
"/ 	c #BB8E11",
"( 	c #C97D04",
"_ 	c #BF8A0E",
": 	c #CC7800",
"< 	c #C68006",
"[ 	c #B89213",
"} 	c #CB7A02",
"| 	c #C78006",
"1 	c #B49517",
"2 	c #C4840C",
"3 	c #C1880D",
"4 	c #B89214",
"5 	c #8EB226",
"6 	c #0AD433",
"7 	c #38CF31",
"8 	c #C2860D",
"9 	c #BC8D10",
"0 	c #CC7801",
"a 	c #BE8C0F",
"b 	c #5DC62F",
"c 	c #B59517",
"d 	c #B99012",
"e 	c #B09A1C",
"f 	c #3BBF2D",
"g 	c #81B527",
"h 	c #CD7707",
"i 	c #BD8C0F",
"j 	c #BA8F11",
"k 	c #C77F06",
"l 	c #CD780C",
"m 	c #5A2F03",
"n 	c #B16603",
"o 	c #CD780D",
"p 	c #C97D03",
"q 	c #B79314",
"r 	c #C0880D",
"s 	c #B99112",
"t 	c #713E08",
"u 	c #C67306",
"v 	c #C87E04",
"w 	c #C58208",
"x 	c #794401",
"y 	c #C47702",
"z 	c #C68106",
"A 	c #BC8E10",
"B 	c #C87F05",
"C 	c #7A5907",
"D 	c #B59013",
"E 	c #C58207",
"F 	c #855805",
"G 	c #C1850B",
"H 	c #874C00",
"I 	c #C67300",
"J 	c #CD7703",
"K 	c #743F00",
"L 	c #BA6B01",
"M 	c #874B00",
"N 	c #C77300",
"O 	c #894C00",
"P 	c #220200",
"Q 	c #4C2500",
"R 	c #C17000",
"S 	c #C67307",
"T 	c #6F3C05",
"U 	c #210200",
"V 	c #512900",
"W 	c #A25E11",
"X 	c #C3710B",
"Y 	c #3F1C00",
"Z 	c #935300",
"` 	c #CD780A",
" .	c #9C5800",
"..	c #592D00",
"+.	c #C87400",
"@.	c #CD7701",
"#.	c #864B00",
"$.	c #472100",
"%.	c #C17002",
"&.	c #B56800",
"*.	c #441F00",
"=.	c #864B01",
"-.	c #C77301",
";.	c #794304",
">.	c #B56802",
",.	c #C67301",
"'.	c #623400",
").	c #A75F00",
"!.	c #945403",
"~.	c #B56908",
"{.	c #2E0F02",
"].	c #C16F00",
"^.	c #834900",
"/.	c #854A00",
"(.	c #613300",
"_.	c #7F4600",
":.	c #824800",
"<.	c #9E5A00",
"[.	c #1E0000",
"}.	c #7B4400",
"|.	c #1F0000",
"1.	c #9A5700",
"2.	c #A05B00",
"3.	c #204009",
"4.	c #189822",
"5.	c #1E7719",
"6.	c #290A00",
"7.	c #CD7705",
"8.	c #985600",
"9.	c #965400",
"0.	c #19AC28",
"a.	c #294C10",
"b.	c #12AE28",
"c.	c #1C5F12",
"d.	c #703D00",
"e.	c #B56801",
"f.	c #884C00",
"g.	c #1F0101",
"h.	c #16A426",
"i.	c #1C8F20",
"j.	c #14B52B",
"k.	c #1D4D0D",
"l.	c #C27002",
"m.	c #4E2600",
"n.	c #1B6F16",
"o.	c #1D4E0D",
"p.	c #C57200",
"q.	c #CC7600",
"r.	c #8D4F00",
"s.	c #572C00",
"t.	c #BD6D00",
"u.	c #C2710E",
"v.	c #98570D",
"w.	c #CD791B",
"x.	c #9B590E",
"y.	c #552B00",
"z.	c #945409",
"A.	c #AE640A",
"B.	c #6C3A00",
"C.	c #B46801",
"D.	c #CD7916",
"E.	c #B46800",
"F.	c #BB6C00",
"G.	c #6F3C00",
"H.	c #3E1B00",
"I.	c #8E5000",
"J.	c #B86A00",
"K.	c #371600",
"L.	c #1E6514",
"M.	c #1F3907",
"N.	c #2C0C00",
"O.	c #804700",
"P.	c #9B5800",
"Q.	c #1F6514",
"R.	c #02D333",
"S.	c #19AD29",
"T.	c #673700",
"U.	c #985603",
"V.	c #764100",
"W.	c #210901",
"X.	c #189221",
"Y.	c #1D6213",
"Z.	c #542B02",
"`.	c #985601",
" +	c #985602",
".+	c #9A5801",
"++	c #3C1A00",
"@+	c #C67305",
"#+	c #6E3C04",
"$+	c #452000",
"%+	c #A66009",
"&+	c #391700",
"*+	c #6A3900",
"=+	c #A76000",
"-+	c #CB7600",
";+	c #BF6F00",
">+	c #1E3D09",
",+	c #1B891E",
"'+	c #1E7418",
")+	c #223E09",
"!+	c #11B52B",
"~+	c #1B7017",
"{+	c #1D841D",
"]+	c #199C24",
"^+	c #1C9120",
"/+	c #1BA526",
"(+	c #256515",
"_+	c #189120",
":+	c #231C04",
"<+	c #1BB02A",
"[+	c #19A727",
"}+	c #0EBD2D",
"|+	c #0FC730",
"1+	c #1E6112",
"2+	c #1A9722",
"3+	c #12C930",
"4+	c #255911",
"5+	c #11AD28",
"6+	c #5D3000",
"7+	c #226A15",
"8+	c #213907",
"9+	c #B36700",
"0+	c #B96B00",
"a+	c #411D00",
"b+	c #AD6300",
"c+	c #B66800",
"d+	c #774100",
"e+	c #B66900",
"                                                                                                                                ",
"                                                        . + @ # $ % .                                                           ",
"                                                      % & * = - = ; > ,                                                         ",
"                                                    , ' ) ! ~ { ] ^ - / (                                                       ",
"                                                  + _ - & +       : < [ / }                                                     ",
"                                                  | - ~ :     1 2     { - ]                                                     ",
"                                                  3 4 ,     5 6 7 8   + / 9 :                                                   ",
"                                                0 a / +     b 6 6 c   . _ ; +                                                   ",
"                                                . _ d %     e f g h   : i j +                                                   ",
"                                                  & - k     l m n o   p q r .                                                   ",
"                                                  , s / @     t u   } ^ q v                                                     ",
"                                                    | q ; w , x y z A - ] .                                                     ",
"                                                    . B / ) q C D ) ; E :                                                       ",
"                                                        + k > F G { } .                                                         ",
"                                                              H I                                                               ",
"                                                            J K L                                                               ",
"                                                              M N                                                               ",
"                                                            O P Q R                                                             ",
"                                                        S T U U U V W                                                           ",
"                                                          X Y U U Z `                                                           ",
"                                                             .U ..+.                                                            ",
"                                                          @.#.U $.%.                                                            ",
"                                                          &.*.U U =.                                                            ",
"                                                          -.;.U U >.                                                            ",
"                                                          ,.'.U U ).                                                            ",
"                                                            !.U U                                                               ",
"                                                        o ~.{.U U ;.o                                                           ",
"                                                            #.U U N                                                             ",
"                                                  ].^./././.(.U U _.:.^.^.<.                                                    ",
"                                                  &.U U U U [.[.[.U U U U }.                                                    ",
"                                                  N [.[.[.[.|.|.|.[.[.[.[.1.                                                    ",
"                                                    2.V [.[.3.4.5.[.[.6.}.N                                                     ",
"                                            7.8.8.8.8.9.[.[.0.a.b.c.[.d.8.8.8.8.e.                                              ",
"                                              f.U U U U U g.h.i.j.k.U U U U U $.l.                                              ",
"                                                ).m.U U U U g.n.o.U U U U U :.p.                                                ",
"                                                  q.r.U U U [.[.|.U U U s.t.                                                    ",
"                                                  o u.U U U U U U U U U v.o                                                     ",
"                                                    w.x.y.U U U U U U z.A.o                                                     ",
"                                                  o o   B.U U U U U U C.o D.                                                    ",
"                                                    o   B.U U U U U U E.  o                                                     ",
"                                                        B.U U U U U U E.                                                        ",
"                                                        B.U U U U U U E.                                                        ",
"                                                  F.G.G.H.U U U U U U (.G.I.                                                    ",
"                                                  J.K.[.[.[.[.L.M.[.[.[.N.O.                                                    ",
"                                                    P.U U U Q.R.S.U U U T.                                                      ",
"                                            o ~.U.8.V.U U U W.X.Y.U U U Z.8.`. +o                                               ",
"                                            o .+U U U U U U U U U U U U U U U ++  o                                             ",
"                                              @+#+U U U U U U U U U U U U U $+%+                                                ",
"                                                  t.#.&+U U U U U U U U *+=+-+                                                  ",
"                                                      d.U U U U U U U U ;+                                                      ",
"                                                      d.U U >+,+'+U U U ;+                                                      ",
"                                                      d.U )+!+~+{+]+U U ;+                                                      ",
"                                                      d.U ^+~+g.g./+U U ;+                                                      ",
"                                                      d.U (+_+g.:+<+U U ;+                                                      ",
"                                                      d.U U [+}+|+1+U U ;+                                                      ",
"                                                      d.U U 2+R.3+U U U ;+                                                      ",
"                                                      d.U U 4+R.5+U U U ;+                                                      ",
"                                                      6+U U U 7+8+U U U 9+                                                      ",
"                                                0+8.}.U U U U U U U U U a+8.<.                                                  ",
"                                                Z U U U U U U U U U U U U U U q.                                                ",
"                                            J.b+H.U U U U U U U U U U U U U U /.c+p.                                            ",
"                                        2.G.[.U U U U U U U U U U U U U U U U U [.$.M R                                         ",
"                                        d.U U U U U U U U U U U U U U U U U U U U U U &.                                        ",
"                                        d+&+&+&+&+&+&+&+&+&+&+&+&+&+&+&+&+&+&+&+&+&+&+e+                                        "};
