/* XPM */
static char * exit_green_xpm[] = {
"32 32 130 2",
"  	c None",
". 	c #03FF1D",
"+ 	c #3C9C52",
"@ 	c #383C5C",
"# 	c #2E3558",
"$ 	c #2F3252",
"% 	c #38364D",
"& 	c #2E2535",
"* 	c #625A6E",
"= 	c #363350",
"- 	c #1F0B12",
"; 	c #1F101F",
"> 	c #201221",
", 	c #554F62",
"' 	c #221120",
") 	c #433D58",
"! 	c #21101E",
"~ 	c #453F57",
"{ 	c #231221",
"] 	c #423F55",
"^ 	c #34314B",
"/ 	c #210B17",
"( 	c #230A12",
"_ 	c #200A12",
": 	c #1E0B16",
"< 	c #200E1C",
"[ 	c #585972",
"} 	c #403D58",
"| 	c #212713",
"1 	c #228D18",
"2 	c #216C13",
"3 	c #201022",
"4 	c #221A2C",
"5 	c #25192E",
"6 	c #2D2132",
"7 	c #18C01A",
"8 	c #1DB91C",
"9 	c #17E51D",
"0 	c #215C17",
"a 	c #39313F",
"b 	c #231A30",
"c 	c #3E3856",
"d 	c #322E46",
"e 	c #200D1B",
"f 	c #200C10",
"g 	c #208014",
"h 	c #1ECE1C",
"i 	c #1CC51B",
"j 	c #222B15",
"k 	c #1E0B11",
"l 	c #291E33",
"m 	c #47445E",
"n 	c #454158",
"o 	c #220B13",
"p 	c #200A14",
"q 	c #31283B",
"r 	c #241629",
"s 	c #403D55",
"t 	c #25162B",
"u 	c #200B12",
"v 	c #1F0B14",
"w 	c #3C354C",
"x 	c #332D47",
"y 	c #210B15",
"z 	c #255615",
"A 	c #202815",
"B 	c #1F0F1C",
"C 	c #363556",
"D 	c #250D14",
"E 	c #0BFB1D",
"F 	c #1BC11A",
"G 	c #1E121D",
"H 	c #4D4D65",
"I 	c #403D57",
"J 	c #2E283A",
"K 	c #200A13",
"L 	c #237016",
"M 	c #234612",
"N 	c #1E0E17",
"O 	c #47425A",
"P 	c #46445C",
"Q 	c #211931",
"R 	c #1F0B10",
"S 	c #1E0A12",
"T 	c #200B14",
"U 	c #1F0B11",
"V 	c #1E0B13",
"W 	c #210B13",
"X 	c #363256",
"Y 	c #353247",
"Z 	c #234414",
"` 	c #1DBF19",
" .	c #229717",
"..	c #1F0B13",
"+.	c #4F4C63",
"@.	c #737381",
"#.	c #1CC51A",
"$.	c #21A61B",
"%.	c #19DF1D",
"&.	c #226619",
"*.	c #1F1627",
"=.	c #6E6E7D",
"-.	c #1EC31B",
";.	c #20B91B",
">.	c #18E41D",
",.	c #22601A",
"'.	c #1D1626",
").	c #717180",
"!.	c #1E0B14",
"~.	c #246718",
"{.	c #1CD71C",
"].	c #1E0C18",
"^.	c #1E1627",
"/.	c #6D6C7D",
"(.	c #1F0A12",
"_.	c #228319",
":.	c #1E0C14",
"<.	c #211529",
"[.	c #504F6D",
"}.	c #1F0E1B",
"|.	c #1F0A11",
"1.	c #1D0B12",
"2.	c #2D293F",
"3.	c #292335",
"4.	c #1C0A11",
"5.	c #1E0A0F",
"6.	c #1E0A10",
"7.	c #1D0A11",
"8.	c #1C0F19",
"9.	c #45435A",
"                                                                ",
"                              . .                               ",
"                              . .                               ",
"                              +                                 ",
"                              @                                 ",
"                              #                                 ",
"                              $                                 ",
"                              %                                 ",
"                              & *                               ",
"                            = - ;                               ",
"                              > ,                               ",
"                              ' )                               ",
"                              ! ~                               ",
"                              { ]                               ",
"                        ^ - / ( _ : < [                         ",
"                          } | 1 2 3                             ",
"                      4 5 6 7 8 9 0 a b c                       ",
"                      d e f g h i j k l m                       ",
"                          n o p - q                             ",
"                            r - - s                             ",
"                            t u v w                             ",
"                          x y z A B                             ",
"                          C D E F G                             ",
"                      H I J K L M N O P                         ",
"                      Q R S T k U U V W X                       ",
"                        Y u Z `  ...< +.                        ",
"                        @.T #.$.%.&.*.                          ",
"                        =.v -.;.>.,.'.                          ",
"                        ).!.~.. {.].^.                          ",
"                        /.(.K -._.:.<.                          ",
"                      [.}.|.(...- - 1.2.                        ",
"                    3.4.5.6.6.7.7.7.4.7.8.9.                    "};
